SplineFontDB: 3.2
FontName: u5cdot
FullName: u5cdot
FamilyName: hscii
Weight: book
Copyright: copyright (c) 2010, 2011, natalia raices<nraices@gmail.com>, with reserved font Name "Delius" "Delius Unicase" "Delius Swash Caps".\ncopyright (c) 2021d=7X5h(sevenso Aksti phaiv), vimalkg@gmail.com, other fonts as :\nDeliusUnicase\n    => u5.\n        => u5c=>u5h=>u5r=>u5p=>u5ch=>u5v\n        => u8c=>u8h=>u8r=>u8p=>u8ch=>u8v\n        => u2c          =>u2ch          =>u2ch\n        => u2zc\n        \nc -> capital case as like program/heks810 symbols\nh -> LJqwXF continuous , ABCDEF-LJqwXF lost\nrf -> j->H, q->A ,  x->T,  w->D\nr -> f-> N , j->H, q->A ,  x->T,  w->D\np -> capital case no programming symbols yes\nv -> phonetik vokl ordr
Version: 1.000
ItalicAngle: 0
UnderlinePosition: -200
UnderlineWidth: 50
Ascent: 800
Descent: 200
InvalidEm: 0
sfntRevision: 0x00010000
LayerCount: 2
Layer: 0 0 "Back" 1
Layer: 1 0 "Fore" 0
StyleMap: 0x0000
FSType: 0
OS2Version: 0
OS2_WeightWidthSlopeOnly: 0
OS2_UseTypoMetrics: 0
CreationTime: 1620214964
ModificationTime: 1620447258
OS2TypoAscent: 0
OS2TypoAOffset: 1
OS2TypoDescent: 0
OS2TypoDOffset: 1
OS2TypoLinegap: 90
OS2WinAscent: 0
OS2WinAOffset: 1
OS2WinDescent: 0
OS2WinDOffset: 1
HheadAscent: 0
HheadAOffset: 1
HheadDescent: 0
HheadDOffset: 1
OS2Vendor: 'PfEd'
MarkAttachClasses: 1
DEI: 91125
LangName: 1033
Encoding: ISO8859-1
UnicodeInterp: none
NameList: AGL For New Fonts
DisplaySize: -48
AntiAlias: 1
FitToEm: 0
WinInfo: 108 27 9
BeginPrivate: 3
BlueValues 16 [-85 7 739 784 ]
BlueShift 2 10
BlueScale 6 0.0125
EndPrivate
BeginChars: 325 294

StartChar: exclam
Encoding: 33 33 3
Width: 289
Flags: W
LayerCount: 2
Fore
SplineSet
186 95 m 0
 195 84 199 70 199 52 c 0
 199 36 193 20 182 6 c 0
 171 -8 157 -15 141 -15 c 0
 125 -15 112 -9 104 4 c 0
 94 16 90 30 90 47 c 0
 90 64 96 79 106 92 c 0
 118 105 131 112 148 112 c 0
 165 112 177 106 186 95 c 0
188 467 m 1
 189 266 l 2
 189 249 185 235 177 225 c 0
 169 215 158 210 144 210 c 0
 130 210 119 215 111 225 c 0
 103 235 99 249 99 266 c 2
 101 467 l 1
 93 695 l 2
 93 715 98 731 106 742 c 0
 116 754 128 760 144 760 c 0
 160 760 172 754 182 742 c 0
 190 731 195 715 195 695 c 2
 188 467 l 1
EndSplineSet
Validated: 1
EndChar

StartChar: quotedbl
Encoding: 34 34 4
Width: 413
Flags: W
LayerCount: 2
Fore
SplineSet
166 704 m 2
 154 596 l 2
 153 567 150 547 144 535 c 0
 140 523 131 517 118 517 c 0
 105 517 96 523 92 535 c 0
 86 547 83 567 82 596 c 2
 70 704 l 2
 70 721 74 735 83 745 c 0
 92 755 103 760 118 760 c 0
 133 760 144 755 153 745 c 0
 162 735 166 721 166 704 c 2
343 704 m 2
 331 596 l 2
 330 567 326 547 322 535 c 0
 316 523 308 517 295 517 c 0
 282 517 274 523 268 535 c 0
 264 547 260 567 259 596 c 2
 247 704 l 2
 247 721 251 735 260 745 c 0
 269 755 280 760 295 760 c 0
 310 760 321 755 330 745 c 0
 339 735 343 721 343 704 c 2
EndSplineSet
Validated: 1
EndChar

StartChar: numbersign
Encoding: 35 35 5
Width: 858
Flags: W
LayerCount: 2
Fore
SplineSet
361 431 m 1
 342 339 331 287 329 274 c 1
 498 274 l 1
 502 290 508 318 516 358 c 0
 523 397 528 422 530 431 c 1
 361 431 l 1
691 196 m 2
 564 199 l 1
 559 170 548 116 533 35 c 0
 528 5 513 -10 488 -10 c 0
 476 -10 466 -6 460 2 c 0
 452 9 449 18 449 28 c 0
 449 37 461 95 484 200 c 1
 317 200 l 1
 313 180 303 125 286 35 c 0
 281 5 266 -10 241 -10 c 0
 229 -10 220 -6 212 2 c 0
 206 9 202 17 202 25 c 0
 202 33 204 48 208 68 c 0
 213 90 218 113 224 140 c 0
 229 167 233 187 235 200 c 1
 122 196 l 2
 83 196 63 210 63 238 c 0
 63 265 83 278 122 278 c 2
 249 274 l 1
 253 290 259 318 266 357 c 0
 274 396 279 420 281 429 c 1
 167 427 l 2
 128 427 108 440 108 466 c 0
 108 493 128 507 167 507 c 2
 296 504 l 1
 302 533 312 587 327 668 c 0
 332 698 347 713 372 713 c 0
 384 713 394 709 400 702 c 0
 408 694 411 685 411 675 c 0
 411 665 399 608 376 503 c 1
 543 503 l 1
 547 523 557 578 574 668 c 0
 579 698 594 713 619 713 c 0
 630 713 640 709 647 702 c 0
 654 694 658 686 658 678 c 0
 658 670 656 656 652 635 c 0
 647 614 642 590 636 563 c 0
 630 536 626 516 624 503 c 1
 736 507 l 2
 775 507 795 493 795 466 c 0
 795 440 775 427 736 427 c 0
 721 427 679 428 609 430 c 1
 590 343 580 292 577 275 c 1
 691 278 l 2
 730 278 750 265 750 238 c 0
 750 210 730 196 691 196 c 2
EndSplineSet
Validated: 1
EndChar

StartChar: dollar
Encoding: 36 36 6
Width: 624
Flags: W
LayerCount: 2
Fore
SplineSet
505 64 m 0
 470 29 423 6 366 -4 c 1
 366 -58 351 -85 320 -85 c 0
 289 -85 274 -59 274 -7 c 1
 221 -2 174 13 131 40 c 0
 88 66 67 91 67 115 c 0
 67 127 71 137 79 145 c 0
 87 153 97 157 108 157 c 0
 120 157 132 153 144 146 c 0
 156 139 167 130 176 122 c 0
 185 112 199 104 217 95 c 0
 235 86 255 81 276 78 c 1
 278 204 279 293 279 345 c 1
 226 374 186 400 160 421 c 0
 135 442 117 463 108 482 c 0
 98 501 93 522 93 545 c 0
 93 586 110 623 144 655 c 0
 177 687 220 707 273 715 c 1
 273 773 288 802 319 802 c 0
 350 802 365 773 365 715 c 1
 408 710 444 698 474 680 c 0
 503 662 518 643 518 622 c 0
 518 609 514 599 506 592 c 0
 498 585 487 581 473 581 c 0
 459 581 441 588 420 602 c 0
 399 616 379 625 362 630 c 1
 360 514 359 437 359 400 c 1
 390 383 414 369 432 358 c 0
 451 347 471 332 493 314 c 0
 536 279 558 237 558 189 c 0
 558 141 540 99 505 64 c 0
462 188 m 0
 462 225 428 262 359 301 c 1
 359 300 360 227 363 83 c 1
 392 91 416 104 434 122 c 0
 453 140 462 162 462 188 c 0
214 598 m 0
 197 583 189 565 189 546 c 0
 189 527 196 509 212 494 c 0
 226 479 249 462 279 443 c 1
 276 563 275 625 275 630 c 1
 250 624 230 613 214 598 c 0
EndSplineSet
Validated: 1
EndChar

StartChar: percent
Encoding: 37 37 7
Width: 874
Flags: W
LayerCount: 2
Fore
SplineSet
620 700 m 0
 620 667 601 630 562 589 c 0
 561 587 545 539 512 446 c 0
 479 352 447 259 415 166 c 0
 383 73 366 24 363 18 c 0
 354 -4 339 -15 317 -15 c 0
 306 -15 297 -11 289 -4 c 0
 281 3 277 13 277 25 c 0
 277 37 285 63 302 104 c 0
 371 275 427 426 469 555 c 1
 457 553 443 552 426 552 c 0
 410 552 389 556 364 564 c 1
 365 553 366 544 366 537 c 0
 366 488 352 446 324 412 c 0
 296 379 259 362 214 362 c 0
 169 362 132 378 104 411 c 0
 77 444 63 485 63 536 c 0
 63 586 77 628 106 662 c 0
 135 696 171 713 216 713 c 0
 237 713 256 708 276 699 c 0
 294 690 310 679 322 668 c 0
 355 639 387 624 418 624 c 0
 449 624 473 629 490 638 c 1
 507 703 523 741 538 752 c 0
 545 757 556 760 569 760 c 0
 582 760 594 754 604 743 c 0
 615 732 620 717 620 700 c 0
268 462 m 0
 280 482 286 506 286 536 c 0
 286 567 280 592 268 612 c 0
 256 631 239 641 216 641 c 0
 193 641 176 631 162 612 c 0
 150 593 143 568 143 538 c 0
 143 508 149 483 162 464 c 0
 175 444 192 434 215 434 c 0
 238 434 255 444 268 462 c 0
770 287 m 0
 798 254 812 213 812 162 c 0
 812 112 798 70 769 36 c 0
 740 2 703 -15 658 -15 c 0
 612 -15 575 1 548 34 c 0
 520 67 506 108 506 159 c 0
 506 210 520 252 549 286 c 0
 578 319 615 336 660 336 c 0
 706 336 743 320 770 287 c 0
712 86 m 0
 726 105 732 130 732 160 c 0
 732 190 726 215 713 234 c 0
 700 254 682 264 660 264 c 0
 636 264 618 254 606 235 c 0
 592 216 586 191 586 162 c 0
 586 132 592 107 606 87 c 0
 618 67 636 57 659 57 c 0
 682 57 700 67 712 86 c 0
EndSplineSet
Validated: 1
EndChar

StartChar: ampersand
Encoding: 38 38 8
Width: 835
Flags: W
LayerCount: 2
Fore
SplineSet
455 370 m 2
 538 368 l 2
 650 368 706 398 706 459 c 0
 706 480 700 497 688 510 c 0
 675 523 662 533 647 538 c 0
 608 551 588 570 588 593 c 0
 588 605 592 615 600 622 c 0
 608 630 619 634 633 634 c 0
 671 634 708 616 744 580 c 0
 780 545 798 505 798 461 c 0
 798 402 777 358 734 330 c 0
 692 303 640 288 577 287 c 1
 589 259 595 231 595 203 c 0
 595 143 570 92 522 49 c 0
 472 6 410 -15 332 -15 c 0
 256 -15 191 9 140 58 c 0
 88 106 62 166 62 239 c 0
 62 281 72 322 93 362 c 0
 114 401 141 434 176 460 c 1
 133 500 112 544 112 590 c 0
 112 638 129 678 162 713 c 0
 196 748 244 765 305 765 c 0
 343 765 378 756 410 737 c 0
 443 718 459 698 459 677 c 0
 459 664 455 653 447 646 c 0
 439 639 430 635 419 635 c 0
 408 635 393 642 372 656 c 0
 352 671 328 678 301 678 c 0
 274 678 251 670 232 654 c 0
 214 639 205 618 205 593 c 0
 205 555 222 524 257 501 c 1
 286 504 302 505 304 505 c 0
 324 505 340 500 353 491 c 0
 366 482 372 469 372 452 c 0
 372 436 365 423 351 414 c 0
 337 404 320 399 300 399 c 0
 279 399 262 402 249 409 c 1
 221 392 199 370 182 341 c 0
 165 312 157 281 157 247 c 0
 157 195 173 153 206 120 c 0
 239 88 280 72 331 72 c 0
 382 72 423 85 454 112 c 0
 486 138 502 168 502 202 c 0
 502 254 491 280 470 280 c 0
 458 280 445 277 432 270 c 0
 418 263 405 260 392 260 c 0
 380 260 370 264 362 274 c 0
 354 282 350 293 350 306 c 0
 350 326 360 342 380 353 c 0
 399 364 424 370 455 370 c 2
EndSplineSet
Validated: 1
EndChar

StartChar: quotesingle
Encoding: 39 39 9
Width: 236
Flags: W
LayerCount: 2
Fore
SplineSet
166 704 m 2
 154 596 l 2
 153 567 150 547 144 535 c 0
 140 523 131 517 118 517 c 0
 105 517 96 523 92 535 c 0
 86 547 83 567 82 596 c 2
 70 704 l 2
 70 721 74 735 83 745 c 0
 92 755 103 760 118 760 c 0
 133 760 144 755 153 745 c 0
 162 735 166 721 166 704 c 2
EndSplineSet
Validated: 1
EndChar

StartChar: parenleft
Encoding: 40 40 10
Width: 347
Flags: W
LayerCount: 2
Fore
SplineSet
84 209 m 0
 70 270 62 328 62 385 c 0
 62 442 69 498 82 552 c 0
 96 608 113 655 134 696 c 0
 154 736 176 769 198 796 c 0
 222 822 242 835 258 835 c 0
 276 835 289 830 298 821 c 0
 307 812 312 801 312 790 c 0
 312 778 306 764 296 746 c 0
 284 730 271 710 256 688 c 0
 241 666 225 641 210 612 c 0
 195 583 182 547 170 502 c 0
 160 458 154 408 154 352 c 0
 154 297 161 243 176 190 c 0
 191 137 207 96 224 67 c 0
 242 38 258 12 273 -12 c 0
 288 -34 295 -50 295 -56 c 0
 295 -64 293 -70 288 -76 c 0
 283 -81 276 -84 266 -84 c 0
 249 -84 230 -71 206 -46 c 0
 184 -20 161 14 140 56 c 0
 118 97 100 148 84 209 c 0
EndSplineSet
Validated: 1
EndChar

StartChar: parenright
Encoding: 41 41 11
Width: 347
Flags: W
LayerCount: 2
Fore
SplineSet
264 552 m 0
 278 498 285 442 285 385 c 0
 285 328 278 270 262 209 c 0
 248 148 229 97 208 56 c 0
 186 14 164 -20 140 -46 c 0
 118 -71 98 -84 81 -84 c 0
 71 -84 64 -81 59 -76 c 0
 54 -70 52 -64 52 -56 c 0
 52 -50 59 -34 74 -12 c 0
 89 12 105 38 122 67 c 0
 140 96 156 137 171 190 c 0
 186 243 193 297 193 352 c 0
 193 408 188 458 176 502 c 0
 166 547 152 583 137 612 c 0
 122 641 106 666 91 688 c 0
 76 710 62 730 52 746 c 0
 40 764 35 778 35 790 c 0
 35 801 40 812 49 821 c 0
 58 830 72 835 88 835 c 0
 106 835 126 822 148 796 c 0
 172 769 193 736 214 696 c 0
 234 655 251 608 264 552 c 0
EndSplineSet
Validated: 1
EndChar

StartChar: asterisk
Encoding: 42 42 12
Width: 476
Flags: W
LayerCount: 2
Fore
SplineSet
204 642 m 1
 194 716 l 2
 194 731 198 742 206 752 c 0
 214 760 225 765 238 765 c 0
 251 765 262 760 270 752 c 0
 278 742 282 732 282 721 c 0
 282 710 280 696 277 680 c 0
 274 663 272 651 272 642 c 1
 277 645 285 652 298 662 c 0
 325 683 344 694 356 694 c 0
 368 694 378 690 386 683 c 0
 394 676 398 666 398 654 c 0
 398 641 392 631 382 622 c 0
 370 614 355 607 334 600 c 0
 313 593 301 589 298 587 c 1
 301 585 313 581 334 574 c 0
 355 567 370 560 382 552 c 0
 392 543 398 533 398 520 c 0
 398 507 394 498 386 490 c 0
 378 484 369 480 360 480 c 0
 350 480 340 483 331 488 c 0
 322 493 310 501 298 512 c 0
 284 522 276 529 271 532 c 1
 282 460 l 2
 282 445 278 433 270 424 c 0
 262 415 251 410 238 410 c 0
 225 410 214 415 206 424 c 0
 198 433 194 444 194 454 c 0
 194 466 196 479 200 496 c 0
 203 512 205 524 205 532 c 1
 200 529 191 522 178 512 c 0
 152 491 133 480 120 480 c 0
 108 480 98 484 90 490 c 0
 82 498 78 507 78 520 c 0
 78 533 84 543 94 552 c 0
 106 560 121 567 142 574 c 0
 163 581 175 585 178 587 c 1
 175 589 163 593 142 600 c 0
 121 607 106 614 94 622 c 0
 84 631 78 641 78 654 c 0
 78 666 82 676 90 683 c 0
 98 690 107 694 116 694 c 0
 125 694 135 691 144 686 c 0
 153 681 164 673 178 662 c 0
 190 652 199 645 204 642 c 1
EndSplineSet
Validated: 1
EndChar

StartChar: plus
Encoding: 43 43 13
Width: 601
Flags: W
LayerCount: 2
Fore
SplineSet
113 418 m 2
 263 415 l 1
 263 462 262 497 261 522 c 0
 260 547 259 560 259 561 c 0
 259 576 263 588 270 597 c 0
 278 606 288 610 301 610 c 0
 314 610 324 606 332 596 c 0
 340 588 344 575 344 560 c 0
 344 559 344 552 343 540 c 0
 341 504 340 462 340 415 c 1
 490 417 l 2
 505 417 517 413 526 405 c 0
 535 397 540 387 540 375 c 0
 540 363 535 353 526 345 c 0
 517 337 505 333 490 333 c 2
 340 336 l 1
 344 177 l 2
 344 162 340 149 332 140 c 0
 325 131 314 126 302 126 c 0
 288 126 278 131 270 140 c 0
 263 150 259 163 259 178 c 2
 263 337 l 1
 113 334 l 2
 98 334 86 338 77 346 c 0
 68 354 63 364 63 376 c 0
 63 388 68 398 77 406 c 0
 86 414 98 418 113 418 c 2
EndSplineSet
Validated: 1
EndChar

StartChar: comma
Encoding: 44 44 14
Width: 251
Flags: W
LayerCount: 2
Fore
SplineSet
177 36 m 0
 177 0 165 -40 141 -83 c 0
 117 -126 95 -148 74 -148 c 0
 53 -148 43 -139 43 -122 c 0
 43 -113 48 -100 58 -82 c 0
 69 -66 74 -50 74 -38 c 0
 74 -24 73 -12 70 0 c 0
 67 12 66 26 66 40 c 0
 66 56 71 70 82 84 c 0
 93 97 106 104 124 104 c 0
 140 104 154 98 163 86 c 0
 172 73 177 57 177 36 c 0
EndSplineSet
Validated: 1
EndChar

StartChar: hyphen
Encoding: 45 45 15
Width: 498
Flags: W
LayerCount: 2
Fore
SplineSet
249 336 m 1
 130 333 l 2
 115 333 104 337 94 345 c 0
 86 353 81 363 81 375 c 0
 81 387 86 397 94 405 c 0
 104 413 115 417 130 417 c 2
 130 417 249 414 249 414 c 1
 249 414 368 417 368 417 c 2
 383 417 394 413 404 405 c 0
 412 397 417 387 417 375 c 0
 417 363 412 353 404 345 c 0
 394 337 383 333 368 333 c 2
 249 336 l 1
EndSplineSet
Validated: 1
EndChar

StartChar: period
Encoding: 46 46 16
Width: 254
Flags: W
LayerCount: 2
Fore
SplineSet
168 102 m 0
 178 91 182 76 182 58 c 0
 182 41 176 25 165 11 c 0
 154 -3 140 -10 124 -10 c 0
 107 -10 94 -4 85 8 c 0
 76 20 71 35 71 52 c 0
 71 69 76 85 88 98 c 0
 98 112 112 119 130 119 c 0
 146 119 160 113 168 102 c 0
EndSplineSet
Validated: 1
EndChar

StartChar: slash
Encoding: 47 47 17
Width: 433
Flags: W
LayerCount: 2
Fore
SplineSet
284 822 m 0
 294 831 305 835 318 835 c 0
 331 835 342 830 350 820 c 0
 357 810 361 800 361 789 c 0
 361 778 356 754 347 718 c 0
 338 680 324 627 306 558 c 0
 258 369 213 176 170 -20 c 0
 165 -41 159 -56 152 -68 c 0
 144 -78 133 -84 118 -84 c 0
 103 -84 92 -79 84 -70 c 0
 75 -61 71 -50 71 -40 c 0
 71 -28 75 -7 83 25 c 0
 91 57 104 109 123 182 c 0
 167 353 215 555 267 787 c 0
 270 802 276 813 284 822 c 0
EndSplineSet
Validated: 1
EndChar

StartChar: zero
Encoding: 48 48 18
Width: 728
Flags: W
LayerCount: 2
Fore
SplineSet
559 375 m 0
 559 428 552 477 538 520 c 1
 231 162 l 1
 267 102 314 72 371 72 c 0
 428 72 474 102 508 161 c 0
 542 220 559 292 559 375 c 0
504 589 m 1
 470 648 424 678 367 678 c 0
 310 678 263 648 227 588 c 0
 191 528 173 457 173 375 c 0
 173 318 182 267 199 220 c 1
 504 589 l 1
574 650 m 0
 626 573 651 482 651 374 c 0
 651 268 626 176 574 100 c 0
 524 23 454 -15 367 -15 c 0
 280 -15 210 24 156 100 c 0
 104 178 77 269 77 375 c 0
 77 443 88 506 110 565 c 0
 133 624 166 672 212 709 c 0
 256 746 308 765 366 765 c 0
 454 765 524 727 574 650 c 0
EndSplineSet
Validated: 1
EndChar

StartChar: one
Encoding: 49 49 19
Width: 467
Flags: W
LayerCount: 2
Fore
SplineSet
331 698 m 2
 327 380 l 2
 327 277 328 200 330 148 c 0
 333 95 334 66 334 61 c 0
 334 14 317 -10 283 -10 c 0
 268 -10 257 -5 249 4 c 0
 241 13 236 23 234 34 c 0
 233 44 232 54 232 66 c 0
 232 76 233 117 235 186 c 0
 237 255 238 320 238 379 c 2
 237 625 l 1
 165 517 l 2
 162 512 158 506 153 499 c 0
 148 492 145 486 142 483 c 0
 139 480 136 475 132 470 c 0
 129 464 126 460 124 457 c 0
 121 454 118 451 115 447 c 0
 112 443 109 440 106 438 c 0
 104 437 101 435 98 433 c 0
 93 430 86 428 76 428 c 0
 66 428 57 432 50 440 c 0
 42 448 38 458 38 470 c 0
 38 481 43 495 52 510 c 0
 62 525 75 544 92 564 c 0
 109 586 118 597 120 600 c 0
 121 602 123 605 126 608 c 0
 129 611 134 618 141 627 c 0
 148 636 159 650 172 670 c 0
 186 688 196 702 202 711 c 0
 209 720 216 729 225 738 c 0
 240 753 256 760 274 760 c 0
 291 760 305 754 316 742 c 0
 326 730 331 715 331 698 c 2
EndSplineSet
Validated: 1
EndChar

StartChar: two
Encoding: 50 50 20
Width: 618
Flags: W
LayerCount: 2
Fore
SplineSet
492 -5 m 2
 492 -5 311 0 311 0 c 1
 311 0 126 -5 126 -5 c 2
 107 -5 91 0 79 8 c 0
 67 18 61 32 61 52 c 0
 61 71 73 98 97 132 c 0
 121 167 150 203 184 241 c 0
 219 279 253 317 288 356 c 0
 370 447 411 516 411 562 c 0
 411 599 400 627 376 648 c 0
 354 668 325 678 292 678 c 0
 273 678 256 674 241 666 c 0
 226 657 214 649 207 640 c 0
 200 632 192 622 184 610 c 0
 177 598 171 590 167 585 c 0
 156 572 143 565 130 565 c 0
 117 565 106 569 98 578 c 0
 89 587 85 597 85 608 c 0
 85 640 105 674 145 710 c 0
 185 747 237 765 300 765 c 0
 363 765 414 746 451 708 c 0
 488 670 507 623 507 568 c 0
 507 535 493 494 466 448 c 0
 439 400 408 358 374 320 c 0
 341 281 304 239 263 192 c 0
 222 146 194 111 178 87 c 1
 215 84 253 82 294 82 c 0
 335 82 376 83 419 86 c 0
 462 88 489 89 501 89 c 0
 513 89 524 85 536 76 c 0
 546 68 552 57 552 42 c 0
 552 27 546 16 536 8 c 0
 524 -1 510 -5 492 -5 c 2
EndSplineSet
Validated: 1
EndChar

StartChar: three
Encoding: 51 51 21
Width: 628
Flags: W
LayerCount: 2
Fore
SplineSet
154 755 m 2
 154 755 305 750 305 750 c 1
 305 750 471 755 471 755 c 2
 489 755 504 750 515 741 c 0
 526 732 532 720 532 705 c 0
 532 677 509 640 464 594 c 0
 418 547 381 507 354 474 c 1
 417 457 468 427 505 384 c 0
 542 341 561 292 561 237 c 0
 561 170 538 112 492 61 c 0
 445 10 382 -15 302 -15 c 0
 241 -15 188 2 142 36 c 0
 95 69 72 100 72 129 c 0
 72 138 75 147 82 154 c 0
 89 162 97 166 106 166 c 0
 116 166 127 161 140 152 c 0
 153 142 165 131 178 119 c 0
 190 107 207 96 229 86 c 0
 251 77 275 72 300 72 c 0
 348 72 388 88 418 118 c 0
 450 150 465 188 465 234 c 0
 465 281 449 319 416 348 c 0
 383 377 345 394 301 398 c 1
 279 376 261 361 246 353 c 0
 231 345 216 341 198 341 c 0
 182 341 168 346 159 356 c 0
 150 365 145 378 145 396 c 0
 145 412 154 429 172 446 c 0
 190 462 217 474 253 482 c 1
 298 532 351 593 410 665 c 1
 391 667 362 668 324 668 c 0
 287 668 250 667 214 664 c 0
 178 662 154 661 144 661 c 0
 132 661 122 665 110 674 c 0
 100 682 94 693 94 708 c 0
 94 723 100 734 110 742 c 0
 122 751 136 755 154 755 c 2
EndSplineSet
Validated: 1
EndChar

StartChar: four
Encoding: 52 52 22
Width: 648
Flags: W
LayerCount: 2
Fore
SplineSet
482 329 m 1
 533 332 l 2
 552 332 566 328 578 320 c 0
 588 311 594 300 594 287 c 0
 594 274 588 263 578 254 c 0
 566 246 552 242 533 242 c 2
 482 243 l 1
 488 50 l 2
 488 32 484 18 475 7 c 0
 466 -4 454 -9 438 -9 c 0
 423 -9 411 -4 402 7 c 0
 393 18 389 32 389 50 c 2
 393 243 l 1
 324 243 l 1
 96 242 l 2
 79 242 65 247 55 256 c 0
 45 265 40 277 40 292 c 0
 40 306 46 322 58 342 c 0
 71 360 97 395 137 446 c 2
 341 708 l 2
 368 743 396 760 425 760 c 0
 442 760 457 754 470 744 c 0
 482 732 488 715 488 690 c 0
 488 684 487 665 486 634 c 0
 483 539 482 437 482 329 c 1
157 327 m 1
 394 327 l 1
 394 358 394 413 392 492 c 0
 392 572 391 618 391 629 c 1
 316 540 238 440 157 327 c 1
EndSplineSet
Validated: 1
EndChar

StartChar: five
Encoding: 53 53 23
Width: 645
Flags: W
LayerCount: 2
Fore
SplineSet
325 750 m 1
 477 755 l 2
 495 755 510 751 520 742 c 0
 532 734 537 723 537 708 c 0
 537 693 532 682 520 674 c 0
 510 665 498 661 488 661 c 0
 476 661 453 662 416 665 c 0
 380 668 352 669 331 669 c 0
 310 669 285 668 256 667 c 0
 226 666 205 665 193 665 c 1
 196 640 198 605 198 560 c 2
 193 454 l 1
 238 483 286 498 337 498 c 0
 413 498 472 474 514 428 c 0
 556 380 577 321 577 250 c 0
 577 178 553 116 506 64 c 0
 459 11 395 -15 314 -15 c 0
 247 -15 191 4 146 42 c 0
 101 79 79 115 79 150 c 0
 79 162 83 172 92 182 c 0
 100 190 109 195 118 195 c 0
 128 195 136 193 142 190 c 0
 148 187 152 183 156 180 c 0
 158 176 163 170 168 162 c 0
 208 102 259 72 321 72 c 0
 367 72 405 90 436 126 c 0
 467 162 482 204 482 251 c 0
 482 298 468 338 442 368 c 0
 414 400 378 415 332 415 c 0
 289 415 241 396 188 359 c 0
 171 346 157 340 146 340 c 0
 113 340 96 357 96 390 c 0
 96 399 98 422 103 461 c 0
 108 500 110 532 110 560 c 0
 110 586 108 614 104 641 c 0
 100 668 98 688 98 699 c 0
 98 736 120 754 164 754 c 2
 325 750 l 1
EndSplineSet
Validated: 1
EndChar

StartChar: six
Encoding: 54 54 24
Width: 647
Flags: W
LayerCount: 2
Fore
SplineSet
517 414 m 0
 558 365 579 308 579 240 c 0
 579 174 557 114 514 63 c 0
 471 12 410 -14 331 -14 c 0
 252 -14 190 14 145 70 c 0
 100 127 77 198 77 285 c 0
 77 416 114 528 188 620 c 0
 262 714 355 760 466 760 c 0
 491 760 510 756 522 748 c 0
 536 740 542 730 542 717 c 0
 542 685 520 669 477 669 c 0
 404 669 341 644 286 596 c 0
 232 546 197 487 182 416 c 1
 228 463 285 487 353 487 c 0
 421 487 476 463 517 414 c 0
224 121 m 0
 250 89 286 73 330 73 c 0
 374 73 410 89 440 120 c 0
 468 151 483 190 483 236 c 0
 483 282 469 321 442 352 c 0
 414 384 378 400 335 400 c 0
 292 400 256 384 226 352 c 0
 198 321 183 282 183 237 c 0
 183 192 196 153 224 121 c 0
EndSplineSet
Validated: 1
EndChar

StartChar: seven
Encoding: 55 55 25
Width: 560
Flags: W
LayerCount: 2
Fore
SplineSet
273 750 m 1
 439 754 l 2
 493 754 520 734 520 695 c 0
 520 680 513 659 498 630 c 0
 484 601 463 560 434 507 c 0
 358 366 295 207 244 31 c 0
 236 4 220 -9 195 -9 c 0
 182 -9 171 -4 162 5 c 0
 153 14 149 28 149 47 c 0
 149 66 156 96 172 137 c 0
 186 178 209 233 238 302 c 0
 267 370 294 430 319 482 c 0
 344 533 363 573 377 601 c 0
 391 629 400 650 405 663 c 1
 370 666 333 668 292 668 c 0
 252 668 212 667 172 664 c 0
 133 662 107 661 96 661 c 0
 85 661 74 665 62 674 c 0
 52 682 46 693 46 708 c 0
 46 723 52 734 62 742 c 0
 74 751 88 755 106 755 c 2
 273 750 l 1
EndSplineSet
Validated: 1
EndChar

StartChar: eight
Encoding: 56 56 26
Width: 646
Flags: W
LayerCount: 2
Fore
SplineSet
572 204 m 0
 572 143 549 92 502 49 c 0
 455 6 396 -15 323 -15 c 0
 250 -15 191 6 144 49 c 0
 97 92 74 143 74 204 c 0
 74 293 128 364 237 419 c 1
 155 467 114 524 114 590 c 0
 114 638 134 679 174 714 c 0
 213 749 263 766 322 766 c 0
 382 766 432 749 472 714 c 0
 512 679 532 638 532 590 c 0
 532 526 493 469 416 419 c 1
 520 364 572 292 572 204 c 0
476 204 m 0
 476 271 425 326 323 371 c 1
 221 326 170 271 170 204 c 0
 170 165 185 133 214 108 c 0
 243 84 280 72 323 72 c 0
 366 72 403 84 432 108 c 0
 461 133 476 165 476 204 c 0
439 590 m 0
 439 615 427 636 404 653 c 0
 380 670 353 679 324 679 c 0
 294 679 267 670 243 653 c 0
 219 636 207 615 207 590 c 0
 207 566 217 544 238 525 c 0
 259 506 288 485 325 464 c 1
 361 484 389 504 409 524 c 0
 429 543 439 565 439 590 c 0
EndSplineSet
Validated: 1
EndChar

StartChar: nine
Encoding: 57 57 27
Width: 645
Flags: W
LayerCount: 2
Fore
SplineSet
128 341 m 0
 87 392 66 450 66 516 c 0
 66 583 89 641 134 690 c 0
 179 740 240 765 317 765 c 0
 394 765 455 737 500 681 c 0
 545 625 568 553 568 466 c 0
 568 331 531 217 458 124 c 0
 384 32 291 -14 179 -14 c 0
 155 -14 136 -10 124 -1 c 0
 110 8 104 18 104 32 c 0
 104 44 109 56 120 66 c 0
 131 75 147 80 170 80 c 0
 243 80 306 104 360 154 c 0
 413 202 448 264 464 337 c 1
 416 289 358 265 291 265 c 0
 224 265 169 290 128 341 c 0
205 631 m 0
 176 600 162 561 162 515 c 0
 162 469 175 430 202 399 c 0
 228 368 264 352 309 352 c 0
 354 352 392 369 421 404 c 0
 450 438 465 477 465 521 c 0
 465 565 450 602 422 632 c 0
 392 663 356 678 313 678 c 0
 270 678 234 662 205 631 c 0
EndSplineSet
Validated: 1
EndChar

StartChar: colon
Encoding: 58 58 28
Width: 273
Flags: W
LayerCount: 2
Fore
SplineSet
178 487 m 0
 188 476 192 461 192 444 c 0
 192 427 186 411 175 396 c 0
 164 382 150 375 134 375 c 0
 117 375 104 381 95 393 c 0
 86 405 81 420 81 437 c 0
 81 454 86 470 98 484 c 0
 108 497 122 504 140 504 c 0
 156 504 170 498 178 487 c 0
178 102 m 0
 188 91 192 76 192 58 c 0
 192 41 186 25 175 11 c 0
 164 -3 150 -10 134 -10 c 0
 117 -10 104 -4 95 8 c 0
 86 20 81 35 81 52 c 0
 81 69 86 85 98 98 c 0
 108 112 122 119 140 119 c 0
 156 119 170 113 178 102 c 0
EndSplineSet
Validated: 1
EndChar

StartChar: semicolon
Encoding: 59 59 29
Width: 283
Flags: W
LayerCount: 2
Fore
SplineSet
184 487 m 0
 192 476 197 461 197 444 c 0
 197 427 191 411 180 396 c 0
 169 382 155 375 138 375 c 0
 122 375 109 381 100 393 c 0
 91 405 86 420 86 437 c 0
 86 454 92 470 102 484 c 0
 114 497 128 504 144 504 c 0
 162 504 174 498 184 487 c 0
196 36 m 0
 196 0 184 -40 160 -83 c 0
 136 -126 114 -148 93 -148 c 0
 72 -148 62 -139 62 -122 c 0
 62 -113 67 -100 78 -82 c 0
 88 -66 93 -50 93 -38 c 0
 93 -24 92 -12 89 0 c 0
 86 12 85 26 85 40 c 0
 85 56 90 70 101 84 c 0
 112 97 126 104 142 104 c 0
 160 104 173 98 182 86 c 0
 191 73 196 57 196 36 c 0
EndSplineSet
Validated: 1
EndChar

StartChar: less
Encoding: 60 60 30
Width: 620
Flags: W
LayerCount: 2
Fore
SplineSet
85 376 m 0
 85 388 88 399 94 408 c 0
 99 417 110 426 125 436 c 0
 140 444 154 452 166 457 c 0
 178 462 198 470 228 482 c 0
 256 492 280 502 298 509 c 0
 315 516 337 525 362 536 c 0
 387 547 406 555 420 560 c 0
 432 566 447 572 462 578 c 0
 490 588 510 593 522 593 c 0
 535 593 545 590 553 582 c 0
 561 576 565 567 565 556 c 0
 565 538 554 524 531 514 c 0
 506 504 475 492 436 478 c 0
 397 463 370 453 354 446 c 0
 253 406 202 383 202 376 c 0
 202 371 240 353 316 322 c 2
 353 306 l 2
 369 299 396 289 435 274 c 0
 474 260 505 248 530 238 c 0
 553 228 564 214 564 196 c 0
 564 185 560 176 552 170 c 0
 544 162 536 159 526 159 c 0
 518 159 508 160 498 162 c 0
 489 165 476 169 461 174 c 0
 446 180 431 186 418 192 c 0
 345 223 288 247 246 263 c 0
 204 279 177 290 166 295 c 0
 154 300 140 308 125 316 c 0
 110 326 99 335 94 344 c 0
 88 353 85 364 85 376 c 0
EndSplineSet
Validated: 1
EndChar

StartChar: equal
Encoding: 61 61 31
Width: 662
Flags: W
LayerCount: 2
Fore
SplineSet
520 409 m 2
 520 409 326 412 326 412 c 1
 326 412 142 409 142 409 c 2
 127 409 116 413 106 421 c 0
 98 429 93 439 93 451 c 0
 93 463 98 473 106 481 c 0
 116 489 127 493 142 493 c 2
 142 493 326 490 326 490 c 1
 326 490 520 493 520 493 c 2
 535 493 546 489 556 481 c 0
 564 473 569 463 569 451 c 0
 569 439 564 429 556 421 c 0
 546 413 535 409 520 409 c 2
520 255 m 2
 520 255 326 258 326 258 c 1
 326 258 142 255 142 255 c 2
 127 255 116 259 106 267 c 0
 98 275 93 285 93 297 c 0
 93 309 98 319 106 327 c 0
 116 335 127 339 142 339 c 2
 142 339 326 336 326 336 c 1
 326 336 520 339 520 339 c 2
 535 339 546 335 556 327 c 0
 564 319 569 309 569 297 c 0
 569 285 564 275 556 267 c 0
 546 259 535 255 520 255 c 2
EndSplineSet
Validated: 1
EndChar

StartChar: greater
Encoding: 62 62 32
Width: 620
Flags: W
LayerCount: 2
Fore
SplineSet
535 376 m 0
 535 364 532 353 526 344 c 0
 521 335 510 326 495 316 c 0
 480 308 466 300 454 295 c 0
 443 290 422 282 394 270 c 0
 364 260 341 250 324 243 c 0
 306 236 284 227 259 216 c 0
 234 205 214 197 202 192 c 0
 188 186 174 180 159 174 c 0
 131 164 111 159 98 159 c 0
 86 159 76 162 68 170 c 0
 60 176 56 185 56 196 c 0
 56 214 67 228 90 238 c 0
 115 248 146 260 185 274 c 0
 224 289 251 299 267 306 c 0
 368 346 418 369 418 376 c 0
 418 381 380 399 304 430 c 2
 266 446 l 2
 250 453 223 463 184 478 c 0
 145 492 114 504 89 514 c 0
 66 524 55 538 55 556 c 0
 55 567 59 576 67 582 c 0
 75 590 84 593 92 593 c 0
 102 593 111 592 120 590 c 0
 130 587 143 583 158 578 c 0
 173 572 187 566 200 560 c 0
 273 529 331 505 373 489 c 0
 415 473 442 462 454 457 c 0
 466 452 480 444 495 436 c 0
 510 426 521 417 526 408 c 0
 532 399 535 388 535 376 c 0
EndSplineSet
Validated: 1
EndChar

StartChar: question
Encoding: 63 63 33
Width: 521
Flags: W
LayerCount: 2
Fore
SplineSet
456 580 m 0
 456 555 450 530 440 506 c 0
 428 482 418 464 408 452 c 0
 397 439 381 422 360 400 c 0
 340 383 325 370 314 360 c 0
 304 351 294 338 284 322 c 0
 275 306 270 290 270 274 c 0
 270 230 255 208 225 208 c 0
 212 208 201 214 192 226 c 0
 183 237 179 253 179 272 c 0
 179 291 182 309 187 325 c 0
 192 341 201 357 214 372 c 0
 231 393 256 417 288 446 c 0
 304 464 316 478 324 488 c 0
 332 498 340 512 348 529 c 0
 356 546 360 563 360 580 c 0
 360 609 349 632 328 650 c 0
 306 669 281 678 254 678 c 0
 213 678 178 663 149 634 c 0
 133 615 118 606 106 606 c 0
 92 606 82 610 75 618 c 0
 68 627 64 637 64 648 c 0
 64 673 83 699 122 726 c 0
 160 753 202 766 249 766 c 0
 310 766 360 748 398 712 c 0
 437 677 456 633 456 580 c 0
264 95 m 0
 273 84 277 70 277 52 c 0
 277 36 271 20 260 6 c 0
 249 -8 235 -15 219 -15 c 0
 203 -15 190 -9 182 4 c 0
 172 16 168 30 168 47 c 0
 168 64 174 79 184 92 c 0
 196 105 209 112 226 112 c 0
 243 112 255 106 264 95 c 0
EndSplineSet
Validated: 1
EndChar

StartChar: at
Encoding: 64 64 34
Width: 938
Flags: W
LayerCount: 2
Fore
SplineSet
864 369 m 0
 864 300 847 243 814 196 c 0
 780 150 739 127 692 127 c 0
 633 127 594 155 575 210 c 1
 537 155 488 127 429 127 c 0
 400 127 373 134 350 148 c 0
 327 162 309 180 296 202 c 0
 270 245 257 292 257 342 c 0
 257 405 276 460 316 506 c 0
 354 553 404 576 465 576 c 0
 498 576 531 564 564 540 c 1
 573 564 589 576 610 576 c 0
 646 576 664 549 664 496 c 0
 664 489 661 464 654 421 c 0
 647 378 644 342 644 313 c 0
 644 244 660 209 691 209 c 0
 712 209 732 222 748 248 c 0
 766 273 774 314 774 371 c 0
 774 471 744 547 686 600 c 0
 626 652 554 678 468 678 c 0
 382 678 309 646 249 581 c 0
 189 516 159 436 159 338 c 0
 159 242 185 165 236 110 c 0
 287 54 349 26 421 26 c 0
 456 26 493 34 531 48 c 0
 569 64 589 71 592 71 c 0
 603 71 611 68 618 62 c 0
 625 55 628 47 628 37 c 0
 628 19 608 -1 566 -22 c 0
 526 -44 476 -55 417 -55 c 0
 318 -55 234 -18 166 54 c 0
 98 128 64 222 64 338 c 0
 64 455 103 555 180 639 c 0
 257 723 353 765 468 765 c 0
 582 765 676 729 752 658 c 0
 826 587 864 490 864 369 c 0
561 334 m 1
 561 453 l 1
 528 477 496 489 466 489 c 0
 434 489 408 475 386 448 c 0
 363 420 352 387 352 348 c 0
 352 310 359 278 372 252 c 0
 385 226 406 213 432 213 c 0
 460 213 484 225 506 248 c 0
 527 271 546 300 561 334 c 1
EndSplineSet
Validated: 1
EndChar

StartChar: A
Encoding: 65 65 35
Width: 692
Flags: W
LayerCount: 2
Fore
SplineSet
476 241 m 1
 347 244 l 2
 283 244 236 243 207 242 c 1
 200 220 189 186 176 138 c 0
 162 92 151 55 142 29 c 0
 133 3 118 -10 96 -10 c 0
 83 -10 73 -6 66 2 c 0
 58 10 54 19 54 28 c 0
 54 38 54 46 56 52 c 0
 56 58 59 67 62 79 c 0
 66 91 70 102 74 113 c 0
 93 170 107 212 116 239 c 1
 97 239 82 243 70 252 c 0
 60 260 54 271 54 285 c 0
 54 316 79 332 128 332 c 2
 146 332 l 1
 210 511 247 613 256 638 c 0
 266 664 272 679 273 683 c 0
 274 687 276 693 280 700 c 0
 282 708 285 714 288 718 c 0
 290 721 293 726 296 731 c 0
 299 736 302 740 306 744 c 0
 308 746 312 749 316 752 c 0
 325 757 334 760 344 760 c 0
 353 760 361 759 367 757 c 0
 373 755 379 751 384 746 c 0
 389 741 394 735 398 729 c 0
 401 723 406 714 410 701 c 0
 416 688 420 677 424 666 c 0
 456 568 496 457 544 332 c 1
 580 333 l 2
 597 333 612 328 622 319 c 0
 634 310 639 298 639 284 c 0
 639 255 617 239 573 237 c 1
 580 216 589 189 600 156 c 0
 626 85 639 44 639 34 c 0
 639 22 635 12 628 4 c 0
 620 -6 609 -10 596 -10 c 0
 572 -10 555 3 544 29 c 0
 533 62 510 132 476 241 c 1
232 328 m 1
 275 327 316 326 356 326 c 0
 395 326 427 327 451 328 c 1
 381 529 345 630 344 630 c 0
 340 630 311 555 258 404 c 2
 232 328 l 1
EndSplineSet
Validated: 1
EndChar

StartChar: B
Encoding: 66 66 36
Width: 651
Flags: HW
LayerCount: 2
Fore
SplineSet
572 55 m 1
 572 88 l 1
 147.299804688 89.3203125 l 5
 194.219726562 119.48046875 226.879882812 141.3203125 245.280273438 152.759765625 c 4
 253.099609375 156.919921875 256.780273438 162.120117188 256.780273438 167.3203125 c 4
 256.780273438 172.51953125 254.48046875 177.719726562 250.33984375 180.83984375 c 4
 245.280273438 185 241.139648438 186.040039062 237 185 c 4
 232.400390625 183.959960938 228.259765625 183.959960938 224.580078125 183.959960938 c 4
 223.200195312 183.959960938 219.059570312 181.879882812 212.16015625 177.719726562 c 4
 206.639648438 174.599609375 202.040039062 171.48046875 197.900390625 168.360351562 c 4
 180.419921875 154.83984375 167.540039062 145.48046875 159.259765625 140.280273438 c 4
 150.98046875 134.040039062 139.940429688 125.719726562 126.139648438 116.360351562 c 4
 111.879882812 107 99.4599609375 98.6796875 88.8798828125 90.3603515625 c 4
 80.599609375 85.16015625 76.919921875 78.919921875 76.919921875 71.6396484375 c 4
 76.4599609375 64.3603515625 80.599609375 59.16015625 88.8798828125 53.9599609375 c 4
 99.919921875 46.6796875 112.33984375 37.3203125 126.139648438 26.919921875 c 4
 139.48046875 17.5595703125 149.139648438 10.2802734375 154.66015625 7.16015625 c 4
 160.1796875 4.0400390625 167.540039062 -1.16015625 177.200195312 -8.4404296875 c 4
 186.860351562 -15.7197265625 193.759765625 -20.919921875 197.900390625 -24.0400390625 c 4
 202.040039062 -27.16015625 206.639648438 -30.2802734375 212.16015625 -33.400390625 c 4
 219.98046875 -38.599609375 227.33984375 -41.7197265625 234.240234375 -41.7197265625 c 4
 241.139648438 -41.7197265625 246.200195312 -39.6396484375 250.33984375 -36.51953125 c 4
 254.48046875 -33.400390625 256.780273438 -28.2001953125 256.780273438 -23 c 4
 256.780273438 -17.7998046875 253.099609375 -13.6396484375 245.280273438 -8.4404296875 c 4
 196.51953125 22.759765625 163.860351562 43.5595703125 147.299804688 55 c 5
 572 55 l 1
306 310 m 0
 263 310 228 316 199 327 c 1
 197 352 196 382 196 417 c 0
 196 452 197 481 198 504 c 1
 238 511 282 515 329 515 c 0
 376 515 417 504 452 481 c 0
 487 458 504 435 504 412 c 0
 504 389 487 367 452 344 c 0
 417 321 368 310 306 310 c 0
102 704 m 2
 110 498 l 2
 110 398 108 348 104 348 c 0
 90 347 79 343 72 337 c 0
 65 330 62 322 62 313 c 0
 62 303 71 293 90 283 c 0
 109 274 132 266 159 261 c 0
 213 250 260 245 300 245 c 0
 397 245 471 263 521 299 c 0
 572 335 597 373 597 412 c 0
 597 451 572 489 521 525 c 0
 471 562 406 580 325 580 c 0
 265 580 222 577 196 571 c 1
 201 704 l 2
 202 717 197 728 188 736 c 0
 179 744 167 748 152 748 c 0
 138 748 126 744 116 736 c 0
 107 727 102 717 102 704 c 2
EndSplineSet
EndChar

StartChar: C
Encoding: 67 67 37
Width: 708
Flags: W
LayerCount: 2
Fore
SplineSet
658 228 m 0
 658 208 633 187 583 164 c 0
 532 141 473 129 405 129 c 0
 308 129 227 160 163 222 c 0
 99 284 67 360 67 449 c 0
 67 537 99 613 164 674 c 0
 228 736 309 767 407 767 c 0
 466 767 519 758 566 740 c 0
 613 722 637 701 637 679 c 0
 637 668 633 660 625 653 c 0
 617 646 606 643 592 643 c 0
 578 643 560 649 537 662 c 0
 493 684 450 696 407 696 c 0
 336 696 278 671 233 622 c 0
 187 574 164 516 164 449 c 0
 164 382 187 324 233 274 c 0
 278 225 334 200 401 200 c 0
 467 200 527 213 582 240 c 0
 604 250 620 255 627 255 c 0
 635 255 642 252 649 247 c 0
 655 242 658 236 658 228 c 0
160 65 m 2
 160 65 350 62 350 62 c 1
 350 62 590 65 590 65 c 2
 604 65 616 61 625 53 c 0
 634 45 638 35 638 23 c 0
 638 11 634 1 625 -7 c 0
 615 -15 604 -19 590 -19 c 2
 590 -19 350 -16 350 -16 c 1
 350 -16 160 -19 160 -19 c 2
 145 -19 133 -15 124 -7 c 0
 115 1 110 11 110 23 c 0
 110 35 115 45 124 53 c 0
 134 61 145 65 160 65 c 2
EndSplineSet
Validated: 1
EndChar

StartChar: D
Encoding: 68 68 38
Width: 759
Flags: W
LayerCount: 2
Fore
SplineSet
128 376 m 1
 123 636 l 1
 94 639 79 652 79 678 c 0
 79 702 105 723 158 740 c 0
 211 756 265 764 322 764 c 0
 378 764 430 753 479 731 c 0
 528 709 567 679 596 642 c 0
 657 566 687 476 687 372 c 0
 687 271 658 183 600 108 c 0
 571 71 533 41 486 18 c 0
 439 -4 382 -15 317 -15 c 0
 252 -15 195 -7 147 10 c 0
 99 27 75 48 75 74 c 0
 75 99 92 111 125 111 c 1
 128 376 l 1
520 590 m 0
 472 648 403 678 313 678 c 0
 275 678 245 672 222 661 c 1
 220 620 219 530 219 390 c 0
 219 252 221 150 224 85 c 1
 248 76 282 72 325 72 c 0
 368 72 408 81 442 98 c 0
 478 115 505 139 526 168 c 0
 569 228 591 298 591 380 c 0
 591 460 567 530 520 590 c 0
EndSplineSet
Validated: 1
EndChar

StartChar: E
Encoding: 69 69 39
Width: 639
Flags: W
LayerCount: 2
Fore
SplineSet
462 233 m 0
 468 227 471 220 471 210 c 0
 471 201 467 193 459 185 c 0
 452 178 442 174 431 174 c 0
 420 174 411 178 405 184 c 0
 399 190 396 198 396 207 c 0
 396 216 399 224 407 231 c 0
 414 239 424 242 435 242 c 0
 447 242 455 239 462 233 c 0
540 468 m 0
 540 454 538 441 533 428 c 0
 528 415 523 405 518 398 c 0
 514 392 507 382 497 370 c 0
 488 361 481 354 476 349 c 0
 472 344 467 337 463 328 c 0
 459 320 456 311 456 302 c 0
 456 279 450 267 436 267 c 0
 430 267 425 270 421 276 c 0
 417 282 416 291 416 301 c 0
 416 312 417 321 419 330 c 0
 421 339 426 347 431 355 c 0
 439 366 450 380 465 395 c 0
 472 405 477 412 481 418 c 0
 484 423 488 431 492 440 c 0
 495 449 497 459 497 468 c 0
 497 483 492 496 482 506 c 0
 473 516 462 520 449 520 c 0
 431 520 415 513 402 497 c 0
 395 487 388 482 382 482 c 0
 377 482 372 484 369 488 c 0
 365 493 364 498 364 504 c 0
 364 518 372 532 390 546 c 0
 407 561 426 568 447 568 c 0
 475 568 497 558 514 539 c 0
 532 520 540 496 540 468 c 0
514 662 m 2
 355 668 l 2
 320 669 274 668 218 663 c 1
 218 441 l 1
 260 440 282 439 284 440 c 2
 301 445 l 2
 315 449 329 445 344 432 c 0
 355 424 360 413 360 399 c 0
 360 360 340 346 301 355 c 2
 284 359 l 2
 281 360 259 359 218 358 c 1
 218 279 l 2
 218 182 219 118 222 87 c 1
 278 82 323 81 358 82 c 2
 517 88 l 2
 535 88 550 84 560 76 c 0
 572 67 577 56 577 41 c 0
 577 26 572 15 560 6 c 0
 549 -2 534 -7 517 -6 c 2
 358 0 l 1
 177 -5 l 2
 141 -6 123 10 123 41 c 0
 123 64 124 102 126 156 c 0
 127 208 128 275 128 355 c 1
 83 355 61 370 61 399 c 0
 61 414 67 426 80 434 c 0
 93 441 109 445 128 445 c 1
 127 570 124 645 121 670 c 1
 113 683 109 696 109 710 c 0
 109 741 130 756 171 755 c 2
 355 750 l 1
 514 756 l 2
 531 757 546 752 558 744 c 0
 568 735 574 724 574 709 c 0
 574 694 568 683 558 674 c 0
 546 666 531 661 514 662 c 2
EndSplineSet
Validated: 33
EndChar

StartChar: F
Encoding: 70 70 40
Width: 616
Flags: W
LayerCount: 2
Fore
SplineSet
284 440 m 2
 454 445 l 2
 472 445 486 441 497 432 c 0
 508 424 513 413 513 399 c 0
 513 370 493 355 454 355 c 2
 284 359 l 2
 255 359 232 359 217 358 c 1
 217 271 218 201 220 148 c 0
 222 95 223 66 223 61 c 0
 223 14 206 -10 172 -10 c 0
 138 -10 121 14 121 61 c 0
 121 66 121 82 122 108 c 0
 125 186 127 268 127 355 c 1
 82 355 60 370 60 399 c 0
 60 414 66 426 79 434 c 0
 92 441 108 445 127 445 c 1
 126 570 123 645 120 670 c 1
 112 683 108 696 108 710 c 0
 108 740 129 755 170 755 c 2
 355 750 l 1
 515 756 l 2
 533 756 548 752 558 744 c 0
 570 735 575 724 575 709 c 0
 575 694 570 683 558 674 c 0
 548 666 533 662 515 662 c 2
 355 668 l 2
 303 668 257 666 217 663 c 1
 217 441 l 1
 230 440 252 440 284 440 c 2
EndSplineSet
Validated: 1
EndChar

StartChar: G
Encoding: 71 71 41
Width: 772
Flags: W
LayerCount: 2
Fore
SplineSet
561 456 m 0
 561 450 560 444 556 439 c 0
 553 434 546 429 537 424 c 0
 527 419 519 415 512 412 c 0
 504 409 492 405 474 399 c 0
 456 393 441 388 430 384 c 0
 419 380 406 375 390 370 c 0
 375 364 363 359 355 356 c 0
 347 353 338 350 328 347 c 0
 311 342 298 339 291 339 c 0
 283 339 277 341 272 344 c 0
 267 348 264 353 264 359 c 0
 264 369 271 376 286 381 c 0
 301 387 320 393 344 401 c 0
 368 409 385 415 395 418 c 0
 458 440 489 452 489 456 c 0
 489 459 465 469 418 486 c 2
 395 494 l 2
 385 497 368 503 344 511 c 0
 320 519 300 525 285 530 c 0
 271 536 264 543 264 553 c 0
 264 559 266 564 271 567 c 0
 276 571 282 573 287 573 c 0
 293 573 298 573 304 571 c 0
 310 570 318 568 328 565 c 0
 337 562 346 559 354 556 c 0
 399 539 435 526 461 517 c 0
 487 508 504 503 511 500 c 0
 519 497 527 493 537 488 c 0
 546 483 553 478 556 473 c 0
 560 468 561 462 561 456 c 0
531 256 m 2
 531 256 413 257 413 257 c 1
 413 257 295 256 295 256 c 2
 286 256 279 258 273 262 c 0
 268 266 265 272 265 278 c 0
 265 285 268 290 273 295 c 0
 279 299 286 301 295 301 c 2
 295 301 413 299 413 299 c 1
 413 299 531 301 531 301 c 2
 540 301 547 299 553 295 c 0
 559 290 561 285 561 278 c 0
 561 272 559 266 553 262 c 0
 547 258 540 256 531 256 c 2
712 353 m 1
 712 240 684 150 626 84 c 0
 570 18 494 -15 402 -15 c 0
 308 -15 230 23 167 99 c 0
 104 175 72 267 72 376 c 0
 72 485 105 577 170 652 c 0
 235 727 318 765 418 765 c 0
 480 765 536 753 588 728 c 1
 558 634 l 1
 517 663 471 678 418 678 c 0
 346 678 286 648 239 589 c 0
 192 530 168 459 168 378 c 0
 168 296 191 224 236 164 c 0
 281 102 338 72 407 72 c 0
 464 72 511 93 549 135 c 0
 587 177 607 237 610 314 c 1
 712 353 l 1
EndSplineSet
Validated: 1
EndChar

StartChar: H
Encoding: 72 72 42
Width: 768
Flags: W
LayerCount: 2
Fore
SplineSet
553 353 m 1
 381 355 l 2
 304 355 248 355 213 354 c 1
 213 301 214 240 216 170 c 0
 218 101 219 64 219 61 c 0
 219 14 202 -10 168 -10 c 0
 134 -10 117 14 117 61 c 0
 117 64 118 100 120 169 c 0
 122 238 123 298 123 351 c 1
 80 351 59 366 59 396 c 0
 59 410 64 421 76 430 c 0
 86 438 102 442 123 442 c 1
 123 495 122 548 120 602 c 0
 118 657 117 686 117 689 c 0
 117 736 134 760 168 760 c 0
 202 760 219 736 219 689 c 0
 219 686 218 656 216 601 c 0
 214 546 213 492 213 439 c 1
 278 438 343 437 408 437 c 0
 473 437 521 438 553 439 c 1
 553 492 552 546 550 601 c 0
 549 656 548 686 548 689 c 0
 548 736 565 760 599 760 c 0
 633 760 650 736 650 689 c 0
 650 686 649 657 647 603 c 0
 645 549 644 496 644 443 c 1
 664 443 680 439 692 430 c 0
 703 421 709 410 709 396 c 0
 709 382 703 371 692 362 c 0
 680 354 664 350 644 350 c 1
 644 297 645 237 647 168 c 0
 649 100 650 64 650 61 c 0
 650 14 633 -10 599 -10 c 0
 565 -10 548 14 548 61 c 2
 553 353 l 1
EndSplineSet
Validated: 1
EndChar

StartChar: I
Encoding: 73 73 43
Width: 604
Flags: W
LayerCount: 2
Fore
SplineSet
403 661 m 2
 403 661 304 664 304 664 c 1
 304 664 205 661 205 661 c 2
 190 661 178 665 170 673 c 0
 160 681 156 691 156 703 c 0
 156 715 160 725 170 733 c 0
 178 741 190 745 205 745 c 2
 304 742 l 1
 403 745 l 2
 418 745 430 741 438 733 c 0
 448 725 452 715 452 703 c 0
 452 691 448 681 438 673 c 0
 430 665 418 661 403 661 c 2
351 589 m 2
 346 373 l 1
 326 122 l 1
 341 154 372 214 419 302 c 0
 426 316 434 323 442 323 c 0
 449 323 456 319 461 312 c 0
 466 304 468 296 468 287 c 0
 468 278 467 271 466 264 c 0
 465 258 462 250 457 241 c 0
 452 232 448 223 443 215 c 0
 424 182 410 159 401 144 c 0
 392 129 381 109 367 83 c 0
 353 57 340 34 328 14 c 0
 319 0 310 -7 301 -7 c 0
 291 -7 282 0 274 14 c 0
 263 35 250 58 235 83 c 0
 220 108 211 126 206 136 c 0
 201 145 193 159 182 177 c 0
 172 194 164 207 159 215 c 0
 154 223 150 232 145 241 c 0
 138 256 134 270 134 282 c 0
 134 294 136 304 142 312 c 0
 146 319 153 323 160 323 c 0
 168 323 176 316 183 302 c 0
 228 213 259 153 276 122 c 1
 265 373 l 1
 260 589 l 2
 259 606 264 621 272 632 c 0
 281 643 292 649 305 649 c 0
 322 649 333 643 338 632 c 0
 347 607 351 593 351 589 c 2
EndSplineSet
Validated: 33
EndChar

StartChar: J
Encoding: 74 74 44
Width: 593
Flags: W
LayerCount: 2
Fore
SplineSet
328 750 m 1
 477 756 l 2
 495 756 510 752 520 744 c 0
 532 735 537 724 537 710 c 0
 537 695 531 684 518 675 c 0
 505 666 489 662 469 662 c 1
 468 621 468 486 468 257 c 0
 468 208 461 166 448 129 c 0
 434 92 416 64 393 44 c 0
 348 5 298 -15 240 -15 c 0
 184 -15 137 -4 100 20 c 0
 64 42 46 65 46 87 c 0
 46 100 50 110 57 118 c 0
 64 125 74 129 86 129 c 0
 98 129 110 124 122 115 c 0
 134 106 149 96 168 86 c 0
 187 77 210 72 237 72 c 0
 276 72 309 88 336 122 c 0
 364 154 378 207 378 278 c 2
 375 667 l 1
 333 667 295 666 261 664 c 0
 227 662 204 661 191 661 c 0
 178 661 166 665 156 674 c 0
 144 682 139 693 139 708 c 0
 139 723 144 734 156 742 c 0
 166 751 181 755 199 755 c 2
 328 750 l 1
EndSplineSet
Validated: 1
EndChar

StartChar: K
Encoding: 75 75 45
Width: 604
Flags: W
LayerCount: 2
Fore
SplineSet
554 311 m 1
 343 237 l 1
 558 83 l 1
 556 0 l 1
 343 141 l 1
 344 50 l 2
 344 33 340 19 331 7 c 0
 322 -4 311 -10 298 -10 c 0
 282 -10 271 -4 266 7 c 0
 257 26 253 40 253 50 c 2
 258 377 l 1
 258 629 l 1
 233 597 182 536 105 447 c 0
 93 433 81 426 68 426 c 0
 55 426 45 430 37 438 c 0
 29 445 25 454 25 462 c 0
 25 472 26 479 28 486 c 0
 31 492 36 500 44 509 c 0
 51 518 59 527 66 535 c 0
 97 568 120 592 134 607 c 0
 149 622 168 642 190 668 c 0
 214 695 235 718 254 738 c 0
 269 753 284 760 298 760 c 0
 315 760 330 753 343 738 c 0
 362 717 383 694 406 668 c 0
 430 643 446 625 455 616 c 0
 464 606 476 592 494 574 c 0
 510 556 523 543 530 535 c 0
 538 527 546 518 554 509 c 0
 566 494 572 480 572 468 c 0
 572 455 568 445 560 438 c 0
 552 430 542 426 529 426 c 0
 516 426 504 433 492 447 c 0
 417 538 366 598 339 629 c 1
 343 308 l 1
 550 387 l 1
 554 311 l 1
EndSplineSet
Validated: 1
EndChar

StartChar: L
Encoding: 76 76 46
Width: 583
Flags: W
LayerCount: 2
Fore
SplineSet
336 310 m 1
 252 313 l 1
 256 254 253 210 242 180 c 0
 231 149 217 118 200 86 c 1
 223 83 252 82 287 82 c 0
 322 82 357 83 394 86 c 0
 431 88 455 89 466 89 c 0
 477 89 488 85 500 76 c 0
 510 68 516 57 516 42 c 0
 516 27 511 16 500 8 c 0
 488 -1 473 -6 456 -5 c 2
 456 -5 301 0 301 0 c 1
 301 0 147 -5 147 -5 c 2
 129 -6 114 -1 102 10 c 0
 91 20 86 34 86 53 c 0
 86 72 92 91 104 112 c 0
 117 133 129 156 142 182 c 0
 155 208 161 233 162 258 c 0
 162 282 162 300 161 311 c 1
 156 310 145 310 130 310 c 0
 93 310 75 324 75 350 c 0
 75 378 93 391 128 391 c 0
 131 391 134 391 139 390 c 0
 144 390 147 390 149 390 c 1
 147 401 143 416 138 437 c 0
 127 482 122 518 122 544 c 0
 122 624 140 680 174 712 c 0
 210 745 258 761 319 761 c 1
 312 666 l 1
 283 666 260 658 244 643 c 0
 226 628 218 601 218 564 c 0
 218 527 226 468 241 388 c 1
 336 391 l 1
 356 380 l 2
 365 373 370 363 370 351 c 0
 370 336 365 326 356 322 c 2
 336 310 l 1
EndSplineSet
Validated: 33
EndChar

StartChar: M
Encoding: 77 77 47
Width: 673
Flags: W
LayerCount: 2
Fore
SplineSet
397 710 m 0
 386 743 366 760 336 760 c 0
 308 760 287 743 276 710 c 0
 179 437 127 290 120 270 c 0
 114 251 103 220 88 177 c 0
 72 134 60 102 52 80 c 0
 44 59 40 43 40 34 c 0
 40 25 44 15 52 5 c 0
 61 -5 72 -10 87 -10 c 0
 112 -10 130 5 140 35 c 0
 267 423 332 617 337 617 c 0
 344 617 411 423 538 35 c 0
 548 5 564 -10 586 -10 c 0
 601 -10 612 -5 620 5 c 0
 629 15 633 25 633 34 c 0
 633 43 629 59 621 80 c 0
 583 183 560 246 554 268 c 0
 546 289 494 437 397 710 c 0
EndSplineSet
Validated: 9
EndChar

StartChar: N
Encoding: 78 78 48
Width: 805
Flags: W
LayerCount: 2
Fore
SplineSet
484 986 m 0
 504 966 514 942 514 914 c 0
 514 885 504 862 486 843 c 0
 466 824 442 815 411 815 c 0
 380 815 356 824 336 843 c 0
 318 862 308 885 308 914 c 0
 308 943 318 967 338 986 c 0
 357 1006 382 1016 411 1016 c 0
 440 1016 465 1006 484 986 c 0
449 914 m 0
 449 924 445 933 437 942 c 0
 429 951 420 955 410 955 c 0
 401 955 392 951 384 942 c 0
 377 934 373 925 373 914 c 0
 373 904 377 895 384 887 c 0
 391 879 400 875 410 875 c 0
 421 875 430 879 438 887 c 0
 445 895 449 904 449 914 c 0
670 497 m 2
 663 215 l 2
 663 190 663 171 664 158 c 0
 665 145 667 132 672 118 c 0
 677 104 684 95 693 91 c 0
 698 88 705 86 712 86 c 0
 719 84 725 83 728 81 c 0
 731 79 733 75 733 70 c 0
 733 47 726 27 711 12 c 0
 696 -4 679 -12 659 -12 c 0
 624 -12 600 1 588 28 c 0
 574 55 568 94 568 147 c 2
 574 431 l 2
 574 504 561 562 536 606 c 0
 511 649 474 671 426 671 c 0
 377 671 330 642 285 584 c 0
 240 525 208 459 191 385 c 1
 195 57 l 2
 195 11 178 -12 144 -12 c 0
 103 -12 82 23 82 92 c 0
 82 162 91 260 109 385 c 1
 109 428 105 487 98 562 c 0
 90 636 86 681 86 698 c 0
 86 715 91 729 100 742 c 0
 109 754 122 760 138 760 c 0
 155 760 168 754 177 742 c 0
 186 729 191 715 191 700 c 0
 191 685 191 666 190 644 c 0
 190 623 190 604 190 589 c 1
 255 703 338 760 438 760 c 0
 512 760 569 734 610 684 c 0
 650 632 670 570 670 497 c 2
EndSplineSet
Validated: 1
EndChar

StartChar: O
Encoding: 79 79 49
Width: 824
Flags: W
LayerCount: 2
Fore
SplineSet
472 376 m 0
 472 399 467 419 456 434 c 0
 446 449 432 457 413 457 c 0
 394 457 380 449 369 434 c 0
 358 419 353 400 353 376 c 0
 353 354 358 334 369 319 c 0
 380 304 394 296 413 296 c 0
 432 296 446 304 456 318 c 0
 467 334 472 353 472 376 c 0
586 164 m 0
 633 225 656 296 656 377 c 0
 656 458 633 528 587 588 c 0
 541 649 483 679 412 679 c 0
 342 679 284 649 238 588 c 0
 191 528 168 458 168 378 c 0
 168 297 191 226 238 164 c 0
 285 103 343 72 412 72 c 0
 482 72 540 103 586 164 c 0
752 376 m 0
 752 267 720 175 654 99 c 0
 590 23 508 -15 412 -15 c 0
 314 -15 234 23 169 99 c 0
 104 175 72 267 72 376 c 0
 72 485 105 577 170 652 c 0
 235 727 316 765 414 765 c 0
 510 765 591 727 656 652 c 0
 720 577 752 485 752 376 c 0
EndSplineSet
Validated: 9
EndChar

StartChar: P
Encoding: 80 80 50
Width: 651
Flags: W
LayerCount: 2
Fore
SplineSet
76 671 m 1
 76 632 l 1
 437 632 l 1
 303 586 231 561 222 558 c 0
 205 553 197 548 197 541 c 0
 197 534 202 529 211 526 c 0
 222 521 231 519 240 520 c 0
 257 521 266 522 267 522 c 0
 269 521 278 524 295 529 c 0
 307 532 317 536 326 540 c 0
 365 555 393 566 411 573 c 0
 429 580 453 589 484 600 c 0
 515 610 542 620 566 630 c 0
 583 637 592 645 592 652 c 0
 593 660 584 667 566 673 c 0
 541 682 514 692 484 704 c 0
 454 715 433 723 421 727 c 0
 409 732 393 738 372 746 c 0
 351 754 335 760 326 764 c 0
 324 765 314 768 295 775 c 0
 278 781 262 784 246 784 c 0
 233 784 222 782 211 778 c 0
 202 775 197 770 197 763 c 0
 197 757 205 751 222 745 c 0
 329 709 401 684 437 671 c 1
 76 671 l 1
306 378 m 0
 263 378 228 372 199 361 c 1
 197 336 196 306 196 271 c 0
 196 236 197 207 198 184 c 1
 238 177 282 173 329 173 c 0
 376 173 417 184 452 207 c 0
 487 230 504 253 504 276 c 0
 504 299 487 321 452 344 c 0
 417 367 368 378 306 378 c 0
102 -1 m 2
 110 190 l 1
 110 290 108 340 104 340 c 0
 90 341 79 345 72 351 c 0
 65 358 62 366 62 375 c 0
 62 385 71 395 90 405 c 0
 109 414 132 422 159 427 c 0
 213 438 260 443 300 443 c 0
 397 443 471 425 521 389 c 0
 572 353 597 315 597 276 c 0
 597 237 572 199 521 163 c 0
 471 126 406 108 325 108 c 0
 265 108 222 111 196 117 c 1
 201 -1 l 2
 202 -14 197 -25 188 -33 c 0
 179 -41 167 -45 152 -45 c 0
 138 -45 126 -41 116 -33 c 0
 107 -24 102 -14 102 -1 c 2
EndSplineSet
Validated: 41
EndChar

StartChar: Q
Encoding: 81 81 51
Width: 651
Flags: W
LayerCount: 2
Fore
SplineSet
505 578 m 1
 491 374 l 1
 445 362 398 358 351 362 c 0
 328 364 297 381 257 412 c 1
 505 578 l 1
380 679 m 0
 424 679 461 671 490 656 c 1
 203 466 l 1
 203 554 213 608 234 629 c 0
 267 662 316 679 380 679 c 0
590 48 m 2
 582 382 l 2
 582 547 584 629 588 629 c 0
 603 631 614 636 621 644 c 0
 628 652 632 662 632 676 c 0
 632 688 622 701 603 714 c 0
 584 727 560 737 532 744 c 0
 476 758 427 765 386 765 c 0
 286 765 210 741 158 694 c 0
 106 647 80 589 80 520 c 0
 80 451 106 393 158 346 c 0
 210 298 277 274 360 274 c 0
 422 274 466 278 493 285 c 1
 488 48 l 2
 488 31 493 17 502 6 c 0
 511 -5 524 -10 538 -10 c 0
 554 -10 566 -5 576 6 c 0
 585 17 590 31 590 48 c 2
EndSplineSet
Validated: 41
EndChar

StartChar: R
Encoding: 82 82 52
Width: 686
Flags: W
LayerCount: 2
Fore
SplineSet
374 158 m 0
 384 147 388 133 388 115 c 0
 388 97 382 82 371 68 c 0
 360 54 346 46 330 46 c 0
 313 46 300 52 291 64 c 0
 282 76 277 91 277 108 c 0
 277 126 282 141 294 155 c 0
 304 169 318 176 336 176 c 0
 352 176 366 170 374 158 c 0
382 579 m 0
 390 568 395 553 395 536 c 0
 395 518 389 502 378 488 c 0
 367 474 353 467 336 467 c 0
 320 467 307 473 298 485 c 0
 289 497 284 512 284 529 c 0
 284 546 290 562 300 576 c 0
 312 589 326 596 342 596 c 0
 360 596 372 590 382 579 c 0
504 533 m 0
 504 577 487 612 454 639 c 0
 421 666 372 679 309 679 c 0
 278 679 245 673 212 661 c 1
 210 601 209 544 209 490 c 0
 209 435 209 404 210 395 c 1
 395 395 l 1
 419 402 443 418 468 446 c 0
 492 472 504 502 504 533 c 0
629 76 m 2
 645 78 l 2
 651 78 654 70 654 54 c 0
 654 38 647 23 633 10 c 0
 619 -3 603 -10 586 -10 c 0
 556 -10 527 9 500 48 c 0
 465 96 420 180 365 301 c 1
 211 299 l 1
 211 252 212 205 214 158 c 0
 216 110 217 76 217 56 c 0
 217 9 200 -15 166 -15 c 0
 132 -15 115 9 115 56 c 0
 115 83 116 130 118 197 c 0
 121 264 122 330 122 394 c 0
 122 459 120 536 116 627 c 1
 87 633 72 648 72 672 c 0
 72 701 100 723 155 740 c 0
 210 757 260 765 303 765 c 0
 400 765 474 743 524 700 c 0
 575 656 600 602 600 539 c 0
 600 498 586 458 559 420 c 0
 532 380 496 351 452 330 c 1
 483 259 510 204 536 164 c 0
 560 124 579 99 592 90 c 0
 605 81 617 76 629 76 c 2
EndSplineSet
Validated: 1
EndChar

StartChar: S
Encoding: 83 83 53
Width: 586
Flags: W
LayerCount: 2
Fore
SplineSet
488 408 m 0
 509 383 520 357 520 329 c 0
 520 301 511 275 494 250 c 0
 477 226 454 206 426 191 c 1
 465 163 485 127 485 83 c 0
 485 39 465 0 426 -34 c 0
 387 -68 335 -85 272 -85 c 0
 225 -85 180 -73 136 -48 c 0
 91 -23 69 1 69 26 c 0
 69 37 73 46 80 53 c 0
 87 60 97 63 108 63 c 0
 119 63 132 58 146 48 c 0
 187 17 227 2 266 2 c 0
 305 2 335 10 357 25 c 0
 379 40 390 59 390 81 c 0
 390 103 379 122 358 140 c 0
 337 156 311 172 280 187 c 0
 250 202 220 217 190 234 c 0
 159 250 133 270 112 294 c 0
 91 317 80 344 80 373 c 0
 80 402 91 428 114 451 c 0
 137 474 167 490 204 499 c 1
 145 540 115 581 115 620 c 0
 115 660 134 694 170 722 c 0
 208 751 251 765 302 765 c 0
 352 765 394 756 429 738 c 0
 464 720 481 699 481 675 c 0
 481 665 478 657 470 650 c 0
 464 643 455 640 444 640 c 0
 434 640 417 646 392 659 c 0
 367 672 341 678 312 678 c 0
 283 678 259 673 240 662 c 0
 220 651 210 637 210 619 c 0
 210 601 221 583 242 566 c 0
 263 548 289 532 320 516 c 0
 350 502 380 486 410 469 c 0
 441 452 467 432 488 408 c 0
405 276 m 0
 421 291 429 309 429 330 c 0
 429 350 411 372 376 394 c 0
 341 418 308 429 277 429 c 0
 246 429 221 424 201 414 c 0
 181 404 171 391 171 374 c 0
 171 358 183 341 206 324 c 0
 230 306 275 279 340 243 c 1
 367 250 389 261 405 276 c 0
EndSplineSet
Validated: 1
EndChar

StartChar: T
Encoding: 84 84 54
Width: 593
Flags: W
LayerCount: 2
Fore
SplineSet
102 756 m 2
 102 756 301 750 301 750 c 1
 301 750 494 756 494 756 c 2
 512 756 526 752 538 744 c 0
 548 735 554 724 554 709 c 0
 554 694 548 683 538 674 c 0
 526 666 512 662 494 662 c 2
 350 668 l 1
 347 603 346 505 346 372 c 2
 352 48 l 2
 352 31 347 17 338 6 c 0
 329 -5 316 -10 302 -10 c 0
 286 -10 274 -5 264 6 c 0
 255 17 250 31 250 48 c 2
 256 372 l 2
 256 488 254 587 251 668 c 1
 102 662 l 2
 84 662 70 666 58 674 c 0
 48 683 42 694 42 709 c 0
 42 724 48 735 58 744 c 0
 70 752 84 756 102 756 c 2
EndSplineSet
Validated: 1
EndChar

StartChar: U
Encoding: 85 85 55
Width: 743
Flags: W
LayerCount: 2
Fore
SplineSet
569 62 m 0
 523 10 457 -15 372 -15 c 0
 286 -15 220 11 174 62 c 0
 128 113 104 176 103 249 c 0
 102 284 102 327 102 378 c 0
 102 429 102 478 100 526 c 0
 100 572 98 610 98 638 c 0
 96 667 96 684 96 689 c 0
 96 736 113 760 147 760 c 0
 181 760 198 736 198 689 c 0
 198 684 197 663 196 626 c 0
 193 515 192 428 192 366 c 0
 192 303 194 258 200 230 c 0
 204 202 213 175 226 150 c 0
 251 98 299 72 371 72 c 0
 473 72 531 131 546 249 c 0
 549 272 551 304 551 344 c 0
 551 383 550 431 550 486 c 0
 548 542 548 588 546 626 c 0
 546 662 545 684 545 689 c 0
 545 736 562 760 596 760 c 0
 630 760 647 736 647 689 c 0
 647 684 647 667 646 638 c 0
 643 553 641 476 641 406 c 0
 641 336 641 284 640 249 c 0
 639 175 615 112 569 62 c 0
EndSplineSet
Validated: 1
EndChar

StartChar: V
Encoding: 86 86 56
Width: 673
Flags: W
LayerCount: 2
Fore
SplineSet
340 328 m 1
 297 424 l 2
 287 444 271 475 247 516 c 0
 224 558 207 591 196 615 c 0
 184 639 179 662 179 684 c 0
 179 705 182 723 189 736 c 0
 195 750 203 757 213 757 c 0
 222 757 232 746 243 725 c 0
 255 703 271 669 292 623 c 0
 314 577 329 544 340 523 c 1
 348 539 363 571 385 619 c 0
 407 667 423 702 435 725 c 0
 447 747 457 758 466 758 c 0
 475 758 483 752 490 738 c 0
 497 724 500 707 500 685 c 0
 500 664 494 642 483 618 c 0
 472 594 455 561 432 520 c 0
 409 478 393 447 383 426 c 2
 340 328 l 1
397 34 m 0
 386 5 366 -10 336 -10 c 0
 313 -10 293 7 276 40 c 0
 197 196 145 312 120 386 c 0
 114 406 103 437 88 480 c 0
 72 523 60 555 52 576 c 0
 44 598 40 614 40 623 c 0
 40 632 44 642 52 652 c 0
 61 662 72 667 87 667 c 0
 110 667 128 652 140 622 c 0
 267 296 332 133 337 133 c 0
 362 133 429 296 538 622 c 0
 548 652 564 667 586 667 c 0
 601 667 612 662 620 652 c 0
 629 642 633 632 633 623 c 0
 633 614 629 598 621 577 c 0
 585 473 562 410 554 390 c 0
 460 182 408 63 397 34 c 0
EndSplineSet
Validated: 1
EndChar

StartChar: W
Encoding: 87 87 57
Width: 862
Flags: W
LayerCount: 2
Fore
SplineSet
740 675 m 0
 752 661 758 643 758 622 c 0
 758 602 752 584 740 569 c 0
 728 555 713 548 694 548 c 0
 675 548 660 555 648 569 c 0
 636 584 630 601 630 622 c 0
 630 643 636 661 648 675 c 0
 660 690 675 697 694 697 c 0
 713 697 728 690 740 675 c 0
570 706 m 0
 589 683 599 656 599 624 c 0
 599 592 589 565 570 543 c 0
 551 520 526 509 495 509 c 0
 464 509 439 520 420 542 c 0
 401 564 391 591 391 624 c 0
 391 656 401 683 420 706 c 0
 439 728 464 739 495 739 c 0
 526 739 551 728 570 706 c 0
540 624 m 0
 540 642 536 657 528 669 c 0
 520 680 509 686 495 686 c 0
 481 686 470 680 461 669 c 0
 453 657 449 642 449 624 c 0
 449 607 453 592 461 580 c 0
 470 568 481 562 495 562 c 0
 509 562 520 568 528 580 c 0
 536 591 540 606 540 624 c 0
331 675 m 0
 343 661 349 643 349 622 c 0
 349 601 343 584 331 569 c 0
 319 555 304 548 285 548 c 0
 266 548 250 555 239 569 c 0
 227 584 221 601 221 622 c 0
 221 643 227 661 239 675 c 0
 250 690 266 697 285 697 c 0
 304 697 319 690 331 675 c 0
144 675 m 0
 156 661 162 643 162 622 c 0
 162 601 156 584 144 569 c 0
 133 555 117 548 98 548 c 0
 79 548 64 555 52 569 c 0
 40 584 34 601 34 622 c 0
 34 643 40 661 52 675 c 0
 64 690 79 697 98 697 c 0
 117 697 133 690 144 675 c 0
801 395 m 2
 801 395 796 244 796 244 c 1
 796 244 801 78 801 78 c 2
 802 61 797 46 787 34 c 0
 778 23 766 17 751 17 c 0
 723 17 686 40 640 86 c 0
 593 131 553 168 520 195 c 1
 503 132 473 81 430 44 c 0
 387 7 338 -12 283 -12 c 0
 216 -12 158 11 107 58 c 0
 56 104 31 167 31 247 c 0
 31 308 48 361 82 408 c 0
 115 454 146 477 175 477 c 0
 184 477 193 474 200 467 c 0
 208 460 212 452 212 442 c 0
 212 433 207 422 198 409 c 0
 188 396 177 384 165 372 c 0
 153 359 142 342 132 320 c 0
 123 298 118 274 118 249 c 0
 118 201 134 162 164 130 c 0
 196 100 234 84 280 84 c 0
 327 84 365 100 394 133 c 0
 423 166 440 204 444 248 c 1
 422 270 407 288 399 303 c 0
 391 318 387 334 387 350 c 0
 387 368 392 381 402 390 c 0
 411 399 424 404 442 404 c 0
 458 404 475 395 492 377 c 0
 508 359 520 332 528 296 c 1
 578 251 639 198 711 139 c 1
 713 158 714 187 714 224 c 0
 714 262 713 299 710 335 c 0
 708 371 707 394 707 406 c 0
 707 416 711 428 720 438 c 0
 728 450 739 455 754 455 c 0
 769 455 780 450 788 438 c 0
 797 427 802 412 801 395 c 2
EndSplineSet
Validated: 33
EndChar

StartChar: X
Encoding: 88 88 58
Width: 696
Flags: W
LayerCount: 2
Fore
SplineSet
328 311 m 1
 314 289 291 252 260 202 c 0
 229 150 209 120 202 108 c 0
 195 98 188 86 180 75 c 0
 174 64 168 55 165 50 c 2
 152 31 l 2
 146 22 139 13 131 6 c 0
 120 -5 108 -10 96 -10 c 0
 85 -10 75 -6 67 2 c 0
 59 10 55 19 55 28 c 0
 55 37 57 47 62 56 c 0
 66 66 74 80 86 100 c 0
 99 118 112 139 126 160 c 0
 188 249 239 325 278 387 c 1
 218 494 169 577 130 636 c 0
 114 660 95 672 74 672 c 0
 62 672 55 674 52 678 c 0
 49 682 48 688 48 695 c 0
 48 716 54 732 66 744 c 0
 79 757 93 763 110 763 c 0
 127 763 142 759 154 750 c 0
 168 741 183 724 201 698 c 0
 208 687 253 610 336 465 c 1
 353 492 376 531 408 582 c 0
 438 634 457 666 464 676 c 0
 471 688 476 696 478 701 c 0
 482 706 486 713 490 720 c 0
 496 728 500 734 503 738 c 0
 506 741 510 745 514 749 c 0
 522 756 532 760 544 760 c 0
 556 760 566 756 574 748 c 0
 581 739 585 729 585 718 c 0
 585 707 578 690 565 666 c 0
 552 644 523 599 480 532 c 0
 437 466 405 418 386 388 c 1
 478 241 536 153 562 123 c 0
 586 93 608 78 626 78 c 0
 636 78 642 76 644 72 c 0
 647 69 648 64 648 57 c 0
 648 36 642 20 630 6 c 0
 617 -6 602 -13 585 -13 c 0
 558 -13 528 9 495 53 c 0
 477 77 421 163 328 311 c 1
EndSplineSet
Validated: 1
EndChar

StartChar: Y
Encoding: 89 89 59
Width: 646
Flags: W
LayerCount: 2
Fore
SplineSet
373 151 m 1
 375 48 l 2
 375 31 370 17 361 6 c 0
 352 -5 340 -10 324 -10 c 0
 310 -10 297 -5 288 6 c 0
 278 17 273 28 273 42 c 0
 273 54 274 91 277 151 c 1
 224 150 178 149 139 149 c 0
 124 149 112 153 104 160 c 0
 94 167 90 177 90 189 c 0
 90 201 94 211 104 218 c 0
 112 225 124 229 139 229 c 2
 279 226 l 1
 279 294 l 1
 139 292 l 2
 124 292 112 296 104 303 c 0
 94 310 90 320 90 332 c 0
 90 344 94 354 104 361 c 0
 112 368 124 372 138 372 c 0
 151 372 168 372 190 372 c 0
 210 371 225 371 234 371 c 1
 195 438 169 481 156 501 c 0
 144 521 134 538 124 554 c 0
 116 568 108 580 103 589 c 0
 98 598 93 606 88 614 c 0
 83 623 80 629 78 634 c 0
 75 638 73 642 72 647 c 0
 69 654 68 662 68 671 c 0
 68 680 73 690 82 699 c 0
 92 708 104 713 119 713 c 0
 127 713 133 712 138 708 c 0
 142 706 145 703 148 701 c 0
 151 699 154 696 157 691 c 0
 160 686 163 682 165 680 c 0
 167 676 170 672 174 665 c 0
 178 658 181 653 184 649 c 0
 186 645 189 638 194 630 c 0
 199 620 217 587 250 528 c 0
 282 470 309 425 330 394 c 1
 344 415 365 452 394 504 c 0
 422 557 439 588 444 598 c 0
 450 607 455 616 460 624 c 0
 465 633 468 639 470 644 c 0
 473 649 476 654 480 661 c 0
 484 668 487 673 490 676 c 0
 493 680 496 684 499 689 c 0
 502 694 505 697 508 700 c 0
 511 702 514 704 517 706 c 0
 523 711 532 713 542 713 c 0
 554 713 563 709 572 700 c 0
 581 691 585 682 585 672 c 0
 585 661 581 648 572 632 c 0
 564 616 512 529 417 371 c 1
 517 372 l 2
 532 372 544 368 552 361 c 0
 562 354 566 344 566 332 c 0
 566 320 562 310 552 303 c 0
 544 296 532 292 517 292 c 2
 371 294 l 1
 371 226 l 1
 517 229 l 2
 532 229 544 225 552 218 c 0
 562 211 566 201 566 189 c 0
 566 177 562 167 552 160 c 0
 544 153 532 149 517 149 c 0
 477 149 429 150 373 151 c 1
EndSplineSet
Validated: 1
EndChar

StartChar: Z
Encoding: 90 90 60
Width: 618
Flags: W
LayerCount: 2
Fore
SplineSet
120 755 m 2
 120 755 295 750 295 750 c 1
 295 750 498 755 498 755 c 2
 536 756 555 742 555 714 c 0
 555 696 548 675 534 653 c 2
 423 472 l 1
 510 472 l 1
 510 418 l 1
 382 418 l 1
 351 368 l 1
 310 301 l 1
 510 301 l 1
 510 231 l 1
 268 231 l 1
 180 87 l 1
 218 84 260 82 308 82 c 0
 354 82 399 83 440 86 c 0
 481 88 508 89 520 89 c 0
 531 89 542 85 554 76 c 0
 564 68 570 57 570 42 c 0
 570 27 564 16 554 8 c 0
 542 -1 528 -6 510 -5 c 2
 510 -5 335 0 335 0 c 1
 335 0 106 -5 106 -5 c 2
 51 -6 32 8 49 38 c 2
 160 231 l 1
 62 231 l 1
 62 301 l 1
 197 301 l 1
 200 301 l 1
 244 378 268 416 273 416 c 2
 61 416 l 1
 61 472 l 1
 306 472 l 1
 425 664 l 1
 395 667 359 668 316 668 c 0
 273 668 231 667 190 664 c 0
 149 662 122 661 110 661 c 0
 99 661 88 665 76 674 c 0
 66 682 60 693 60 708 c 0
 60 723 66 734 76 742 c 0
 88 751 102 756 120 755 c 2
EndSplineSet
Validated: 33
EndChar

StartChar: bracketleft
Encoding: 91 91 61
Width: 438
Flags: W
LayerCount: 2
Fore
SplineSet
193 0 m 1
 337 3 l 2
 355 3 370 -1 380 -9 c 0
 392 -17 397 -28 397 -42 c 0
 397 -55 392 -66 380 -74 c 0
 370 -82 355 -86 337 -86 c 2
 243 -83 l 1
 146 -87 l 2
 130 -87 117 -83 107 -74 c 0
 97 -66 92 -57 92 -46 c 0
 92 -35 93 15 95 104 c 0
 97 194 98 284 98 375 c 0
 98 466 97 554 94 640 c 0
 92 727 91 777 91 790 c 0
 91 803 96 815 106 824 c 0
 116 834 129 839 146 839 c 2
 243 835 l 1
 337 838 l 2
 354 838 369 834 380 826 c 0
 391 817 397 806 397 793 c 0
 397 780 391 769 380 760 c 0
 369 752 354 748 337 748 c 0
 334 748 326 748 314 749 c 0
 290 750 250 751 193 751 c 1
 193 749 192 705 190 618 c 0
 188 532 187 452 187 376 c 0
 187 302 188 221 190 136 c 0
 192 51 193 5 193 0 c 1
EndSplineSet
Validated: 1
EndChar

StartChar: backslash
Encoding: 92 92 62
Width: 433
Flags: W
LayerCount: 2
Fore
SplineSet
82 820 m 0
 90 830 101 835 114 835 c 0
 127 835 138 831 148 822 c 0
 156 813 162 802 165 787 c 0
 217 555 259 378 290 256 c 0
 337 72 361 -26 361 -38 c 0
 361 -50 357 -61 348 -70 c 0
 340 -79 329 -84 314 -84 c 0
 299 -84 288 -78 280 -68 c 0
 273 -56 267 -41 262 -20 c 0
 219 176 181 339 148 468 c 0
 97 671 71 778 71 788 c 0
 71 800 75 810 82 820 c 0
EndSplineSet
Validated: 1
EndChar

StartChar: bracketright
Encoding: 93 93 63
Width: 438
Flags: W
LayerCount: 2
Fore
SplineSet
245 752 m 1
 101 749 l 2
 83 749 68 753 58 761 c 0
 46 769 41 780 41 794 c 0
 41 807 46 818 58 826 c 0
 68 834 83 838 101 838 c 2
 195 835 l 1
 292 839 l 2
 308 839 321 835 331 826 c 0
 341 818 346 809 346 798 c 0
 346 787 345 737 343 648 c 0
 341 558 340 468 340 377 c 0
 340 286 341 198 344 112 c 0
 346 25 347 -25 347 -38 c 0
 347 -51 342 -63 332 -72 c 0
 322 -82 309 -87 292 -87 c 2
 195 -83 l 1
 101 -86 l 2
 84 -86 69 -82 58 -74 c 0
 47 -65 41 -54 41 -41 c 0
 41 -28 47 -17 58 -8 c 0
 69 0 84 4 101 4 c 2
 245 1 l 2
 245 3 246 47 248 134 c 0
 250 220 251 300 251 376 c 0
 251 450 250 531 248 616 c 0
 246 701 245 747 245 752 c 1
EndSplineSet
Validated: 1
EndChar

StartChar: asciicircum
Encoding: 94 94 64
Width: 591
Flags: W
LayerCount: 2
Fore
SplineSet
79 458 m 0
 94 483 121 529 162 594 c 0
 203 660 230 704 244 726 c 0
 257 749 275 760 296 760 c 0
 318 760 336 748 350 725 c 0
 460 548 518 452 526 437 c 0
 532 422 536 410 536 402 c 0
 536 392 532 384 524 376 c 0
 516 368 505 364 490 364 c 0
 475 364 463 373 454 391 c 0
 429 436 398 492 359 560 c 0
 320 626 300 660 296 660 c 0
 294 660 273 627 234 560 c 0
 196 494 164 438 139 391 c 0
 135 383 129 376 122 372 c 0
 114 366 105 364 96 364 c 0
 86 364 77 368 69 376 c 0
 61 384 57 393 57 404 c 0
 57 415 64 433 79 458 c 0
EndSplineSet
Validated: 1
EndChar

StartChar: underscore
Encoding: 95 95 65
Width: 382
Flags: W
LayerCount: 2
Fore
SplineSet
189 14 m 1
 50 11 l 2
 40 11 32 15 26 23 c 0
 19 31 16 40 16 52 c 0
 16 63 19 73 26 81 c 0
 32 89 40 92 50 92 c 2
 50 92 189 90 189 90 c 1
 189 90 328 92 328 92 c 2
 338 92 346 89 353 81 c 0
 359 73 362 63 362 52 c 0
 362 40 359 31 353 23 c 0
 346 15 338 11 328 11 c 2
 189 14 l 1
EndSplineSet
Validated: 1
EndChar

StartChar: grave
Encoding: 96 96 66
Width: 330
Flags: W
LayerCount: 2
Fore
SplineSet
85 696 m 0
 85 707 89 718 96 726 c 0
 104 736 114 740 126 740 c 0
 137 740 147 737 156 730 c 0
 164 724 170 718 174 712 c 0
 177 705 182 695 188 682 c 0
 194 669 205 652 221 632 c 0
 237 613 245 599 245 591 c 0
 245 583 242 576 236 571 c 0
 231 566 223 563 212 563 c 0
 191 563 164 578 132 608 c 0
 101 637 85 667 85 696 c 0
EndSplineSet
Validated: 1
EndChar

StartChar: a
Encoding: 97 97 67
Width: 810
Flags: W
LayerCount: 2
Fore
SplineSet
648 367 m 1
 648 292 653 229 662 178 c 0
 672 126 684 97 698 90 c 0
 703 87 710 86 717 84 c 0
 724 84 730 82 733 80 c 0
 736 78 738 74 738 69 c 0
 738 45 731 25 718 10 c 0
 705 -5 687 -13 665 -13 c 0
 636 -13 614 4 599 37 c 0
 584 70 577 113 577 165 c 1
 542 109 504 65 466 33 c 0
 426 1 383 -15 334 -15 c 0
 286 -15 245 -4 212 20 c 0
 179 42 152 73 132 110 c 0
 92 187 72 271 72 363 c 0
 72 472 100 567 157 646 c 0
 214 725 287 765 377 765 c 0
 412 765 446 758 478 746 c 0
 512 732 539 716 561 696 c 1
 561 742 578 765 612 765 c 0
 654 765 675 731 675 664 c 0
 675 614 666 515 648 367 c 1
569 355 m 1
 563 600 l 1
 506 652 444 678 377 678 c 0
 322 678 273 648 231 588 c 0
 189 529 168 456 168 371 c 0
 168 286 182 214 212 158 c 0
 240 100 280 72 330 72 c 0
 379 72 429 104 480 167 c 0
 530 230 560 293 569 355 c 1
484 986 m 0
 504 966 514 942 514 914 c 0
 514 885 504 862 486 843 c 0
 466 824 442 815 411 815 c 0
 380 815 356 824 336 843 c 0
 318 862 308 885 308 914 c 0
 308 943 318 967 338 986 c 0
 357 1006 382 1016 411 1016 c 0
 440 1016 465 1006 484 986 c 0
449 914 m 0
 449 924 445 933 437 942 c 0
 429 951 420 955 410 955 c 0
 401 955 392 951 384 942 c 0
 377 934 373 925 373 914 c 0
 373 904 377 895 384 887 c 0
 391 879 400 875 410 875 c 0
 421 875 430 879 438 887 c 0
 445 895 449 904 449 914 c 0
EndSplineSet
Validated: 1
EndChar

StartChar: b
Encoding: 98 98 68
Width: 651
Flags: W
LayerCount: 2
Fore
SplineSet
324 93 m 0
 280 93 243 101 214 116 c 1
 212 148 211 196 211 259 c 0
 211 322 212 369 213 398 c 1
 254 408 298 413 348 413 c 0
 396 413 439 398 474 368 c 0
 510 338 528 300 528 252 c 0
 528 206 510 167 474 138 c 0
 438 108 388 93 324 93 c 0
114 724 m 2
 122 390 l 2
 122 225 120 143 116 143 c 0
 101 141 90 136 83 128 c 0
 76 120 72 110 72 96 c 0
 72 84 82 71 101 58 c 0
 120 45 144 35 172 28 c 0
 228 14 277 7 318 7 c 0
 418 7 494 31 546 78 c 0
 598 125 624 183 624 252 c 0
 624 321 598 379 546 426 c 0
 494 474 427 498 344 498 c 0
 282 498 238 494 211 487 c 1
 216 724 l 2
 216 741 211 755 202 766 c 0
 193 777 180 782 166 782 c 0
 150 782 138 777 128 766 c 0
 119 755 114 741 114 724 c 2
EndSplineSet
Validated: 9
EndChar

StartChar: c
Encoding: 99 99 69
Width: 708
Flags: W
LayerCount: 2
Fore
SplineSet
515 -133 m 0
 515 -161 502 -184 478 -202 c 0
 452 -221 423 -230 388 -230 c 0
 353 -230 326 -222 304 -206 c 0
 284 -189 273 -172 273 -155 c 0
 273 -149 276 -143 280 -138 c 0
 286 -133 292 -130 300 -130 c 0
 307 -130 320 -134 336 -142 c 0
 354 -150 368 -154 381 -154 c 0
 394 -154 404 -152 412 -147 c 0
 420 -142 424 -137 424 -131 c 0
 424 -125 419 -118 410 -112 c 0
 400 -104 389 -98 378 -90 c 0
 367 -84 356 -72 346 -58 c 0
 336 -42 331 -25 331 -6 c 1
 254 13 191 58 144 128 c 0
 96 200 72 282 72 376 c 0
 72 485 104 577 168 652 c 0
 231 727 311 765 407 765 c 0
 466 765 518 754 564 732 c 0
 611 710 634 685 634 658 c 0
 634 645 630 634 622 626 c 0
 614 618 604 614 590 614 c 0
 578 614 559 622 535 637 c 0
 496 664 454 678 407 678 c 0
 338 678 280 648 236 588 c 0
 190 529 168 458 168 376 c 0
 168 295 190 224 236 163 c 0
 280 102 336 72 401 72 c 0
 466 72 526 88 580 121 c 0
 602 133 617 139 624 139 c 0
 632 139 639 136 646 130 c 0
 652 123 655 115 655 106 c 0
 655 83 631 57 583 29 c 0
 535 1 478 -14 412 -15 c 1
 414 -26 424 -38 441 -49 c 0
 458 -60 475 -73 491 -86 c 0
 507 -99 515 -115 515 -133 c 0
EndSplineSet
Validated: 1
EndChar

StartChar: d
Encoding: 100 100 70
Width: 651
Flags: W
LayerCount: 2
Fore
SplineSet
368 93 m 0
 412 93 449 101 478 116 c 1
 480 148 481 196 481 259 c 0
 481 322 480 369 479 398 c 1
 438 408 394 413 344 413 c 0
 296 413 253 398 218 368 c 0
 182 338 164 300 164 252 c 0
 164 206 182 167 218 138 c 0
 254 108 304 93 368 93 c 0
578 724 m 2
 570 390 l 2
 570 225 572 143 576 143 c 0
 591 141 602 136 609 128 c 0
 616 120 620 110 620 96 c 0
 620 84 610 71 591 58 c 0
 572 45 548 35 520 28 c 0
 464 14 415 7 374 7 c 0
 274 7 198 31 146 78 c 0
 94 125 68 183 68 252 c 0
 68 321 94 379 146 426 c 0
 198 474 265 498 348 498 c 0
 410 498 454 494 481 487 c 1
 476 724 l 2
 476 741 481 755 490 766 c 0
 499 777 512 782 526 782 c 0
 542 782 554 777 564 766 c 0
 573 755 578 741 578 724 c 2
EndSplineSet
Validated: 1
EndChar

StartChar: e
Encoding: 101 101 71
Width: 745
Flags: W
LayerCount: 2
Fore
SplineSet
596 553 m 0
 596 584 583 613 558 639 c 0
 532 665 497 678 452 678 c 0
 407 678 368 665 334 638 c 0
 271 589 231 517 213 421 c 1
 264 407 321 400 384 400 c 0
 448 400 499 413 538 440 c 0
 577 467 596 504 596 553 c 0
597 28 m 0
 550 -1 499 -15 444 -15 c 0
 389 -15 342 -5 301 16 c 0
 260 37 227 64 201 99 c 0
 147 171 118 255 114 352 c 1
 66 367 42 390 42 423 c 0
 42 436 46 447 54 454 c 0
 61 462 70 466 80 466 c 0
 90 466 104 462 122 454 c 1
 143 543 182 618 238 676 c 0
 296 736 365 765 448 765 c 0
 515 765 573 745 620 704 c 0
 668 663 692 614 692 557 c 0
 692 500 677 453 648 416 c 0
 593 349 507 315 390 315 c 0
 342 315 282 322 211 335 c 1
 217 263 241 201 282 150 c 0
 324 98 374 72 432 72 c 0
 489 72 543 88 593 121 c 0
 615 133 630 139 638 139 c 0
 645 139 652 136 658 130 c 0
 665 123 668 115 668 106 c 0
 668 83 644 57 597 28 c 0
EndSplineSet
Validated: 1
EndChar

StartChar: f
Encoding: 102 102 72
Width: 327
Flags: W
LayerCount: 2
Fore
SplineSet
58 502 m 2
 108 500 l 1
 108 585 l 2
 108 644 120 688 142 716 c 0
 166 746 193 760 226 760 c 0
 259 760 286 754 308 742 c 0
 329 730 340 717 340 702 c 0
 340 680 331 669 312 669 c 0
 307 669 296 673 278 681 c 0
 261 689 247 693 237 693 c 0
 196 693 175 654 175 576 c 2
 175 500 l 1
 272 502 l 2
 283 502 292 499 299 494 c 0
 306 488 310 480 310 470 c 0
 310 450 297 440 272 440 c 2
 175 442 l 1
 178 83 l 2
 178 17 166 -34 142 -70 c 0
 117 -105 92 -123 66 -123 c 0
 41 -123 28 -117 28 -104 c 0
 28 -99 30 -94 36 -88 c 0
 40 -84 47 -77 56 -69 c 0
 65 -61 72 -53 78 -44 c 0
 97 -17 108 22 110 73 c 0
 112 124 113 183 113 251 c 0
 113 319 112 383 109 442 c 1
 58 440 l 2
 33 440 20 450 20 470 c 0
 20 480 24 488 31 494 c 0
 38 499 47 502 58 502 c 2
EndSplineSet
Validated: 1
EndChar

StartChar: g
Encoding: 103 103 73
Width: 558
Flags: W
LayerCount: 2
Fore
SplineSet
429 482 m 1
 429 633 l 1
 388 674 343 695 293 695 c 0
 254 695 213 671 170 624 c 0
 133 583 116 538 122 490 c 0
 126 441 140 399 161 364 c 0
 182 329 213 311 253 311 c 0
 296 311 329 323 350 346 c 0
 384 381 410 427 429 482 c 1
427 714 m 1
 428 747 443 764 470 764 c 0
 507 764 524 740 521 691 c 0
 515 584 512 518 512 491 c 2
 512 298 l 2
 512 206 489 132 443 75 c 0
 396 18 332 -10 250 -10 c 0
 205 -10 161 -1 119 17 c 0
 78 35 57 62 57 98 c 0
 57 116 65 125 82 125 c 0
 89 125 108 118 140 105 c 0
 171 92 208 86 250 86 c 0
 292 86 335 104 378 139 c 0
 405 160 418 197 418 250 c 0
 418 275 416 300 412 326 c 1
 404 313 384 293 350 265 c 0
 318 237 281 223 242 223 c 0
 169 223 113 252 74 311 c 0
 41 362 24 424 24 496 c 0
 24 560 49 621 99 678 c 0
 149 735 212 764 287 764 c 0
 338 764 385 747 427 714 c 1
EndSplineSet
Validated: 33
EndChar

StartChar: h
Encoding: 104 104 74
Width: 768
Flags: W
LayerCount: 2
Fore
SplineSet
553 353 m 1
 381 355 l 2
 304 355 248 355 213 354 c 1
 213 301 214 240 216 170 c 0
 218 101 219 64 219 61 c 0
 219 14 202 -10 168 -10 c 0
 134 -10 117 14 117 61 c 0
 117 64 118 100 120 169 c 0
 122 238 123 298 123 351 c 1
 80 351 59 366 59 396 c 0
 59 410 64 421 76 430 c 0
 86 438 102 442 123 442 c 1
 123 495 122 548 120 602 c 0
 118 657 117 686 117 689 c 0
 117 736 134 760 168 760 c 0
 202 760 219 736 219 689 c 0
 219 686 218 656 216 601 c 0
 214 546 213 492 213 439 c 1
 278 438 343 437 408 437 c 0
 473 437 521 438 553 439 c 2
 644 443 l 1
 644 350 l 2
 644 297 645 237 647 168 c 0
 649 100 650 64 650 61 c 0
 650 14 633 -10 599 -10 c 0
 565 -10 548 14 548 61 c 2
 553 353 l 1
EndSplineSet
Validated: 1
EndChar

StartChar: i
Encoding: 105 105 75
Width: 267
Flags: W
LayerCount: 2
Fore
SplineSet
174 742 m 0
 184 729 188 715 188 698 c 0
 188 681 182 666 172 653 c 0
 160 640 147 633 130 633 c 0
 113 633 101 639 92 650 c 0
 83 661 79 676 79 692 c 0
 79 710 85 725 96 739 c 0
 107 753 121 760 137 760 c 0
 153 760 166 754 174 742 c 0
177 278 m 1
 185 50 l 2
 185 30 180 14 172 2 c 0
 162 -9 150 -15 134 -15 c 0
 118 -15 106 -9 96 2 c 0
 88 14 83 30 83 50 c 2
 90 278 l 1
 89 479 l 2
 89 496 93 510 101 520 c 0
 109 530 120 535 134 535 c 0
 148 535 159 530 167 520 c 0
 175 510 179 496 179 479 c 2
 177 278 l 1
EndSplineSet
Validated: 1
EndChar

StartChar: j
Encoding: 106 106 76
Width: 593
Flags: W
LayerCount: 2
Fore
SplineSet
300 426 m 0
 325 396 338 361 338 320 c 0
 338 278 325 242 300 214 c 0
 275 184 242 170 201 170 c 0
 160 170 127 184 102 213 c 0
 77 242 64 277 64 319 c 0
 64 361 77 396 102 426 c 0
 127 454 160 469 201 469 c 0
 242 469 275 454 300 426 c 0
260 319 m 0
 260 342 255 362 244 377 c 0
 234 392 220 400 201 400 c 0
 182 400 168 392 157 377 c 0
 146 362 141 342 141 320 c 0
 141 296 146 277 157 262 c 0
 168 247 182 239 201 239 c 0
 220 239 234 246 244 262 c 0
 255 276 260 296 260 319 c 0
328 750 m 1
 477 756 l 2
 495 756 510 752 520 744 c 0
 532 735 537 724 537 710 c 0
 537 695 531 684 518 675 c 0
 505 666 489 662 469 662 c 1
 468 621 468 486 468 257 c 0
 468 208 461 166 448 129 c 0
 434 92 416 64 393 44 c 0
 348 5 298 -15 240 -15 c 0
 184 -15 137 -4 100 20 c 0
 64 42 46 65 46 87 c 0
 46 100 50 110 57 118 c 0
 64 125 74 129 86 129 c 0
 98 129 110 124 122 115 c 0
 134 106 149 96 168 86 c 0
 187 77 210 72 237 72 c 0
 276 72 309 88 336 122 c 0
 364 154 378 207 378 278 c 2
 375 667 l 1
 333 667 295 666 261 664 c 0
 227 662 204 661 191 661 c 0
 178 661 166 665 156 674 c 0
 144 682 139 693 139 708 c 0
 139 723 144 734 156 742 c 0
 166 751 181 755 199 755 c 2
 328 750 l 1
EndSplineSet
Validated: 1
EndChar

StartChar: k
Encoding: 107 107 77
Width: 604
Flags: W
LayerCount: 2
Fore
SplineSet
34 260 m 0
 34 274 37 286 43 297 c 0
 49 307 60 318 76 328 c 0
 93 338 108 346 120 353 c 0
 133 359 155 368 186 380 c 0
 217 393 242 403 261 412 c 0
 280 420 303 430 331 443 c 0
 358 455 378 464 392 470 c 0
 406 477 421 484 438 490 c 0
 468 502 489 507 503 507 c 0
 516 507 527 503 535 495 c 0
 544 488 548 477 548 465 c 0
 548 445 536 429 512 417 c 0
 485 406 451 392 410 376 c 0
 368 360 339 348 322 340 c 0
 213 294 159 268 159 260 c 0
 159 254 200 234 281 199 c 2
 321 181 l 2
 338 173 367 161 409 145 c 0
 450 128 484 114 511 103 c 0
 535 92 547 76 547 55 c 0
 547 43 543 33 534 25 c 0
 526 17 517 13 507 13 c 0
 497 13 487 14 477 17 c 0
 467 20 453 24 437 31 c 0
 420 37 405 44 391 51 c 0
 313 86 251 113 206 132 c 0
 161 150 132 162 120 168 c 0
 107 174 93 182 76 192 c 0
 60 203 49 213 43 224 c 0
 37 234 34 247 34 260 c 0
182 50 m 2
 182 33 178 19 169 7 c 0
 160 -4 149 -10 136 -10 c 0
 120 -10 109 -4 104 7 c 0
 95 26 91 40 91 50 c 2
 96 377 l 1
 96 629 l 1
 92 738 l 1
 107 753 122 760 136 760 c 0
 153 760 168 753 181 738 c 1
 177 629 l 1
 181 308 l 1
 182 50 l 2
EndSplineSet
Validated: 5
EndChar

StartChar: l
Encoding: 108 108 78
Width: 267
Flags: W
LayerCount: 2
Fore
SplineSet
176 337 m 1
 181 47 l 2
 181 31 176 18 166 6 c 0
 156 -4 144 -10 130 -10 c 0
 117 -10 105 -4 96 6 c 0
 86 18 81 31 81 47 c 2
 85 372 l 1
 81 702 l 2
 81 718 86 732 96 742 c 0
 105 754 117 759 130 759 c 0
 144 759 156 754 166 742 c 0
 176 732 181 718 181 702 c 2
 178 612 l 2
 177 552 176 493 176 434 c 2
 176 337 l 1
EndSplineSet
Validated: 1
EndChar

StartChar: m
Encoding: 109 109 79
Width: 1218
Flags: W
LayerCount: 2
Fore
SplineSet
1083 460 m 2
 1076 218 l 2
 1076 193 1076 174 1077 161 c 0
 1078 148 1080 135 1085 121 c 0
 1090 107 1097 98 1106 94 c 0
 1111 91 1118 90 1125 88 c 0
 1132 88 1138 86 1141 84 c 0
 1144 82 1146 78 1146 73 c 0
 1146 50 1139 30 1124 14 c 0
 1109 -1 1092 -9 1072 -9 c 0
 1038 -9 1014 4 1002 31 c 0
 988 58 982 97 982 150 c 2
 987 429 l 2
 987 502 975 560 950 604 c 0
 925 649 891 671 847 671 c 0
 803 671 760 642 718 583 c 0
 677 524 648 458 631 383 c 1
 635 60 l 2
 635 37 631 20 624 8 c 0
 617 -3 603 -9 584 -9 c 0
 543 -9 522 24 522 91 c 0
 522 158 531 255 549 383 c 1
 549 575 501 671 406 671 c 0
 363 671 321 642 280 583 c 0
 238 524 209 458 192 383 c 1
 196 60 l 2
 196 14 179 -9 145 -9 c 0
 104 -9 83 24 83 91 c 0
 83 158 92 255 110 383 c 1
 110 427 106 486 98 560 c 0
 91 635 87 680 87 698 c 0
 87 714 92 729 101 742 c 0
 110 754 123 760 140 760 c 0
 156 760 169 754 178 742 c 0
 187 729 192 715 192 700 c 0
 192 685 192 666 192 644 c 0
 191 623 191 604 191 589 c 1
 252 703 330 760 425 760 c 0
 480 760 524 744 558 714 c 0
 593 682 617 641 630 589 c 1
 693 703 772 760 865 760 c 0
 934 760 988 731 1026 672 c 0
 1064 614 1083 543 1083 460 c 2
EndSplineSet
Validated: 1
EndChar

StartChar: n
Encoding: 110 110 80
Width: 805
Flags: W
LayerCount: 2
Fore
SplineSet
670 497 m 2
 663 215 l 2
 663 190 663 171 664 158 c 0
 665 145 667 132 672 118 c 0
 677 104 684 95 693 91 c 0
 698 88 705 86 712 86 c 0
 719 84 725 83 728 81 c 0
 731 79 733 75 733 70 c 0
 733 47 726 27 711 12 c 0
 696 -4 679 -12 659 -12 c 0
 624 -12 600 1 588 28 c 0
 574 55 568 94 568 147 c 2
 574 431 l 2
 574 504 561 562 536 606 c 0
 511 649 474 671 426 671 c 0
 377 671 330 642 285 584 c 0
 240 525 208 459 191 385 c 1
 195 57 l 2
 195 11 178 -12 144 -12 c 0
 103 -12 82 23 82 92 c 0
 82 162 91 260 109 385 c 1
 109 428 105 487 98 562 c 0
 90 636 86 681 86 698 c 0
 86 715 91 729 100 742 c 0
 109 754 122 760 138 760 c 0
 155 760 168 754 177 742 c 0
 186 729 191 715 191 700 c 0
 191 685 191 666 190 644 c 0
 190 623 190 604 190 589 c 1
 255 703 338 760 438 760 c 0
 512 760 569 734 610 684 c 0
 650 632 670 570 670 497 c 2
EndSplineSet
Validated: 1
EndChar

StartChar: o
Encoding: 111 111 81
Width: 824
Flags: W
LayerCount: 2
Fore
SplineSet
586 164 m 0
 633 225 656 296 656 377 c 0
 656 458 633 528 587 588 c 0
 541 649 483 679 412 679 c 0
 342 679 284 649 238 588 c 0
 191 528 168 458 168 378 c 0
 168 297 191 226 238 164 c 0
 285 103 343 72 412 72 c 0
 482 72 540 103 586 164 c 0
752 376 m 0
 752 267 720 175 654 99 c 0
 590 23 508 -15 412 -15 c 0
 314 -15 234 23 169 99 c 0
 104 175 72 267 72 376 c 0
 72 485 105 577 170 652 c 0
 235 727 316 765 414 765 c 0
 510 765 591 727 656 652 c 0
 720 577 752 485 752 376 c 0
EndSplineSet
Validated: 1
EndChar

StartChar: p
Encoding: 112 112 82
Width: 617
Flags: W
LayerCount: 2
Fore
SplineSet
209 524 m 1
 208 499 208 468 208 430 c 0
 208 391 209 347 210 298 c 1
 245 289 284 284 329 284 c 0
 374 284 410 296 438 319 c 0
 465 342 479 373 479 411 c 0
 479 449 465 480 437 503 c 0
 409 526 373 538 328 538 c 0
 283 538 244 533 209 524 c 1
113 61 m 2
 113 61 119 375 119 375 c 1
 119 375 113 689 113 689 c 2
 113 736 130 760 164 760 c 0
 198 760 215 736 215 689 c 0
 215 679 214 666 212 650 c 0
 211 635 210 622 210 612 c 1
 242 621 281 625 328 625 c 0
 401 625 461 604 506 564 c 0
 551 522 574 472 574 410 c 0
 574 350 552 299 506 258 c 0
 462 217 402 197 329 197 c 0
 284 197 244 201 210 209 c 1
 213 134 215 84 215 61 c 0
 215 14 198 -10 164 -10 c 0
 130 -10 113 14 113 61 c 2
EndSplineSet
Validated: 1
EndChar

StartChar: q
Encoding: 113 113 83
Width: 930
Flags: W
LayerCount: 2
Fore
SplineSet
565 526 m 0
 565 502 557 476 541 450 c 0
 525 423 509 410 493 410 c 0
 476 410 458 422 436 445 c 0
 415 469 400 481 390 481 c 0
 380 481 369 468 356 444 c 0
 343 419 332 406 323 406 c 0
 314 406 308 411 303 420 c 0
 298 430 296 442 296 457 c 0
 296 485 305 511 323 537 c 0
 341 563 361 577 382 577 c 0
 403 577 424 565 445 541 c 0
 467 517 482 505 492 505 c 0
 501 505 511 515 521 536 c 0
 531 556 539 566 545 566 c 0
 551 566 556 562 560 554 c 0
 563 546 565 537 565 526 c 0
595 304 m 0
 595 280 587 255 571 228 c 0
 555 201 539 188 523 188 c 0
 506 188 487 200 466 224 c 0
 445 247 430 259 420 259 c 0
 410 259 399 247 386 222 c 0
 373 197 362 185 353 185 c 0
 344 185 338 189 333 198 c 0
 328 207 326 220 326 235 c 0
 326 263 335 290 353 316 c 0
 371 342 391 355 412 355 c 0
 433 355 454 343 475 319 c 0
 497 295 513 283 522 283 c 0
 531 283 541 293 551 314 c 0
 561 335 569 345 575 345 c 0
 582 345 587 341 590 333 c 0
 593 325 595 315 595 304 c 0
780 376 m 0
 780 306 766 242 736 183 c 0
 708 124 669 78 620 43 c 1
 625 35 632 23 642 8 c 0
 662 -22 672 -43 672 -54 c 0
 672 -65 668 -75 661 -82 c 0
 654 -90 643 -94 630 -94 c 0
 617 -94 605 -85 594 -67 c 2
 555 3 l 1
 516 -9 477 -15 439 -15 c 0
 342 -15 262 23 197 99 c 0
 132 175 100 267 100 376 c 0
 100 485 133 577 198 652 c 0
 263 727 344 765 442 765 c 0
 538 765 619 727 684 652 c 0
 748 577 780 485 780 376 c 0
684 376 m 0
 684 457 661 528 615 588 c 0
 569 649 511 679 440 679 c 0
 370 679 312 649 266 588 c 0
 219 528 196 458 196 378 c 0
 196 297 219 226 266 164 c 0
 313 103 371 72 440 72 c 0
 466 72 490 75 512 81 c 1
 566 116 l 2
 603 144 632 181 652 228 c 0
 674 275 684 324 684 376 c 0
EndSplineSet
Validated: 1
EndChar

StartChar: r
Encoding: 114 114 84
Width: 563
Flags: W
LayerCount: 2
Fore
SplineSet
192 355 m 1
 195 57 l 2
 195 11 178 -12 144 -12 c 0
 103 -12 82 23 82 92 c 0
 82 162 91 260 109 385 c 1
 109 428 105 487 98 562 c 0
 90 636 86 681 86 698 c 0
 86 715 91 729 100 742 c 0
 109 754 122 760 138 760 c 0
 155 760 168 754 177 742 c 0
 186 729 191 715 191 700 c 0
 191 685 191 666 190 644 c 0
 190 623 190 605 190 590 c 1
 209 636 239 676 279 712 c 0
 319 746 360 764 402 764 c 0
 443 764 475 756 497 740 c 0
 519 723 530 706 530 686 c 0
 530 668 525 652 514 642 c 0
 504 630 491 625 476 625 c 0
 461 625 444 633 426 650 c 0
 407 667 392 675 381 675 c 0
 350 675 314 640 272 568 c 0
 230 498 203 426 192 355 c 1
EndSplineSet
Validated: 1
EndChar

StartChar: s
Encoding: 115 115 85
Width: 606
Flags: W
LayerCount: 2
Fore
SplineSet
547 204 m 0
 547 142 524 90 476 48 c 0
 430 6 369 -15 294 -15 c 0
 236 -15 182 -1 132 27 c 0
 82 55 57 82 57 109 c 0
 57 121 61 131 69 139 c 0
 77 147 87 151 100 151 c 0
 112 151 124 147 137 138 c 0
 150 130 161 121 172 112 c 0
 183 102 199 93 220 84 c 0
 242 76 267 72 294 72 c 0
 339 72 377 84 406 107 c 0
 436 130 451 163 451 204 c 0
 451 231 438 257 413 282 c 0
 388 307 357 329 321 349 c 0
 285 369 249 390 213 410 c 0
 177 432 146 457 121 488 c 0
 96 518 83 551 83 586 c 0
 83 635 104 677 147 712 c 0
 190 747 240 765 298 765 c 0
 356 765 405 755 446 736 c 0
 487 716 507 693 507 668 c 0
 507 655 503 645 495 638 c 0
 487 631 476 627 463 627 c 0
 450 627 437 631 424 640 c 0
 411 649 396 657 377 666 c 0
 358 675 333 679 302 679 c 0
 271 679 242 670 217 653 c 0
 192 636 179 614 179 589 c 0
 179 564 192 540 217 518 c 0
 242 497 273 476 309 456 c 0
 345 436 381 415 417 393 c 0
 453 371 484 344 509 311 c 0
 534 278 547 243 547 204 c 0
EndSplineSet
Validated: 1
EndChar

StartChar: t
Encoding: 116 116 86
Width: 616
Flags: W
LayerCount: 2
Fore
SplineSet
293 302 m 2
 430 297 l 2
 447 296 462 300 473 310 c 0
 484 318 489 329 489 343 c 0
 489 373 469 388 430 387 c 2
 293 383 l 2
 270 382 247 383 226 384 c 1
 226 471 227 541 229 594 c 0
 231 647 232 676 232 681 c 0
 232 728 215 752 181 752 c 0
 147 752 130 728 130 681 c 0
 130 676 130 660 131 634 c 0
 134 556 136 474 136 387 c 1
 75 387 45 372 45 343 c 0
 45 328 51 316 64 308 c 0
 77 301 101 297 136 297 c 1
 135 172 132 97 129 72 c 1
 121 59 117 46 117 32 c 0
 117 1 138 -14 179 -13 c 2
 364 -8 l 1
 491 -14 l 2
 508 -15 523 -10 534 -2 c 0
 546 7 551 18 551 33 c 0
 551 48 546 59 534 68 c 0
 523 77 508 81 491 80 c 2
 364 74 l 2
 335 73 289 74 226 79 c 1
 226 301 l 1
 252 302 274 303 293 302 c 2
EndSplineSet
Validated: 41
EndChar

StartChar: u
Encoding: 117 117 87
Width: 819
Flags: W
LayerCount: 2
Fore
SplineSet
202 646 m 2
 191 314 l 2
 191 241 204 183 228 138 c 0
 254 94 292 72 342 72 c 0
 394 72 443 102 490 162 c 0
 537 221 565 287 574 360 c 1
 570 688 l 2
 570 734 587 757 621 757 c 0
 662 757 683 723 683 655 c 0
 683 587 674 489 656 360 c 1
 656 287 661 224 670 174 c 0
 680 122 692 94 706 88 c 0
 711 85 718 84 726 82 c 0
 733 82 739 80 742 78 c 0
 745 76 747 72 747 67 c 0
 747 42 740 22 725 8 c 0
 710 -8 692 -15 669 -15 c 0
 612 -15 584 43 584 158 c 1
 517 43 433 -15 332 -15 c 0
 278 -15 233 0 196 30 c 0
 129 86 96 175 96 297 c 1
 104 536 l 2
 104 572 100 605 93 636 c 0
 86 667 82 689 82 702 c 0
 82 716 87 729 98 740 c 0
 109 751 123 757 140 757 c 0
 181 757 202 720 202 646 c 2
EndSplineSet
Validated: 1
EndChar

StartChar: v
Encoding: 118 118 88
Width: 673
Flags: W
LayerCount: 2
Fore
SplineSet
397 40 m 0
 386 7 366 -10 336 -10 c 0
 308 -10 287 7 276 40 c 0
 179 313 127 460 120 480 c 0
 114 499 103 530 88 573 c 0
 72 616 60 648 52 670 c 0
 44 691 40 707 40 716 c 0
 40 725 44 735 52 745 c 0
 61 755 72 760 87 760 c 0
 112 760 130 745 140 715 c 0
 267 327 332 133 337 133 c 0
 344 133 411 327 538 715 c 0
 548 745 564 760 586 760 c 0
 601 760 612 755 620 745 c 0
 629 735 633 725 633 716 c 0
 633 707 629 691 621 670 c 0
 583 567 560 504 554 482 c 0
 546 461 494 313 397 40 c 0
EndSplineSet
Validated: 1
EndChar

StartChar: w
Encoding: 119 119 89
Width: 959
Flags: W
LayerCount: 2
Fore
SplineSet
314 434 m 0
 325 462 347 512 380 586 c 0
 413 658 434 707 445 732 c 0
 456 757 470 769 487 769 c 0
 504 769 519 756 530 730 c 0
 618 533 665 427 670 410 c 0
 676 394 679 381 679 371 c 0
 679 361 676 352 670 343 c 0
 663 334 654 330 642 330 c 0
 631 330 621 340 613 360 c 0
 594 410 568 472 538 546 c 0
 506 621 490 658 488 658 c 0
 485 658 469 621 438 548 c 0
 407 474 382 411 361 360 c 0
 358 351 354 343 348 338 c 0
 341 333 334 330 326 330 c 0
 319 330 312 334 306 343 c 0
 299 352 296 362 296 374 c 0
 296 386 302 406 314 434 c 0
714 38 m 0
 703 6 682 -10 654 -10 c 0
 624 -10 604 5 593 35 c 0
 584 59 564 107 530 178 c 0
 498 249 480 285 479 285 c 0
 478 285 470 261 456 212 c 0
 441 163 425 128 407 104 c 0
 389 82 377 59 370 38 c 0
 360 6 340 -10 310 -10 c 0
 281 -10 261 5 250 35 c 0
 247 44 239 68 227 106 c 0
 215 146 200 192 184 246 c 0
 166 300 154 340 146 364 c 0
 138 390 128 419 117 454 c 0
 98 510 89 538 89 538 c 2
 81 571 73 595 66 611 c 2
 42 653 l 1
 42 668 46 680 55 688 c 0
 64 698 74 702 86 702 c 0
 113 702 131 687 140 657 c 0
 181 526 221 403 258 290 c 0
 295 176 314 119 315 119 c 0
 318 119 334 146 365 198 c 0
 396 252 416 299 425 340 c 0
 428 355 435 368 446 378 c 0
 456 390 468 395 483 395 c 0
 506 395 525 378 542 344 c 0
 612 194 651 119 660 119 c 1
 695 247 l 2
 718 332 744 416 771 498 c 0
 798 580 815 633 822 657 c 0
 830 687 845 702 867 702 c 0
 882 702 894 697 902 688 c 0
 910 678 914 666 914 651 c 0
 914 636 898 587 867 504 c 0
 836 421 810 346 790 280 c 0
 745 133 719 52 714 38 c 0
EndSplineSet
Validated: 1
EndChar

StartChar: x
Encoding: 120 120 90
Width: 573
Flags: W
LayerCount: 2
Fore
SplineSet
286 322 m 0
 284 320 270 307 244 282 c 0
 217 258 190 232 161 203 c 0
 150 192 139 187 127 187 c 0
 115 187 105 191 97 199 c 0
 89 207 85 216 85 228 c 0
 85 238 92 251 106 264 c 0
 119 277 141 296 170 322 c 0
 200 346 221 365 233 376 c 1
 221 387 201 405 172 428 c 0
 143 451 122 470 108 484 c 0
 94 497 87 510 87 522 c 0
 87 534 91 544 100 552 c 0
 108 559 118 563 129 563 c 0
 140 563 153 557 167 545 c 0
 181 533 201 514 228 488 c 0
 254 462 273 443 286 432 c 1
 296 441 314 458 342 486 c 0
 368 512 389 532 404 545 c 0
 418 558 431 564 442 564 c 0
 453 564 463 560 472 552 c 0
 480 545 484 535 484 523 c 0
 484 511 477 498 463 485 c 0
 449 472 428 453 400 430 c 0
 372 407 352 389 339 377 c 1
 350 366 371 348 400 324 c 0
 430 298 454 278 472 261 c 0
 483 250 488 240 488 228 c 0
 488 218 484 208 476 200 c 0
 468 192 458 188 446 188 c 0
 434 188 423 193 412 204 c 0
 377 239 335 279 286 322 c 0
EndSplineSet
Validated: 1
EndChar

StartChar: y
Encoding: 121 121 91
Width: 607
Flags: W
LayerCount: 2
Fore
SplineSet
347 303 m 1
 347 250 348 196 350 142 c 2
 352 61 l 2
 352 14 335 -10 301 -10 c 0
 267 -10 250 14 250 61 c 2
 252 144 l 2
 254 199 255 253 255 304 c 1
 122 532 52 655 43 673 c 0
 34 691 30 706 30 717 c 0
 30 728 34 738 42 747 c 0
 50 756 62 760 76 760 c 0
 92 760 104 753 115 738 c 0
 126 724 150 679 190 603 c 0
 228 527 267 460 306 401 c 1
 322 425 350 474 390 549 c 0
 431 624 454 666 460 678 c 0
 467 688 471 696 474 702 c 0
 477 706 480 713 486 721 c 0
 490 729 494 735 498 738 c 0
 500 742 504 746 508 750 c 0
 515 757 524 760 536 760 c 0
 548 760 558 756 566 748 c 0
 573 740 577 730 577 719 c 0
 577 708 572 693 562 674 c 0
 553 656 532 619 500 564 c 0
 467 509 446 473 437 458 c 0
 428 442 414 419 398 390 c 0
 380 360 364 331 347 303 c 1
EndSplineSet
Validated: 1
EndChar

StartChar: z
Encoding: 122 122 92
Width: 618
Flags: W
LayerCount: 2
Fore
SplineSet
120 755 m 2
 120 755 295 750 295 750 c 1
 295 750 498 755 498 755 c 2
 536 755 555 741 555 714 c 0
 555 697 548 677 534 653 c 0
 521 629 494 588 456 530 c 0
 416 473 382 419 351 368 c 2
 180 87 l 1
 218 84 260 82 308 82 c 0
 354 82 399 83 440 86 c 0
 481 88 508 89 520 89 c 0
 531 89 542 85 554 76 c 0
 564 68 570 57 570 42 c 0
 570 27 564 16 554 8 c 0
 542 -1 528 -5 510 -5 c 2
 510 -5 335 0 335 0 c 1
 335 0 106 -5 106 -5 c 2
 68 -5 49 9 49 38 c 0
 49 54 57 76 74 104 c 0
 90 131 119 176 160 238 c 0
 202 300 240 358 273 413 c 2
 425 664 l 1
 395 667 359 668 316 668 c 0
 273 668 231 667 190 664 c 0
 149 662 122 661 110 661 c 0
 99 661 88 665 76 674 c 0
 66 682 60 693 60 708 c 0
 60 723 66 734 76 742 c 0
 88 751 102 755 120 755 c 2
EndSplineSet
Validated: 1
EndChar

StartChar: braceleft
Encoding: 123 123 93
Width: 369
Flags: W
LayerCount: 2
Fore
SplineSet
308 -8 m 0
 317 -14 322 -25 322 -38 c 0
 322 -51 318 -62 310 -70 c 0
 302 -79 291 -83 277 -83 c 0
 238 -83 204 -72 176 -51 c 0
 146 -30 132 0 132 39 c 0
 132 57 134 85 140 122 c 0
 144 160 147 189 147 210 c 0
 147 272 140 309 125 322 c 1
 114 317 101 315 86 315 c 0
 72 315 59 320 47 330 c 0
 35 339 29 354 29 374 c 0
 29 394 35 409 48 418 c 0
 60 428 73 433 88 433 c 0
 102 433 115 431 126 426 c 1
 141 439 148 476 148 538 c 0
 148 559 146 588 140 628 c 0
 136 666 133 695 133 713 c 0
 133 752 148 782 176 803 c 0
 206 824 239 835 278 835 c 0
 292 835 303 831 311 822 c 0
 319 814 323 803 323 790 c 0
 323 777 318 766 308 760 c 0
 299 752 288 748 277 747 c 0
 266 746 255 742 246 734 c 0
 236 728 231 718 231 706 c 0
 231 693 233 669 238 634 c 0
 243 598 245 564 245 534 c 0
 245 502 242 476 238 454 c 0
 232 431 228 416 223 408 c 0
 218 400 210 389 199 376 c 1
 210 363 217 353 222 344 c 0
 237 318 244 273 244 210 c 0
 244 182 242 151 237 116 c 0
 232 82 230 59 230 46 c 0
 230 34 235 24 244 18 c 0
 254 10 265 6 276 5 c 0
 287 4 298 0 308 -8 c 0
EndSplineSet
Validated: 1
EndChar

StartChar: bar
Encoding: 124 124 94
Width: 279
Flags: W
LayerCount: 2
Fore
SplineSet
178 603 m 1
 183 499 l 2
 183 483 179 470 171 460 c 0
 163 451 152 446 138 446 c 0
 110 446 96 464 96 499 c 2
 100 603 l 1
 97 707 l 2
 97 742 111 760 138 760 c 0
 152 760 163 755 170 746 c 0
 178 736 182 723 182 707 c 2
 178 603 l 1
178 147 m 1
 183 43 l 2
 183 27 179 14 171 4 c 0
 163 -5 152 -10 138 -10 c 0
 110 -10 96 8 96 43 c 2
 100 147 l 1
 97 251 l 2
 97 286 111 304 138 304 c 0
 152 304 163 299 170 290 c 0
 178 280 182 267 182 251 c 2
 178 147 l 1
EndSplineSet
Validated: 1
EndChar

StartChar: braceright
Encoding: 125 125 95
Width: 369
Flags: W
LayerCount: 2
Fore
SplineSet
180 376 m 1
 169 389 161 400 156 408 c 0
 151 416 146 431 142 454 c 0
 136 476 134 502 134 534 c 0
 134 564 136 598 141 634 c 0
 146 669 148 693 148 706 c 0
 148 718 143 728 134 734 c 0
 124 742 113 746 102 747 c 0
 91 748 80 752 70 760 c 0
 61 766 56 777 56 790 c 0
 56 803 60 814 68 822 c 0
 76 831 87 835 101 835 c 0
 137 835 168 824 196 803 c 0
 222 782 236 752 236 713 c 0
 236 695 234 666 228 628 c 0
 224 588 221 559 221 538 c 0
 221 476 228 439 243 426 c 1
 254 431 267 433 282 433 c 0
 296 433 309 428 322 418 c 0
 334 409 340 394 340 374 c 0
 340 354 334 339 322 330 c 0
 310 320 297 315 283 315 c 0
 269 315 256 317 244 322 c 1
 229 309 222 272 222 210 c 0
 222 189 224 160 230 122 c 0
 234 85 237 57 237 39 c 0
 237 0 224 -30 196 -51 c 0
 170 -72 138 -83 102 -83 c 0
 88 -83 77 -79 69 -70 c 0
 61 -62 57 -51 57 -38 c 0
 57 -25 62 -14 72 -8 c 0
 81 0 92 4 103 5 c 0
 114 6 125 10 134 18 c 0
 144 24 149 34 149 46 c 0
 149 59 147 82 142 116 c 0
 137 151 135 184 135 214 c 0
 135 246 137 272 142 296 c 0
 147 318 152 334 156 344 c 0
 162 352 169 363 180 376 c 1
EndSplineSet
Validated: 1
EndChar

StartChar: asciitilde
Encoding: 126 126 96
Width: 622
Flags: W
LayerCount: 2
Fore
SplineSet
549 404 m 0
 549 385 535 364 507 344 c 0
 479 322 450 312 422 312 c 0
 392 312 359 321 322 340 c 0
 285 359 257 368 240 368 c 0
 223 368 203 358 180 338 c 0
 157 319 138 309 122 309 c 0
 106 309 94 313 86 320 c 0
 78 327 74 337 74 349 c 0
 74 371 90 392 122 413 c 0
 154 434 188 444 225 444 c 0
 262 444 299 434 337 416 c 0
 375 396 402 387 420 387 c 0
 436 387 454 395 472 412 c 0
 489 428 504 436 514 436 c 0
 526 436 534 433 540 426 c 0
 546 420 549 413 549 404 c 0
EndSplineSet
Validated: 1
EndChar

StartChar: exclamdown
Encoding: 161 161 98
Width: 267
Flags: W
LayerCount: 2
Fore
SplineSet
174 672 m 0
 184 659 188 645 188 628 c 0
 188 611 182 596 172 583 c 0
 160 570 147 563 130 563 c 0
 113 563 101 569 92 580 c 0
 83 591 79 606 79 622 c 0
 79 640 85 655 96 669 c 0
 107 683 121 690 137 690 c 0
 153 690 166 684 174 672 c 0
177 208 m 1
 185 -20 l 2
 185 -40 180 -56 172 -68 c 0
 162 -79 150 -85 134 -85 c 0
 118 -85 106 -79 96 -68 c 0
 88 -56 83 -40 83 -20 c 2
 90 208 l 1
 89 409 l 2
 89 426 93 440 101 450 c 0
 109 460 120 465 134 465 c 0
 148 465 159 460 167 450 c 0
 175 440 179 426 179 409 c 2
 177 208 l 1
EndSplineSet
Validated: 1
EndChar

StartChar: cent
Encoding: 162 162 99
Width: 728
Flags: W
LayerCount: 2
Fore
SplineSet
665 112 m 0
 665 92 645 68 604 40 c 0
 564 13 517 -4 462 -11 c 1
 462 -58 447 -82 416 -82 c 0
 385 -82 370 -57 370 -7 c 1
 282 6 210 46 155 114 c 0
 100 181 72 261 72 352 c 0
 72 444 99 523 154 590 c 0
 209 657 280 698 369 713 c 1
 369 762 384 787 415 787 c 0
 446 787 461 763 461 716 c 1
 515 713 560 701 598 682 c 0
 634 662 653 640 653 615 c 0
 653 603 649 593 641 586 c 0
 633 579 622 575 608 575 c 0
 595 575 574 584 544 602 c 0
 516 619 487 630 459 635 c 1
 456 550 455 456 455 354 c 0
 455 251 456 157 459 72 c 1
 506 78 550 97 592 130 c 0
 606 140 618 145 628 145 c 0
 653 145 665 134 665 112 c 0
372 74 m 1
 374 202 375 284 375 322 c 0
 375 358 374 462 371 633 c 1
 311 621 262 588 224 534 c 0
 186 481 167 421 167 354 c 0
 167 288 186 228 224 174 c 0
 263 119 312 86 372 74 c 1
EndSplineSet
Validated: 1
EndChar

StartChar: sterling
Encoding: 163 163 100
Width: 583
Flags: W
LayerCount: 2
Fore
SplineSet
395 310 m 2
 252 313 l 1
 256 254 253 210 242 180 c 0
 231 149 217 118 200 86 c 1
 223 83 252 82 287 82 c 0
 322 82 357 83 394 86 c 0
 431 88 455 89 466 89 c 0
 477 89 488 85 500 76 c 0
 510 68 516 57 516 42 c 0
 516 27 510 16 500 8 c 0
 488 -1 474 -5 456 -5 c 2
 456 -5 301 0 301 0 c 1
 301 0 147 -5 147 -5 c 2
 128 -5 114 0 102 10 c 0
 92 20 86 34 86 53 c 0
 86 72 92 91 104 112 c 0
 117 133 129 156 142 182 c 0
 155 208 161 233 162 258 c 0
 162 282 162 300 161 311 c 1
 156 310 145 310 130 310 c 0
 93 310 75 324 75 350 c 0
 75 378 93 391 128 391 c 0
 131 391 134 391 139 390 c 0
 144 390 147 390 149 390 c 1
 147 401 143 416 138 437 c 0
 127 482 122 518 122 544 c 0
 122 592 140 632 174 664 c 0
 210 697 258 713 319 713 c 0
 358 713 397 703 434 683 c 0
 471 663 490 642 490 621 c 0
 490 610 487 600 480 590 c 0
 473 582 463 577 450 577 c 0
 437 577 417 585 392 602 c 0
 367 618 340 626 312 626 c 0
 283 626 260 618 244 603 c 0
 226 588 218 568 218 544 c 0
 218 520 226 468 241 388 c 1
 395 391 l 2
 410 391 422 387 432 380 c 0
 441 373 446 363 446 351 c 0
 446 339 441 329 432 322 c 0
 422 314 410 310 395 310 c 2
EndSplineSet
Validated: 33
EndChar

StartChar: currency
Encoding: 164 164 101
Width: 701
Flags: W
LayerCount: 2
Fore
SplineSet
487 189 m 1
 450 161 405 147 350 147 c 0
 295 147 250 161 213 189 c 1
 208 183 201 176 194 168 c 0
 186 160 180 154 178 151 c 0
 174 148 170 144 166 138 c 0
 160 134 157 130 154 128 c 0
 152 127 149 125 146 124 c 0
 139 121 131 119 120 119 c 0
 110 119 100 123 91 132 c 0
 82 141 77 151 77 162 c 0
 77 173 81 184 89 194 c 0
 97 203 119 224 156 256 c 1
 137 291 128 330 128 371 c 0
 128 412 138 451 157 488 c 1
 120 520 98 541 90 550 c 0
 82 560 78 571 78 582 c 0
 78 593 83 603 92 612 c 0
 101 621 110 625 118 625 c 0
 127 625 133 625 136 624 c 0
 139 623 143 622 146 620 c 0
 150 619 153 617 156 616 c 0
 158 614 162 610 166 606 c 0
 172 600 176 596 178 593 c 0
 182 590 187 584 194 576 c 0
 202 568 209 561 214 555 c 1
 250 582 295 596 350 596 c 0
 405 596 450 582 486 555 c 1
 521 592 543 613 550 618 c 0
 557 623 566 625 578 625 c 0
 588 625 599 621 608 612 c 0
 617 603 622 593 622 582 c 0
 622 571 618 560 610 550 c 0
 602 541 580 520 543 488 c 1
 562 451 572 412 572 370 c 0
 572 327 563 289 544 256 c 1
 581 224 603 203 611 194 c 0
 619 184 623 173 623 162 c 0
 623 151 618 141 610 132 c 0
 600 123 592 119 585 119 c 0
 578 119 573 119 570 120 c 0
 567 120 564 120 562 122 c 0
 558 122 556 124 554 124 c 0
 552 126 549 127 546 130 c 0
 543 133 540 135 538 137 c 0
 536 139 533 142 528 146 c 0
 523 151 520 154 516 158 c 0
 514 160 509 165 503 172 c 0
 497 179 492 184 487 189 c 1
446 475 m 0
 418 504 387 518 350 518 c 0
 313 518 282 504 254 475 c 0
 228 446 214 412 214 372 c 0
 214 332 227 298 254 269 c 0
 281 240 313 226 350 226 c 0
 387 226 419 240 446 269 c 0
 473 298 486 332 486 372 c 0
 486 412 472 446 446 475 c 0
EndSplineSet
Validated: 1
EndChar

StartChar: yen
Encoding: 165 165 102
Width: 646
Flags: W
LayerCount: 2
Fore
SplineSet
373 151 m 1
 375 48 l 2
 375 31 370 17 361 6 c 0
 352 -5 340 -10 324 -10 c 0
 310 -10 297 -5 288 6 c 0
 278 17 273 28 273 42 c 0
 273 54 274 91 277 151 c 1
 224 150 178 149 139 149 c 0
 124 149 112 153 104 160 c 0
 94 167 90 177 90 189 c 0
 90 201 94 211 104 218 c 0
 112 225 124 229 139 229 c 2
 279 226 l 1
 279 294 l 1
 139 292 l 2
 124 292 112 296 104 303 c 0
 94 310 90 320 90 332 c 0
 90 344 94 354 104 361 c 0
 112 368 124 372 138 372 c 0
 151 372 168 372 190 372 c 0
 210 371 225 371 234 371 c 1
 195 438 169 481 156 501 c 0
 144 521 134 538 124 554 c 0
 116 568 108 580 103 589 c 0
 98 598 93 606 88 614 c 0
 83 623 80 629 78 634 c 0
 75 638 73 642 72 647 c 0
 69 654 68 662 68 671 c 0
 68 680 73 690 82 699 c 0
 92 708 104 713 119 713 c 0
 127 713 133 712 138 708 c 0
 142 706 145 703 148 701 c 0
 151 699 154 696 157 691 c 0
 160 686 163 682 165 680 c 0
 167 676 170 672 174 665 c 0
 178 658 181 653 184 649 c 0
 186 645 189 638 194 630 c 0
 199 620 217 587 250 528 c 0
 282 470 309 425 330 394 c 1
 344 415 365 452 394 504 c 0
 422 557 439 588 444 598 c 0
 450 607 455 616 460 624 c 0
 465 633 468 639 470 644 c 0
 473 649 476 654 480 661 c 0
 484 668 487 673 490 676 c 0
 493 680 496 684 499 689 c 0
 502 694 505 697 508 700 c 0
 511 702 514 704 517 706 c 0
 523 711 532 713 542 713 c 0
 554 713 563 709 572 700 c 0
 581 691 585 682 585 672 c 0
 585 661 581 648 572 632 c 0
 564 616 512 529 417 371 c 1
 517 372 l 2
 532 372 544 368 552 361 c 0
 562 354 566 344 566 332 c 0
 566 320 562 310 552 303 c 0
 544 296 532 292 517 292 c 2
 371 294 l 1
 371 226 l 1
 517 229 l 2
 532 229 544 225 552 218 c 0
 562 211 566 201 566 189 c 0
 566 177 562 167 552 160 c 0
 544 153 532 149 517 149 c 0
 477 149 429 150 373 151 c 1
EndSplineSet
Validated: 1
EndChar

StartChar: brokenbar
Encoding: 166 166 103
Width: 279
Flags: W
LayerCount: 2
Fore
SplineSet
178 603 m 1
 183 499 l 2
 183 483 179 470 171 460 c 0
 163 451 152 446 138 446 c 0
 110 446 96 464 96 499 c 2
 100 603 l 1
 97 707 l 2
 97 742 111 760 138 760 c 0
 152 760 163 755 170 746 c 0
 178 736 182 723 182 707 c 2
 178 603 l 1
178 147 m 1
 183 43 l 2
 183 27 179 14 171 4 c 0
 163 -5 152 -10 138 -10 c 0
 110 -10 96 8 96 43 c 2
 100 147 l 1
 97 251 l 2
 97 286 111 304 138 304 c 0
 152 304 163 299 170 290 c 0
 178 280 182 267 182 251 c 2
 178 147 l 1
EndSplineSet
Validated: 1
EndChar

StartChar: section
Encoding: 167 167 104
Width: 586
Flags: W
LayerCount: 2
Fore
SplineSet
488 408 m 0
 509 383 520 357 520 329 c 0
 520 301 511 275 494 250 c 0
 477 226 454 206 426 191 c 1
 465 163 485 127 485 83 c 0
 485 39 465 0 426 -34 c 0
 387 -68 335 -85 272 -85 c 0
 225 -85 180 -73 136 -48 c 0
 91 -23 69 1 69 26 c 0
 69 37 73 46 80 53 c 0
 87 60 97 63 108 63 c 0
 119 63 132 58 146 48 c 0
 187 17 227 2 266 2 c 0
 305 2 335 10 357 25 c 0
 379 40 390 59 390 81 c 0
 390 103 379 122 358 140 c 0
 337 156 311 172 280 187 c 0
 250 202 220 217 190 234 c 0
 159 250 133 270 112 294 c 0
 91 317 80 344 80 373 c 0
 80 402 91 428 114 451 c 0
 137 474 167 490 204 499 c 1
 145 540 115 581 115 620 c 0
 115 660 134 694 170 722 c 0
 208 751 251 765 302 765 c 0
 352 765 394 756 429 738 c 0
 464 720 481 699 481 675 c 0
 481 665 478 657 470 650 c 0
 464 643 455 640 444 640 c 0
 434 640 417 646 392 659 c 0
 367 672 341 678 312 678 c 0
 283 678 259 673 240 662 c 0
 220 651 210 637 210 619 c 0
 210 601 221 583 242 566 c 0
 263 548 289 532 320 516 c 0
 350 502 380 486 410 469 c 0
 441 452 467 432 488 408 c 0
405 276 m 0
 421 291 429 309 429 330 c 0
 429 350 411 372 376 394 c 0
 341 418 308 429 277 429 c 0
 246 429 221 424 201 414 c 0
 181 404 171 391 171 374 c 0
 171 358 183 341 206 324 c 0
 230 306 275 279 340 243 c 1
 367 250 389 261 405 276 c 0
EndSplineSet
Validated: 1
EndChar

StartChar: dieresis
Encoding: 168 168 105
Width: 476
Flags: W
LayerCount: 2
Fore
SplineSet
378 690 m 0
 386 679 391 664 391 646 c 0
 391 629 385 613 374 599 c 0
 363 585 349 578 332 578 c 0
 316 578 303 584 294 596 c 0
 285 608 280 623 280 640 c 0
 280 657 286 673 296 686 c 0
 308 700 322 707 338 707 c 0
 356 707 368 701 378 690 c 0
182 690 m 0
 192 679 196 664 196 646 c 0
 196 629 190 613 179 599 c 0
 168 585 154 578 138 578 c 0
 121 578 108 584 99 596 c 0
 90 608 85 623 85 640 c 0
 85 657 90 673 102 686 c 0
 112 700 126 707 144 707 c 0
 160 707 174 701 182 690 c 0
EndSplineSet
Validated: 1
EndChar

StartChar: copyright
Encoding: 169 169 106
Width: 787
Flags: W
LayerCount: 2
Fore
SplineSet
398 644 m 0
 428 644 455 638 480 626 c 0
 505 613 517 599 517 583 c 0
 517 560 505 548 481 548 c 0
 472 548 461 552 450 560 c 0
 433 570 417 575 403 575 c 0
 368 575 342 562 322 537 c 0
 304 512 294 482 294 448 c 0
 294 413 304 384 326 359 c 0
 346 334 372 322 403 322 c 0
 423 322 441 326 458 334 c 0
 474 343 486 347 494 347 c 0
 515 347 525 337 525 316 c 0
 525 305 513 291 488 276 c 0
 463 261 433 253 398 253 c 0
 347 253 303 272 268 311 c 0
 233 350 215 396 215 450 c 0
 215 503 232 549 266 587 c 0
 301 625 345 644 398 644 c 0
707 449 m 0
 707 362 676 287 615 226 c 0
 554 164 480 133 393 133 c 0
 306 133 232 164 171 226 c 0
 110 287 79 362 79 449 c 0
 79 536 110 611 171 672 c 0
 232 734 306 765 393 765 c 0
 480 765 554 734 615 672 c 0
 676 611 707 536 707 449 c 0
560 276 m 0
 606 323 629 381 629 450 c 0
 629 518 606 576 560 623 c 0
 513 670 458 694 392 694 c 0
 328 694 272 670 226 623 c 0
 180 576 157 518 157 450 c 0
 157 381 180 323 226 276 c 0
 272 228 328 204 392 204 c 0
 458 204 513 228 560 276 c 0
EndSplineSet
Validated: 1
EndChar

StartChar: ordfeminine
Encoding: 170 170 107
Width: 450
Flags: W
LayerCount: 2
Fore
SplineSet
344 593 m 1
 344 544 350 515 363 506 c 0
 365 505 368 504 372 503 c 0
 382 502 387 497 387 490 c 0
 387 474 382 461 372 452 c 0
 362 442 350 437 336 437 c 0
 308 437 290 455 282 492 c 1
 258 455 226 437 186 437 c 0
 146 437 115 453 94 485 c 0
 73 517 62 554 62 596 c 0
 62 639 76 677 104 710 c 0
 132 744 167 761 209 761 c 0
 234 761 257 754 276 739 c 1
 284 754 297 761 314 761 c 0
 342 761 356 740 356 698 c 0
 356 687 352 652 344 593 c 1
274 600 m 1
 272 666 l 1
 253 683 233 692 212 692 c 0
 191 692 174 682 160 664 c 0
 145 644 138 622 138 595 c 0
 138 568 142 546 151 530 c 0
 160 512 172 504 188 504 c 0
 204 504 220 514 238 533 c 0
 254 552 267 575 274 600 c 1
EndSplineSet
Validated: 1
EndChar

StartChar: guillemotleft
Encoding: 171 171 108
Width: 605
Flags: W
LayerCount: 2
Fore
SplineSet
150 376 m 0
 150 371 169 354 207 327 c 0
 212 323 221 317 233 310 c 0
 245 302 254 296 260 291 c 0
 279 278 288 265 288 253 c 0
 288 241 284 231 276 224 c 0
 268 216 258 212 246 212 c 0
 235 212 224 215 216 220 c 0
 206 225 196 234 184 245 c 0
 172 256 154 272 128 292 c 0
 104 313 86 329 75 341 c 0
 64 353 59 365 59 376 c 0
 59 387 64 399 75 411 c 0
 86 423 104 439 128 460 c 0
 154 480 171 494 180 504 c 0
 190 512 198 519 203 524 c 0
 216 535 230 540 244 540 c 0
 257 540 268 536 276 528 c 0
 284 521 288 512 288 502 c 0
 288 491 284 482 278 475 c 0
 270 468 258 458 239 446 c 0
 220 434 210 427 207 425 c 0
 169 398 150 381 150 376 c 0
390 376 m 0
 390 371 409 354 447 327 c 0
 452 323 461 317 473 310 c 0
 485 302 494 296 500 291 c 0
 519 278 528 265 528 253 c 0
 528 241 524 231 516 224 c 0
 508 216 498 212 486 212 c 0
 475 212 464 215 456 220 c 0
 446 225 436 234 424 245 c 0
 412 256 394 272 368 292 c 0
 344 313 326 329 315 341 c 0
 304 353 299 365 299 376 c 0
 299 387 304 399 315 411 c 0
 326 423 344 439 368 460 c 0
 394 480 411 494 420 504 c 0
 430 512 438 519 443 524 c 0
 456 535 470 540 484 540 c 0
 497 540 508 536 516 528 c 0
 524 521 528 512 528 502 c 0
 528 491 524 482 518 475 c 0
 510 468 498 458 479 446 c 0
 460 434 450 427 447 425 c 0
 409 398 390 381 390 376 c 0
EndSplineSet
Validated: 1
EndChar

StartChar: logicalnot
Encoding: 172 172 109
Width: 704
Flags: W
LayerCount: 2
Fore
SplineSet
611 365 m 2
 611 365 609 305 609 305 c 1
 609 305 611 237 611 237 c 2
 611 222 607 211 599 202 c 0
 591 193 580 189 568 189 c 0
 554 189 544 193 536 202 c 0
 528 211 524 222 524 237 c 2
 527 334 l 1
 468 335 409 336 349 336 c 2
 143 333 l 2
 128 333 116 337 107 345 c 0
 98 353 93 363 93 375 c 0
 93 387 98 397 107 405 c 0
 116 413 128 417 143 417 c 2
 143 417 349 414 349 414 c 1
 349 414 560 417 560 417 c 2
 572 417 584 413 594 406 c 0
 606 398 611 384 611 365 c 2
EndSplineSet
Validated: 1
EndChar

StartChar: uni00AD
Encoding: 173 173 110
Width: 438
Flags: W
LayerCount: 2
Fore
SplineSet
317 219 m 2
 317 219 218 222 218 222 c 1
 218 222 119 219 119 219 c 2
 104 219 92 223 84 231 c 0
 74 239 70 249 70 261 c 0
 70 273 74 283 84 291 c 0
 92 299 104 303 119 303 c 2
 218 300 l 1
 317 303 l 2
 332 303 344 299 352 291 c 0
 362 283 366 273 366 261 c 0
 366 249 362 239 352 231 c 0
 344 223 332 219 317 219 c 2
EndSplineSet
Validated: 1
EndChar

StartChar: registered
Encoding: 174 174 111
Width: 786
Flags: W
LayerCount: 2
Fore
SplineSet
261 461 m 1
 256 594 l 2
 256 629 299 647 385 647 c 0
 435 647 473 635 498 610 c 0
 524 585 537 557 537 526 c 0
 537 478 512 441 461 416 c 1
 466 408 471 399 478 388 c 0
 484 377 489 369 492 364 c 0
 495 358 499 352 504 346 c 0
 511 335 521 330 534 330 c 0
 546 330 552 325 552 316 c 0
 552 302 547 290 537 280 c 0
 527 269 516 264 504 264 c 0
 493 264 483 266 476 270 c 0
 469 273 461 280 454 289 c 0
 443 304 430 324 417 350 c 0
 404 375 395 391 391 398 c 1
 375 396 362 395 353 395 c 0
 344 395 337 395 334 396 c 2
 336 308 l 2
 336 295 332 285 325 276 c 0
 318 267 308 263 296 263 c 0
 270 263 257 278 257 308 c 2
 261 461 l 1
448 488 m 0
 456 499 461 511 461 526 c 0
 461 540 455 552 444 563 c 0
 432 574 415 579 392 579 c 0
 369 579 350 577 334 572 c 1
 334 563 334 548 332 527 c 0
 332 506 331 490 331 477 c 1
 342 480 354 481 366 481 c 0
 380 481 397 477 419 470 c 0
 429 471 438 477 448 488 c 0
707 449 m 0
 707 362 676 287 615 226 c 0
 554 164 480 133 393 133 c 0
 306 133 232 164 171 226 c 0
 110 287 79 362 79 449 c 0
 79 536 110 611 171 672 c 0
 232 734 306 765 393 765 c 0
 480 765 554 734 615 672 c 0
 676 611 707 536 707 449 c 0
560 276 m 0
 606 323 629 381 629 450 c 0
 629 518 606 576 560 623 c 0
 513 670 458 694 392 694 c 0
 328 694 272 670 226 623 c 0
 180 576 157 518 157 450 c 0
 157 381 180 323 226 276 c 0
 272 228 328 204 392 204 c 0
 458 204 513 228 560 276 c 0
EndSplineSet
Validated: 1
EndChar

StartChar: macron
Encoding: 175 175 112
Width: 496
Flags: W
LayerCount: 2
Fore
SplineSet
248 630 m 1
 114 627 l 2
 100 627 88 631 79 639 c 0
 70 647 65 657 65 669 c 0
 65 681 70 691 78 699 c 0
 88 707 99 711 114 711 c 2
 114 711 248 708 248 708 c 1
 248 708 382 711 382 711 c 2
 396 711 408 707 417 699 c 0
 426 691 431 681 431 669 c 0
 431 657 426 647 418 639 c 0
 408 631 397 627 382 627 c 2
 248 630 l 1
EndSplineSet
Validated: 1
EndChar

StartChar: degree
Encoding: 176 176 113
Width: 402
Flags: W
LayerCount: 2
Fore
SplineSet
300 720 m 0
 325 690 338 655 338 614 c 0
 338 572 325 536 300 508 c 0
 275 478 242 464 201 464 c 0
 160 464 127 478 102 507 c 0
 77 536 64 571 64 613 c 0
 64 655 77 690 102 720 c 0
 127 748 160 763 201 763 c 0
 242 763 275 748 300 720 c 0
260 613 m 0
 260 636 255 656 244 671 c 0
 234 686 220 694 201 694 c 0
 182 694 168 686 157 671 c 0
 146 656 141 636 141 614 c 0
 141 590 146 571 157 556 c 0
 168 541 182 533 201 533 c 0
 220 533 234 540 244 556 c 0
 255 570 260 590 260 613 c 0
EndSplineSet
Validated: 1
EndChar

StartChar: plusminus
Encoding: 177 177 114
Width: 645
Flags: W
LayerCount: 2
Fore
SplineSet
132 502 m 2
 284 499 l 1
 284 538 283 567 282 586 c 0
 281 605 280 616 280 617 c 0
 280 632 284 644 292 653 c 0
 299 662 309 666 322 666 c 0
 335 666 345 662 353 652 c 0
 361 644 365 631 365 616 c 0
 365 615 365 609 364 600 c 0
 362 571 361 537 361 498 c 1
 513 501 l 2
 528 501 540 497 549 489 c 0
 558 481 563 471 563 459 c 0
 563 447 558 437 549 429 c 0
 540 421 528 417 513 417 c 2
 361 420 l 1
 365 289 l 2
 365 274 361 261 354 252 c 0
 346 243 336 238 322 238 c 0
 310 238 299 243 292 252 c 0
 284 262 280 275 280 290 c 2
 284 421 l 1
 132 418 l 2
 117 418 105 422 96 430 c 0
 87 438 82 448 82 460 c 0
 82 472 87 482 96 490 c 0
 105 498 117 502 132 502 c 2
511 88 m 2
 511 88 321 91 321 91 c 1
 321 91 131 88 131 88 c 2
 116 88 104 92 96 100 c 0
 86 108 82 118 82 130 c 0
 82 142 86 152 96 160 c 0
 104 168 116 172 131 172 c 2
 131 172 321 169 321 169 c 1
 321 169 511 172 511 172 c 2
 526 172 538 168 546 160 c 0
 556 152 560 142 560 130 c 0
 560 118 556 108 546 100 c 0
 538 92 526 88 511 88 c 2
EndSplineSet
Validated: 1
EndChar

StartChar: uni00B2
Encoding: 178 178 115
Width: 435
Flags: W
LayerCount: 2
Fore
SplineSet
322 332 m 2
 322 332 213 336 213 336 c 1
 213 336 113 332 113 332 c 2
 100 332 89 336 79 343 c 0
 69 350 64 360 64 373 c 0
 64 386 69 399 80 412 c 0
 90 426 106 445 130 470 c 0
 152 494 168 511 176 522 c 0
 185 532 193 542 202 552 c 0
 211 562 218 571 224 578 c 0
 229 585 236 594 243 604 c 0
 258 624 265 640 265 652 c 0
 265 663 260 673 250 681 c 0
 241 689 229 693 214 693 c 0
 200 693 183 686 164 671 c 0
 144 656 128 649 115 649 c 0
 102 649 93 652 86 659 c 0
 80 666 77 676 77 689 c 0
 77 702 90 718 116 737 c 0
 143 756 176 765 216 765 c 0
 256 765 288 754 312 733 c 0
 335 712 347 687 347 660 c 0
 347 635 337 609 318 580 c 0
 305 560 293 544 284 532 c 0
 275 521 266 509 258 498 c 0
 249 487 223 456 179 405 c 1
 224 405 258 406 281 407 c 0
 304 408 318 409 322 409 c 0
 355 409 372 396 372 370 c 0
 372 345 355 332 322 332 c 2
EndSplineSet
Validated: 1
EndChar

StartChar: uni00B3
Encoding: 179 179 116
Width: 431
Flags: W
LayerCount: 2
Fore
SplineSet
119 753 m 2
 119 753 207 750 207 750 c 1
 207 750 288 753 288 753 c 2
 309 753 324 749 334 740 c 0
 345 731 350 722 350 710 c 0
 350 700 347 690 340 683 c 0
 334 676 322 664 305 648 c 0
 288 633 272 616 257 598 c 1
 293 589 321 572 340 548 c 0
 360 523 370 494 370 459 c 0
 370 424 355 392 326 363 c 0
 296 334 256 319 207 319 c 0
 170 319 137 330 108 350 c 0
 78 372 63 390 63 407 c 0
 63 430 74 442 96 442 c 0
 108 442 124 434 144 418 c 0
 165 401 187 393 211 393 c 0
 235 393 254 400 268 412 c 0
 283 426 290 443 290 464 c 0
 290 485 282 503 267 518 c 0
 252 532 232 540 209 543 c 1
 184 522 162 511 141 511 c 0
 111 511 96 525 96 552 c 0
 96 562 102 572 113 582 c 0
 124 592 141 599 163 604 c 1
 204 641 230 666 242 679 c 1
 234 680 219 680 197 680 c 2
 119 677 l 2
 105 677 94 680 84 686 c 0
 76 693 71 702 71 714 c 0
 71 725 75 735 84 742 c 0
 93 749 104 753 119 753 c 2
EndSplineSet
Validated: 1
EndChar

StartChar: acute
Encoding: 180 180 117
Width: 330
Flags: W
LayerCount: 2
Fore
SplineSet
245 696 m 0
 245 667 229 637 198 608 c 0
 166 578 139 563 118 563 c 0
 107 563 99 566 94 571 c 0
 88 576 85 583 85 591 c 0
 85 599 93 613 109 632 c 0
 125 652 136 669 142 682 c 0
 148 695 153 705 156 712 c 0
 160 718 166 724 174 730 c 0
 183 737 193 740 204 740 c 0
 216 740 226 736 234 726 c 0
 241 718 245 707 245 696 c 0
EndSplineSet
Validated: 1
EndChar

StartChar: mu
Encoding: 181 181 118
Width: 871
Flags: W
LayerCount: 2
Fore
SplineSet
595 360 m 1
 591 688 l 2
 591 734 608 757 642 757 c 0
 683 757 704 723 704 655 c 0
 704 587 695 489 677 360 c 1
 677 287 682 224 692 174 c 0
 701 122 713 94 727 88 c 0
 732 85 739 84 746 82 c 0
 754 82 760 80 763 78 c 0
 766 76 768 72 768 67 c 0
 768 42 761 22 746 8 c 0
 731 -8 713 -15 690 -15 c 0
 661 -15 639 2 625 35 c 0
 611 68 604 111 604 164 c 1
 591 139 580 120 571 107 c 0
 562 94 548 76 529 53 c 0
 490 8 441 -15 380 -15 c 0
 357 -15 329 -9 298 4 c 0
 267 16 242 32 223 51 c 1
 224 11 225 -10 225 -12 c 0
 225 -59 208 -83 174 -83 c 0
 140 -83 123 -59 123 -12 c 0
 123 -5 123 16 124 52 c 0
 127 136 128 224 128 318 c 0
 128 410 128 480 126 528 c 0
 126 574 124 612 124 640 c 0
 122 669 122 686 122 691 c 0
 122 738 139 762 173 762 c 0
 207 762 224 738 224 691 c 0
 224 687 223 669 222 638 c 0
 219 545 218 435 218 307 c 0
 218 243 236 188 272 142 c 0
 307 95 346 72 388 72 c 0
 431 72 472 101 510 159 c 0
 550 217 578 284 595 360 c 1
EndSplineSet
Validated: 1
EndChar

StartChar: paragraph
Encoding: 182 182 119
Width: 662
Flags: W
LayerCount: 2
Fore
SplineSet
307 753 m 2
 307 753 405 750 405 750 c 1
 405 750 489 753 489 753 c 2
 506 753 520 748 530 738 c 0
 540 727 545 716 545 704 c 0
 545 692 545 665 544 622 c 0
 541 523 540 423 540 324 c 0
 540 225 541 142 543 76 c 0
 545 9 546 -25 546 -27 c 0
 545 -66 528 -85 498 -85 c 0
 466 -85 451 -66 451 -27 c 0
 451 -22 451 -4 452 25 c 0
 455 113 457 193 457 266 c 2
 452 676 l 1
 357 676 l 1
 352 266 l 2
 352 205 353 142 355 76 c 0
 357 9 358 -25 358 -27 c 0
 358 -65 342 -84 310 -84 c 0
 279 -84 263 -65 263 -27 c 0
 263 -22 263 -5 264 26 c 0
 267 118 269 216 269 319 c 1
 206 322 156 344 117 382 c 0
 78 422 59 469 59 526 c 0
 59 597 81 652 125 692 c 0
 169 731 230 752 307 753 c 2
EndSplineSet
Validated: 1
EndChar

StartChar: periodcentered
Encoding: 183 183 120
Width: 269
Flags: W
LayerCount: 2
Fore
SplineSet
176 427 m 0
 186 416 190 401 190 384 c 0
 190 367 184 351 173 336 c 0
 162 322 148 315 132 315 c 0
 115 315 102 321 93 333 c 0
 84 345 79 360 79 377 c 0
 79 394 84 410 96 424 c 0
 106 437 120 444 138 444 c 0
 154 444 168 438 176 427 c 0
EndSplineSet
Validated: 1
EndChar

StartChar: cedilla
Encoding: 184 184 121
Width: 341
Flags: W
LayerCount: 2
Fore
SplineSet
281 -133 m 0
 281 -161 268 -184 244 -202 c 0
 218 -221 189 -230 154 -230 c 0
 119 -230 92 -222 70 -206 c 0
 50 -189 39 -172 39 -155 c 0
 39 -149 42 -143 46 -138 c 0
 52 -133 58 -130 66 -130 c 0
 73 -130 86 -134 102 -142 c 0
 120 -150 134 -154 147 -154 c 0
 160 -154 170 -152 178 -147 c 0
 186 -142 190 -137 190 -130 c 0
 190 -124 185 -118 176 -110 c 0
 166 -104 155 -97 144 -90 c 0
 132 -83 121 -74 112 -62 c 0
 102 -51 97 -38 97 -24 c 2
 97 19 l 1
 178 19 l 1
 178 -9 l 2
 178 -19 183 -29 194 -39 c 0
 205 -49 216 -58 230 -64 c 0
 242 -72 254 -81 265 -93 c 0
 276 -105 281 -118 281 -133 c 0
EndSplineSet
Validated: 1
EndChar

StartChar: uni00B9
Encoding: 185 185 122
Width: 350
Flags: W
LayerCount: 2
Fore
SplineSet
267 703 m 2
 267 703 264 544 264 544 c 1
 264 544 267 377 267 377 c 2
 267 363 263 352 256 344 c 0
 249 335 239 331 226 331 c 0
 213 331 203 335 196 344 c 0
 189 352 185 363 185 377 c 2
 188 544 l 1
 188 636 l 1
 181 629 172 620 162 612 c 0
 153 602 146 596 140 590 c 0
 136 586 130 580 123 574 c 0
 116 568 111 564 108 561 c 0
 104 558 100 555 96 552 c 0
 89 547 81 545 72 545 c 0
 63 545 56 548 49 554 c 0
 42 560 39 567 39 574 c 0
 39 582 40 588 41 592 c 0
 42 597 45 602 50 608 c 0
 55 613 59 618 64 624 c 0
 69 628 77 637 88 648 c 0
 99 660 116 678 137 700 c 0
 158 724 174 739 184 748 c 0
 195 756 208 760 223 760 c 0
 252 760 267 741 267 703 c 2
EndSplineSet
Validated: 1
EndChar

StartChar: ordmasculine
Encoding: 186 186 123
Width: 425
Flags: W
LayerCount: 2
Fore
SplineSet
320 718 m 0
 348 687 362 647 362 600 c 0
 362 552 348 513 320 482 c 0
 293 452 257 437 212 437 c 0
 167 437 131 452 104 482 c 0
 77 513 63 552 63 599 c 0
 63 646 77 686 104 718 c 0
 132 749 168 765 212 765 c 0
 256 765 292 749 320 718 c 0
266 532 m 0
 279 548 285 571 285 600 c 0
 285 628 278 651 266 669 c 0
 252 687 235 696 212 696 c 0
 190 696 172 687 160 669 c 0
 146 651 140 628 140 600 c 0
 140 571 146 548 159 532 c 0
 172 514 190 506 212 506 c 0
 236 506 253 514 266 532 c 0
EndSplineSet
Validated: 1
EndChar

StartChar: guillemotright
Encoding: 187 187 124
Width: 604
Flags: W
LayerCount: 2
Fore
SplineSet
546 376 m 0
 546 365 541 353 530 341 c 0
 519 329 502 313 476 292 c 0
 452 272 434 258 424 248 c 0
 415 240 407 233 402 228 c 0
 389 217 375 212 362 212 c 0
 348 212 337 216 329 224 c 0
 321 231 317 240 317 250 c 0
 317 261 320 270 328 277 c 0
 334 284 347 294 366 306 c 0
 385 318 395 325 398 327 c 0
 436 354 455 371 455 376 c 0
 455 381 436 398 398 425 c 0
 393 429 384 435 372 442 c 0
 360 450 351 456 344 461 c 0
 326 474 317 487 317 499 c 0
 317 511 321 521 329 528 c 0
 337 536 347 540 358 540 c 0
 370 540 380 537 390 532 c 0
 398 527 409 518 421 507 c 0
 433 496 452 480 476 460 c 0
 502 439 519 423 530 411 c 0
 541 399 546 387 546 376 c 0
306 376 m 0
 306 365 301 353 290 341 c 0
 279 329 262 313 236 292 c 0
 212 272 194 258 184 248 c 0
 175 240 167 233 162 228 c 0
 149 217 135 212 122 212 c 0
 108 212 97 216 89 224 c 0
 81 231 77 240 77 250 c 0
 77 261 80 270 88 277 c 0
 94 284 107 294 126 306 c 0
 145 318 155 325 158 327 c 0
 196 354 215 371 215 376 c 0
 215 381 196 398 158 425 c 0
 153 429 144 435 132 442 c 0
 120 450 111 456 104 461 c 0
 86 474 77 487 77 499 c 0
 77 511 81 521 89 528 c 0
 97 536 107 540 118 540 c 0
 130 540 140 537 150 532 c 0
 158 527 169 518 181 507 c 0
 193 496 212 480 236 460 c 0
 262 439 279 423 290 411 c 0
 301 399 306 387 306 376 c 0
EndSplineSet
Validated: 1
EndChar

StartChar: onequarter
Encoding: 188 188 125
Width: 927
Flags: W
LayerCount: 2
Fore
SplineSet
279 703 m 2
 279 703 276 544 276 544 c 1
 276 544 279 377 279 377 c 2
 279 363 275 352 268 344 c 0
 260 335 250 331 238 331 c 0
 225 331 215 335 208 344 c 0
 200 352 196 363 196 377 c 2
 199 544 l 1
 199 636 l 1
 188 625 176 612 164 598 c 0
 151 584 142 574 136 567 c 0
 121 550 107 542 96 542 c 0
 85 542 75 546 68 552 c 0
 60 560 56 568 56 576 c 0
 56 586 58 593 61 598 c 0
 64 604 69 609 74 614 c 0
 101 639 123 662 141 684 c 0
 159 704 170 717 174 722 c 0
 179 727 184 732 190 738 c 0
 196 745 201 749 204 752 c 0
 213 757 223 760 234 760 c 0
 264 760 279 741 279 703 c 2
804 125 m 1
 807 40 l 2
 807 7 794 -10 768 -10 c 0
 741 -10 728 7 728 40 c 2
 731 128 l 1
 566 126 l 2
 551 126 541 130 534 138 c 0
 527 145 524 154 524 164 c 0
 524 173 530 186 540 202 c 0
 552 219 570 244 597 278 c 0
 624 312 639 332 644 338 c 0
 649 344 655 352 663 362 c 0
 671 373 679 383 686 392 c 0
 707 420 729 434 752 434 c 0
 767 434 780 428 791 416 c 0
 802 403 807 388 807 371 c 0
 807 370 806 351 806 312 c 0
 804 273 804 234 804 193 c 1
 807 194 811 194 818 194 c 0
 850 194 866 183 866 160 c 0
 866 136 849 124 814 124 c 2
 804 125 l 1
622 192 m 1
 730 192 l 1
 731 215 731 261 731 332 c 1
 703 299 667 252 622 192 c 1
545 531 m 0
 522 472 502 420 486 374 c 0
 469 330 432 220 374 47 c 0
 367 26 359 11 350 2 c 0
 342 -6 332 -10 321 -10 c 0
 310 -10 300 -6 291 1 c 0
 282 8 278 18 278 30 c 0
 278 43 283 62 292 89 c 0
 302 116 318 158 342 216 c 0
 364 275 385 328 402 376 c 0
 419 423 441 487 468 566 c 0
 494 646 510 694 515 710 c 0
 526 743 544 760 569 760 c 0
 578 760 587 756 596 749 c 0
 605 742 609 732 609 720 c 0
 609 707 604 688 594 660 c 0
 585 634 568 590 545 531 c 0
EndSplineSet
Validated: 1
EndChar

StartChar: onehalf
Encoding: 189 189 126
Width: 930
Flags: W
LayerCount: 2
Fore
SplineSet
676 70 m 1
 813 75 l 2
 847 75 864 62 864 36 c 0
 864 10 847 -3 813 -3 c 2
 710 1 l 1
 619 -3 l 2
 606 -3 595 1 586 8 c 0
 576 16 571 26 571 39 c 0
 571 52 574 63 580 73 c 0
 587 83 601 101 624 128 c 0
 647 154 662 172 670 184 c 0
 679 194 688 206 697 217 c 0
 706 228 713 237 718 244 c 0
 723 250 729 258 736 268 c 0
 749 289 756 305 756 316 c 0
 756 328 752 338 743 346 c 0
 734 354 722 358 705 358 c 0
 688 358 672 351 658 336 c 0
 642 321 630 314 619 314 c 0
 608 314 600 317 593 324 c 0
 586 331 583 341 583 354 c 0
 583 367 595 383 620 402 c 0
 645 421 676 430 714 430 c 0
 752 430 782 419 805 398 c 0
 828 377 839 354 839 328 c 0
 839 304 830 276 812 248 c 0
 794 218 769 185 738 148 c 0
 707 110 686 84 676 70 c 1
279 703 m 2
 279 703 276 544 276 544 c 1
 276 544 279 377 279 377 c 2
 279 363 275 352 268 344 c 0
 260 335 250 331 238 331 c 0
 225 331 215 335 208 344 c 0
 200 352 196 363 196 377 c 2
 199 544 l 1
 199 636 l 1
 188 625 176 612 164 598 c 0
 151 584 142 574 136 567 c 0
 121 550 107 542 96 542 c 0
 85 542 75 546 68 552 c 0
 60 560 56 568 56 576 c 0
 56 586 58 593 61 598 c 0
 64 604 69 609 74 614 c 0
 101 639 123 662 141 684 c 0
 159 704 170 717 174 722 c 0
 179 727 184 732 190 738 c 0
 196 745 201 749 204 752 c 0
 213 757 223 760 234 760 c 0
 264 760 279 741 279 703 c 2
545 531 m 0
 522 472 502 420 486 374 c 0
 469 330 432 220 374 47 c 0
 367 26 359 11 350 2 c 0
 342 -6 332 -10 321 -10 c 0
 310 -10 300 -6 291 1 c 0
 282 8 278 18 278 30 c 0
 278 43 283 62 292 89 c 0
 302 116 318 158 342 216 c 0
 364 275 385 328 402 376 c 0
 419 423 441 487 468 566 c 0
 494 646 510 694 515 710 c 0
 526 743 544 760 569 760 c 0
 578 760 587 756 596 749 c 0
 605 742 609 732 609 720 c 0
 609 707 604 688 594 660 c 0
 585 634 568 590 545 531 c 0
EndSplineSet
Validated: 1
EndChar

StartChar: threequarters
Encoding: 190 190 127
Width: 978
Flags: W
LayerCount: 2
Fore
SplineSet
124 752 m 2
 124 752 208 750 208 750 c 1
 208 750 283 752 283 752 c 2
 325 752 346 738 346 709 c 0
 346 692 327 665 289 630 c 0
 272 614 262 603 257 598 c 1
 292 589 318 572 338 548 c 0
 356 523 366 494 366 459 c 0
 366 424 351 392 320 363 c 0
 289 334 249 319 198 319 c 0
 165 319 136 330 109 350 c 0
 82 372 69 390 69 407 c 0
 69 430 80 442 102 442 c 0
 111 442 120 438 129 430 c 0
 138 422 148 414 160 406 c 0
 172 397 188 393 209 393 c 0
 230 393 248 400 262 412 c 0
 278 426 285 443 285 464 c 0
 285 485 278 503 264 518 c 0
 249 532 231 540 210 543 c 1
 196 522 176 511 151 511 c 0
 138 511 128 514 120 522 c 0
 111 528 107 538 107 550 c 0
 107 561 112 572 122 582 c 0
 133 592 148 599 169 604 c 1
 204 639 229 664 243 679 c 1
 124 678 l 2
 93 678 77 690 77 713 c 0
 77 725 81 734 90 742 c 0
 98 748 109 752 124 752 c 2
857 125 m 1
 860 40 l 2
 860 7 847 -10 820 -10 c 0
 794 -10 781 7 781 40 c 2
 784 128 l 1
 619 126 l 2
 604 126 594 130 587 138 c 0
 580 145 577 154 577 164 c 0
 577 173 582 186 594 202 c 0
 604 219 623 244 650 278 c 0
 677 312 692 332 697 338 c 0
 702 344 708 352 716 362 c 0
 724 373 732 383 739 392 c 0
 760 420 782 434 805 434 c 0
 820 434 833 428 844 416 c 0
 855 403 860 388 860 371 c 0
 860 370 860 351 858 312 c 0
 858 273 857 234 857 193 c 1
 860 194 864 194 871 194 c 0
 903 194 919 183 919 160 c 0
 919 136 902 124 867 124 c 2
 857 125 l 1
675 192 m 1
 783 192 l 1
 784 215 784 261 784 332 c 1
 756 299 720 252 675 192 c 1
598 531 m 0
 575 472 555 420 538 374 c 0
 522 330 485 220 427 47 c 0
 420 26 412 11 404 2 c 0
 395 -6 385 -10 374 -10 c 0
 363 -10 353 -6 344 1 c 0
 335 8 331 18 331 30 c 0
 331 43 336 62 346 89 c 0
 355 116 372 158 394 216 c 0
 418 275 438 328 455 376 c 0
 472 423 494 487 520 566 c 0
 547 646 563 694 568 710 c 0
 579 743 597 760 622 760 c 0
 631 760 640 756 649 749 c 0
 658 742 662 732 662 720 c 0
 662 707 657 688 648 660 c 0
 638 634 621 590 598 531 c 0
EndSplineSet
Validated: 1
EndChar

StartChar: questiondown
Encoding: 191 191 128
Width: 513
Flags: W
LayerCount: 2
Fore
SplineSet
62 101 m 0
 62 126 68 151 78 175 c 0
 90 199 100 217 110 230 c 0
 121 242 137 259 158 281 c 0
 178 298 193 311 204 320 c 0
 214 330 224 343 234 359 c 0
 243 375 248 391 248 407 c 0
 248 451 263 473 293 473 c 0
 306 473 317 467 326 456 c 0
 335 444 339 428 339 409 c 0
 339 390 336 372 331 356 c 0
 326 340 317 324 304 308 c 0
 287 288 262 264 230 235 c 0
 214 217 202 203 194 193 c 0
 186 183 178 169 170 152 c 0
 162 135 158 118 158 101 c 0
 158 72 169 49 190 30 c 0
 212 12 237 3 264 3 c 0
 305 3 340 18 369 47 c 0
 385 66 400 75 412 75 c 0
 426 75 436 71 443 62 c 0
 450 54 454 44 454 33 c 0
 454 8 435 -18 396 -45 c 0
 358 -72 316 -85 269 -85 c 0
 208 -85 158 -67 120 -32 c 0
 81 4 62 48 62 101 c 0
254 586 m 0
 245 597 241 612 241 628 c 0
 241 646 247 661 258 675 c 0
 269 689 283 696 299 696 c 0
 315 696 328 690 336 678 c 0
 346 665 350 651 350 634 c 0
 350 617 344 602 334 589 c 0
 322 576 309 569 292 569 c 0
 275 569 263 575 254 586 c 0
EndSplineSet
Validated: 1
EndChar

StartChar: Aacute
Encoding: 193 193 130
Width: 692
Flags: W
LayerCount: 2
Fore
SplineSet
476 241 m 1
 347 244 l 2
 283 244 236 243 207 242 c 1
 200 220 189 186 176 138 c 0
 162 92 151 55 142 29 c 0
 133 3 118 -10 96 -10 c 0
 83 -10 73 -6 66 2 c 0
 58 10 54 19 54 28 c 0
 54 38 54 46 56 52 c 0
 56 58 59 67 62 79 c 0
 66 91 70 102 74 113 c 0
 93 170 107 212 116 239 c 1
 97 239 82 243 70 252 c 0
 60 260 54 271 54 285 c 0
 54 316 79 332 128 332 c 2
 146 332 l 1
 210 511 247 613 256 638 c 0
 266 664 272 679 273 683 c 0
 274 687 276 693 280 700 c 0
 282 708 285 714 288 718 c 0
 290 721 293 726 296 731 c 0
 299 736 302 740 306 744 c 0
 308 746 312 749 316 752 c 0
 325 757 334 760 344 760 c 0
 353 760 361 759 367 757 c 0
 373 755 379 751 384 746 c 0
 389 741 394 735 398 729 c 0
 401 723 406 714 410 701 c 0
 416 688 420 677 424 666 c 0
 456 568 496 457 544 332 c 1
 580 333 l 2
 597 333 612 328 622 319 c 0
 634 310 639 298 639 284 c 0
 639 255 617 239 573 237 c 1
 580 216 589 189 600 156 c 0
 626 85 639 44 639 34 c 0
 639 22 635 12 628 4 c 0
 620 -6 609 -10 596 -10 c 0
 572 -10 555 3 544 29 c 0
 533 62 510 132 476 241 c 1
232 328 m 1
 275 327 316 326 356 326 c 0
 395 326 427 327 451 328 c 1
 381 529 345 630 344 630 c 0
 340 630 311 555 258 404 c 2
 232 328 l 1
466 946 m 0
 466 917 450 887 418 858 c 0
 387 828 360 813 339 813 c 0
 328 813 320 816 314 821 c 0
 309 826 306 833 306 841 c 0
 306 849 314 863 330 882 c 0
 346 902 357 919 363 932 c 0
 369 945 374 955 378 962 c 0
 381 968 387 974 396 980 c 0
 404 987 414 990 426 990 c 0
 437 990 447 986 454 976 c 0
 462 968 466 957 466 946 c 0
EndSplineSet
Validated: 1
EndChar

StartChar: Atilde
Encoding: 195 195 132
Width: 692
Flags: W
LayerCount: 2
Fore
SplineSet
476 241 m 1
 347 244 l 2
 283 244 236 243 207 242 c 1
 200 220 189 186 176 138 c 0
 162 92 151 55 142 29 c 0
 133 3 118 -10 96 -10 c 0
 83 -10 73 -6 66 2 c 0
 58 10 54 19 54 28 c 0
 54 38 54 46 56 52 c 0
 56 58 59 67 62 79 c 0
 66 91 70 102 74 113 c 0
 93 170 107 212 116 239 c 1
 97 239 82 243 70 252 c 0
 60 260 54 271 54 285 c 0
 54 316 79 332 128 332 c 2
 146 332 l 1
 210 511 247 613 256 638 c 0
 266 664 272 679 273 683 c 0
 274 687 276 693 280 700 c 0
 282 708 285 714 288 718 c 0
 290 721 293 726 296 731 c 0
 299 736 302 740 306 744 c 0
 308 746 312 749 316 752 c 0
 325 757 334 760 344 760 c 0
 353 760 361 759 367 757 c 0
 373 755 379 751 384 746 c 0
 389 741 394 735 398 729 c 0
 401 723 406 714 410 701 c 0
 416 688 420 677 424 666 c 0
 456 568 496 457 544 332 c 1
 580 333 l 2
 597 333 612 328 622 319 c 0
 634 310 639 298 639 284 c 0
 639 255 617 239 573 237 c 1
 580 216 589 189 600 156 c 0
 626 85 639 44 639 34 c 0
 639 22 635 12 628 4 c 0
 620 -6 609 -10 596 -10 c 0
 572 -10 555 3 544 29 c 0
 533 62 510 132 476 241 c 1
232 328 m 1
 275 327 316 326 356 326 c 0
 395 326 427 327 451 328 c 1
 381 529 345 630 344 630 c 0
 340 630 311 555 258 404 c 2
 232 328 l 1
544 915 m 0
 544 891 534 870 513 852 c 0
 492 834 469 825 443 825 c 0
 417 825 386 835 350 856 c 0
 321 871 299 878 284 878 c 0
 269 878 254 868 238 848 c 0
 221 829 206 819 192 819 c 0
 179 819 168 823 160 832 c 0
 151 840 147 850 147 862 c 0
 147 886 159 908 184 926 c 0
 209 946 237 955 270 955 c 0
 303 955 337 946 372 928 c 0
 407 909 431 900 442 900 c 0
 454 900 467 908 480 925 c 0
 494 942 506 950 514 950 c 0
 524 950 531 946 536 940 c 0
 541 932 544 924 544 915 c 0
EndSplineSet
Validated: 1
EndChar

StartChar: Aring
Encoding: 197 197 134
Width: 692
Flags: W
LayerCount: 2
Fore
SplineSet
476 241 m 1
 347 244 l 2
 283 244 236 243 207 242 c 1
 200 220 189 186 176 138 c 0
 162 92 151 55 142 29 c 0
 133 3 118 -10 96 -10 c 0
 83 -10 73 -6 66 2 c 0
 58 10 54 19 54 28 c 0
 54 38 54 46 56 52 c 0
 56 58 59 67 62 79 c 0
 66 91 70 102 74 113 c 0
 93 170 107 212 116 239 c 1
 97 239 82 243 70 252 c 0
 60 260 54 271 54 285 c 0
 54 316 79 332 128 332 c 2
 146 332 l 1
 210 511 247 613 256 638 c 0
 266 664 272 679 273 683 c 0
 274 687 276 693 280 700 c 0
 282 708 285 714 288 718 c 0
 290 721 293 726 296 731 c 0
 299 736 302 740 306 744 c 0
 308 746 312 749 316 752 c 0
 325 757 334 760 344 760 c 0
 353 760 361 759 367 757 c 0
 373 755 379 751 384 746 c 0
 389 741 394 735 398 729 c 0
 401 723 406 714 410 701 c 0
 416 688 420 677 424 666 c 0
 456 568 496 457 544 332 c 1
 580 333 l 2
 597 333 612 328 622 319 c 0
 634 310 639 298 639 284 c 0
 639 255 617 239 573 237 c 1
 580 216 589 189 600 156 c 0
 626 85 639 44 639 34 c 0
 639 22 635 12 628 4 c 0
 620 -6 609 -10 596 -10 c 0
 572 -10 555 3 544 29 c 0
 533 62 510 132 476 241 c 1
232 328 m 1
 275 327 316 326 356 326 c 0
 395 326 427 327 451 328 c 1
 381 529 345 630 344 630 c 0
 340 630 311 555 258 404 c 2
 232 328 l 1
420 986 m 0
 439 966 449 942 449 914 c 0
 449 885 440 862 420 843 c 0
 402 824 377 815 346 815 c 0
 315 815 290 824 272 843 c 0
 252 862 243 885 243 914 c 0
 243 943 253 967 272 986 c 0
 292 1006 317 1016 346 1016 c 0
 375 1016 400 1006 420 986 c 0
384 914 m 0
 384 924 380 933 372 942 c 0
 364 951 355 955 346 955 c 0
 336 955 327 951 320 942 c 0
 312 934 308 925 308 914 c 0
 308 904 312 895 319 887 c 0
 326 879 335 875 346 875 c 0
 356 875 365 879 372 887 c 0
 380 895 384 904 384 914 c 0
EndSplineSet
Validated: 1
EndChar

StartChar: AE
Encoding: 198 198 135
Width: 891
Flags: W
LayerCount: 2
Fore
SplineSet
338 623 m 0
 334 623 307 549 257 402 c 2
 232 328 l 1
 264 326 290 325 310 325 c 0
 330 325 347 325 360 326 c 0
 374 326 385 326 392 326 c 1
 366 484 348 583 338 623 c 0
676 0 m 1
 503 -5 l 2
 464 -5 442 11 436 44 c 0
 425 102 414 168 403 242 c 1
 386 243 352 243 303 243 c 0
 254 243 222 243 207 242 c 1
 200 220 189 186 176 138 c 0
 162 92 151 55 142 29 c 0
 133 3 118 -10 96 -10 c 0
 83 -10 73 -6 66 2 c 0
 58 10 54 19 54 28 c 0
 54 38 54 46 56 52 c 0
 56 58 59 67 62 79 c 0
 66 91 70 102 74 113 c 0
 93 170 107 212 116 239 c 1
 97 239 82 243 70 252 c 0
 60 260 54 271 54 285 c 0
 54 316 79 332 128 332 c 2
 146 332 l 1
 184 439 212 518 232 569 c 0
 250 620 262 651 265 660 c 0
 268 670 271 678 274 684 c 0
 276 691 280 699 284 708 c 0
 290 718 295 726 300 732 c 0
 313 747 326 755 341 755 c 2
 548 750 l 1
 677 756 l 2
 695 756 710 752 720 744 c 0
 732 735 737 724 737 709 c 0
 737 694 732 683 720 674 c 0
 710 666 695 662 677 662 c 2
 548 668 l 2
 500 668 457 666 419 663 c 1
 420 662 433 590 459 446 c 1
 482 445 506 444 533 444 c 2
 682 449 l 2
 700 449 714 445 725 436 c 0
 736 428 741 417 741 403 c 0
 741 374 721 359 682 359 c 2
 533 363 l 2
 508 363 488 363 475 362 c 1
 504 203 521 112 527 89 c 1
 580 84 629 82 676 82 c 2
 805 88 l 2
 823 88 838 84 848 76 c 0
 860 67 865 56 865 41 c 0
 865 26 860 15 848 6 c 0
 838 -2 823 -6 805 -6 c 2
 676 0 l 1
EndSplineSet
Validated: 1
EndChar

StartChar: Ccedilla
Encoding: 199 199 136
Width: 708
Flags: W
LayerCount: 2
Fore
SplineSet
515 -133 m 0
 515 -161 502 -184 478 -202 c 0
 452 -221 423 -230 388 -230 c 0
 353 -230 326 -222 304 -206 c 0
 284 -189 273 -172 273 -155 c 0
 273 -149 276 -143 280 -138 c 0
 286 -133 292 -130 300 -130 c 0
 307 -130 320 -134 336 -142 c 0
 354 -150 368 -154 381 -154 c 0
 394 -154 404 -152 412 -147 c 0
 420 -142 424 -137 424 -131 c 0
 424 -125 419 -118 410 -112 c 0
 400 -104 389 -98 378 -90 c 0
 367 -84 356 -72 346 -58 c 0
 336 -42 331 -25 331 -6 c 1
 254 13 191 58 144 128 c 0
 96 200 72 282 72 376 c 0
 72 485 104 577 168 652 c 0
 231 727 311 765 407 765 c 0
 466 765 518 754 564 732 c 0
 611 710 634 685 634 658 c 0
 634 645 630 634 622 626 c 0
 614 618 604 614 590 614 c 0
 578 614 559 622 535 637 c 0
 496 664 454 678 407 678 c 0
 338 678 280 648 236 588 c 0
 190 529 168 458 168 376 c 0
 168 295 190 224 236 163 c 0
 280 102 336 72 401 72 c 0
 466 72 526 88 580 121 c 0
 602 133 617 139 624 139 c 0
 632 139 639 136 646 130 c 0
 652 123 655 115 655 106 c 0
 655 83 631 57 583 29 c 0
 535 1 478 -14 412 -15 c 1
 414 -26 424 -38 441 -49 c 0
 458 -60 475 -73 491 -86 c 0
 507 -99 515 -115 515 -133 c 0
EndSplineSet
Validated: 1
EndChar

StartChar: Ecircumflex
Encoding: 202 202 139
Width: 639
Flags: W
LayerCount: 2
Fore
SplineSet
463 445 m 2
 284 440 l 2
 253 440 231 440 218 441 c 1
 218 663 l 1
 258 666 304 668 355 668 c 2
 514 662 l 2
 532 662 546 666 558 674 c 0
 568 683 574 694 574 709 c 0
 574 724 568 735 558 744 c 0
 546 752 532 756 514 756 c 2
 355 750 l 1
 171 755 l 2
 130 755 109 740 109 710 c 0
 109 696 113 683 121 670 c 1
 124 645 127 570 128 445 c 1
 109 445 93 441 80 434 c 0
 67 426 61 414 61 399 c 0
 61 370 83 355 128 355 c 1
 128 275 127 208 126 156 c 0
 124 102 123 64 123 41 c 0
 123 10 141 -5 177 -5 c 2
 358 0 l 1
 517 -6 l 2
 535 -6 550 -2 560 6 c 0
 572 15 577 26 577 41 c 0
 577 56 572 67 560 76 c 0
 550 84 535 88 517 88 c 2
 358 82 l 2
 307 82 262 84 222 87 c 1
 219 118 218 182 218 279 c 2
 218 358 l 1
 233 359 255 359 284 359 c 2
 463 355 l 2
 502 355 522 370 522 399 c 0
 522 413 517 424 506 432 c 0
 495 441 481 445 463 445 c 2
415 842 m 0
 369 896 341 923 332 923 c 0
 321 923 295 897 252 846 c 0
 249 842 246 839 244 838 c 2
 237 830 l 2
 228 821 218 817 206 817 c 0
 195 817 185 820 178 828 c 0
 171 834 167 844 167 856 c 0
 167 869 176 882 193 896 c 0
 210 911 228 928 246 948 c 0
 263 968 278 983 291 994 c 0
 304 1005 317 1010 332 1010 c 0
 346 1010 360 1005 372 994 c 0
 386 983 401 968 418 948 c 0
 435 928 453 911 470 896 c 0
 488 881 497 868 497 856 c 0
 497 844 493 834 486 828 c 0
 479 820 471 817 462 817 c 0
 453 817 446 819 440 822 c 0
 431 827 423 833 415 842 c 0
EndSplineSet
Validated: 9
EndChar

StartChar: Igrave
Encoding: 204 204 141
Width: 604
Flags: W
LayerCount: 2
Fore
SplineSet
403 661 m 2
 403 661 304 664 304 664 c 1
 304 664 205 661 205 661 c 2
 190 661 178 665 170 673 c 0
 160 681 156 691 156 703 c 0
 156 715 160 725 170 733 c 0
 178 741 190 745 205 745 c 2
 304 742 l 1
 403 745 l 2
 418 745 430 741 438 733 c 0
 448 725 452 715 452 703 c 0
 452 691 448 681 438 673 c 0
 430 665 418 661 403 661 c 2
351 589 m 2
 346 373 l 1
 326 122 l 1
 341 154 372 214 419 302 c 0
 426 316 434 323 442 323 c 0
 449 323 456 319 461 312 c 0
 466 304 468 296 468 287 c 0
 468 278 467 271 466 264 c 0
 465 258 462 250 457 241 c 0
 452 232 448 223 443 215 c 0
 424 182 410 159 401 144 c 0
 392 129 381 109 367 83 c 0
 353 57 340 34 328 14 c 0
 319 0 310 -7 301 -7 c 0
 291 -7 282 0 274 14 c 0
 263 35 250 58 235 83 c 0
 220 108 211 126 206 136 c 0
 201 145 193 159 182 177 c 0
 172 194 164 207 159 215 c 0
 154 223 150 232 145 241 c 0
 138 256 134 270 134 282 c 0
 134 294 136 304 142 312 c 0
 146 319 153 323 160 323 c 0
 168 323 176 316 183 302 c 0
 228 213 259 153 276 122 c 1
 265 373 l 1
 260 589 l 2
 259 606 264 621 272 632 c 0
 281 643 292 649 305 649 c 0
 322 649 333 643 338 632 c 0
 347 607 351 593 351 589 c 2
133 946 m 0
 133 957 137 968 144 976 c 0
 152 986 162 990 174 990 c 0
 185 990 195 987 204 980 c 0
 212 974 218 968 222 962 c 0
 225 955 230 945 236 932 c 0
 242 919 253 902 269 882 c 0
 285 863 293 849 293 841 c 0
 293 833 290 826 284 821 c 0
 279 816 271 813 260 813 c 0
 239 813 212 828 180 858 c 0
 149 887 133 917 133 946 c 0
EndSplineSet
Validated: 33
EndChar

StartChar: Iacute
Encoding: 205 205 142
Width: 502
Flags: W
LayerCount: 2
Fore
SplineSet
390 661 m 2
 300 665 l 1
 297 600 296 508 296 386 c 0
 296 266 298 164 301 83 c 1
 390 88 l 2
 408 88 422 84 434 76 c 0
 444 67 450 56 450 41 c 0
 450 26 444 15 434 6 c 0
 422 -2 408 -6 390 -6 c 2
 251 0 l 1
 112 -7 l 2
 94 -7 80 -3 68 6 c 0
 58 14 52 25 52 40 c 0
 52 55 58 66 68 74 c 0
 80 83 94 87 112 87 c 2
 201 82 l 1
 204 163 206 265 206 386 c 0
 206 507 205 600 202 665 c 1
 112 661 l 2
 94 661 80 665 68 674 c 0
 58 682 52 693 52 708 c 0
 52 723 58 734 68 742 c 0
 80 751 94 755 112 755 c 2
 251 750 l 1
 390 756 l 2
 408 756 422 752 434 744 c 0
 444 735 450 724 450 709 c 0
 450 694 444 683 434 674 c 0
 422 665 408 661 390 661 c 2
360 946 m 0
 360 917 344 887 312 858 c 0
 281 828 254 813 233 813 c 0
 222 813 214 816 208 821 c 0
 203 826 200 833 200 841 c 0
 200 849 208 863 224 882 c 0
 240 902 251 919 257 932 c 0
 263 945 268 955 272 962 c 0
 275 968 281 974 290 980 c 0
 298 987 308 990 320 990 c 0
 331 990 341 986 348 976 c 0
 356 968 360 957 360 946 c 0
EndSplineSet
Validated: 1
EndChar

StartChar: Icircumflex
Encoding: 206 206 143
Width: 486
Flags: W
LayerCount: 2
Fore
SplineSet
374 661 m 2
 292 665 l 1
 289 600 288 508 288 386 c 0
 288 266 290 164 293 83 c 1
 374 87 l 2
 392 87 406 83 418 74 c 0
 428 66 434 55 434 40 c 0
 434 26 428 15 418 6 c 0
 406 -2 392 -6 374 -6 c 2
 374 -6 243 0 243 0 c 1
 243 0 112 -6 112 -6 c 2
 94 -6 80 -2 68 6 c 0
 58 15 52 26 52 40 c 0
 52 55 58 66 68 74 c 0
 80 83 94 87 112 87 c 2
 193 82 l 1
 196 163 198 265 198 386 c 0
 198 507 197 600 194 665 c 1
 112 661 l 2
 94 661 80 665 68 674 c 0
 58 683 52 694 52 709 c 0
 52 724 58 735 68 744 c 0
 80 752 94 756 112 756 c 2
 112 756 243 750 243 750 c 1
 243 750 374 756 374 756 c 2
 392 756 406 752 418 744 c 0
 428 735 434 724 434 709 c 0
 434 694 428 683 418 674 c 0
 406 665 392 661 374 661 c 2
329 842 m 0
 283 896 255 923 246 923 c 0
 235 923 209 897 166 846 c 0
 163 842 160 839 158 838 c 2
 151 830 l 2
 142 821 132 817 120 817 c 0
 109 817 99 820 92 828 c 0
 85 834 81 844 81 856 c 0
 81 869 90 882 107 896 c 0
 124 911 142 928 160 948 c 0
 177 968 192 983 205 994 c 0
 218 1005 231 1010 246 1010 c 0
 260 1010 274 1005 286 994 c 0
 300 983 315 968 332 948 c 0
 349 928 367 911 384 896 c 0
 402 881 411 868 411 856 c 0
 411 844 407 834 400 828 c 0
 393 820 385 817 376 817 c 0
 367 817 360 819 354 822 c 0
 345 827 337 833 329 842 c 0
EndSplineSet
Validated: 1
EndChar

StartChar: Idieresis
Encoding: 207 207 144
Width: 604
Flags: W
LayerCount: 2
Fore
SplineSet
403 661 m 2
 403 661 304 664 304 664 c 1
 304 664 205 661 205 661 c 2
 190 661 178 665 170 673 c 0
 160 681 156 691 156 703 c 0
 156 715 160 725 170 733 c 0
 178 741 190 745 205 745 c 2
 304 742 l 1
 403 745 l 2
 418 745 430 741 438 733 c 0
 448 725 452 715 452 703 c 0
 452 691 448 681 438 673 c 0
 430 665 418 661 403 661 c 2
351 589 m 2
 346 373 l 1
 326 122 l 1
 341 154 372 214 419 302 c 0
 426 316 434 323 442 323 c 0
 449 323 456 319 461 312 c 0
 466 304 468 296 468 287 c 0
 468 278 467 271 466 264 c 0
 465 258 462 250 457 241 c 0
 452 232 448 223 443 215 c 0
 424 182 410 159 401 144 c 0
 392 129 381 109 367 83 c 0
 353 57 340 34 328 14 c 0
 319 0 310 -7 301 -7 c 0
 291 -7 282 0 274 14 c 0
 263 35 250 58 235 83 c 0
 220 108 211 126 206 136 c 0
 201 145 193 159 182 177 c 0
 172 194 164 207 159 215 c 0
 154 223 150 232 145 241 c 0
 138 256 134 270 134 282 c 0
 134 294 136 304 142 312 c 0
 146 319 153 323 160 323 c 0
 168 323 176 316 183 302 c 0
 228 213 259 153 276 122 c 1
 265 373 l 1
 260 589 l 2
 259 606 264 621 272 632 c 0
 281 643 292 649 305 649 c 0
 322 649 333 643 338 632 c 0
 347 607 351 593 351 589 c 2
382 950 m 0
 392 939 396 924 396 906 c 0
 396 889 390 873 379 859 c 0
 368 845 354 838 338 838 c 0
 321 838 308 844 299 856 c 0
 290 868 285 883 285 900 c 0
 285 917 290 933 302 946 c 0
 312 960 326 967 344 967 c 0
 360 967 374 961 382 950 c 0
188 950 m 0
 196 939 201 924 201 906 c 0
 201 889 195 873 184 859 c 0
 173 845 159 838 142 838 c 0
 126 838 113 844 104 856 c 0
 95 868 90 883 90 900 c 0
 90 917 96 933 106 946 c 0
 118 960 132 967 148 967 c 0
 166 967 178 961 188 950 c 0
EndSplineSet
Validated: 33
EndChar

StartChar: Eth
Encoding: 208 208 145
Width: 770
Flags: W
LayerCount: 2
Fore
SplineSet
138 411 m 1
 133 636 l 1
 104 639 89 652 89 678 c 0
 89 702 115 723 168 740 c 0
 221 756 275 764 332 764 c 0
 388 764 440 753 489 731 c 0
 538 709 577 679 606 642 c 0
 667 566 697 476 697 372 c 0
 697 271 668 183 610 108 c 0
 581 71 543 41 496 18 c 0
 449 -4 392 -15 327 -15 c 0
 262 -15 205 -7 157 10 c 0
 109 27 85 48 85 74 c 0
 85 99 102 111 135 111 c 1
 138 334 l 1
 125 333 106 333 82 333 c 0
 59 333 42 337 34 344 c 0
 24 351 20 361 20 373 c 0
 20 385 24 395 34 402 c 0
 42 409 56 413 72 413 c 0
 90 413 111 412 138 411 c 1
232 661 m 1
 230 624 229 541 229 411 c 1
 258 412 282 413 301 413 c 0
 320 413 334 409 342 402 c 0
 352 395 356 385 356 373 c 0
 356 361 352 351 342 344 c 0
 334 337 320 333 301 333 c 0
 282 333 258 334 229 335 c 1
 229 225 231 142 234 85 c 1
 258 76 292 72 335 72 c 0
 378 72 418 81 452 98 c 0
 488 115 515 139 536 168 c 0
 579 228 601 298 601 380 c 0
 601 460 577 530 530 590 c 0
 482 648 413 678 323 678 c 0
 285 678 255 672 232 661 c 1
EndSplineSet
Validated: 1
EndChar

StartChar: Ntilde
Encoding: 209 209 146
Width: 743
Flags: W
LayerCount: 2
Fore
SplineSet
626 372 m 2
 629 62 l 2
 629 14 611 -10 576 -10 c 0
 554 -10 537 0 526 21 c 2
 209 567 l 1
 209 412 210 288 212 195 c 0
 213 102 214 50 214 40 c 0
 214 28 209 18 199 6 c 0
 189 -4 177 -10 164 -10 c 0
 150 -10 138 -4 128 6 c 0
 119 18 114 31 114 48 c 2
 118 372 l 2
 118 441 117 510 116 581 c 0
 114 652 113 688 113 689 c 0
 113 736 130 760 164 760 c 0
 189 760 207 750 219 729 c 0
 413 396 519 216 536 189 c 1
 536 378 535 508 533 579 c 0
 531 650 530 687 530 689 c 0
 530 736 547 760 581 760 c 0
 615 760 632 736 632 689 c 0
 632 684 631 666 630 636 c 0
 627 547 626 459 626 372 c 2
EndSplineSet
Validated: 1
EndChar

StartChar: Ocircumflex
Encoding: 212 212 149
Width: 824
Flags: W
LayerCount: 2
Fore
SplineSet
586 164 m 0
 633 225 656 296 656 377 c 0
 656 458 633 528 587 588 c 0
 541 649 483 679 412 679 c 0
 342 679 284 649 238 588 c 0
 191 528 168 458 168 378 c 0
 168 297 191 226 238 164 c 0
 285 103 343 72 412 72 c 0
 482 72 540 103 586 164 c 0
752 376 m 0
 752 267 720 175 654 99 c 0
 590 23 508 -15 412 -15 c 0
 314 -15 234 23 169 99 c 0
 104 175 72 267 72 376 c 0
 72 485 105 577 170 652 c 0
 235 727 316 765 414 765 c 0
 510 765 591 727 656 652 c 0
 720 577 752 485 752 376 c 0
498 842 m 0
 452 896 424 923 414 923 c 0
 404 923 378 897 335 846 c 0
 332 842 329 839 328 838 c 2
 320 830 l 2
 311 821 301 817 290 817 c 0
 278 817 268 820 261 828 c 0
 254 834 250 844 250 856 c 0
 250 869 259 882 276 896 c 0
 293 911 311 928 328 948 c 0
 346 968 361 983 374 994 c 0
 387 1005 400 1010 414 1010 c 0
 429 1010 442 1005 456 994 c 0
 468 983 484 968 501 948 c 0
 518 928 536 911 554 896 c 0
 571 881 580 868 580 856 c 0
 580 844 576 834 569 828 c 0
 562 820 554 817 545 817 c 0
 536 817 529 819 524 822 c 0
 515 827 506 833 498 842 c 0
EndSplineSet
Validated: 1
EndChar

StartChar: Odieresis
Encoding: 214 214 151
Width: 824
Flags: W
LayerCount: 2
Fore
SplineSet
586 164 m 0
 633 225 656 296 656 377 c 0
 656 458 633 528 587 588 c 0
 541 649 483 679 412 679 c 0
 342 679 284 649 238 588 c 0
 191 528 168 458 168 378 c 0
 168 297 191 226 238 164 c 0
 285 103 343 72 412 72 c 0
 482 72 540 103 586 164 c 0
752 376 m 0
 752 267 720 175 654 99 c 0
 590 23 508 -15 412 -15 c 0
 314 -15 234 23 169 99 c 0
 104 175 72 267 72 376 c 0
 72 485 105 577 170 652 c 0
 235 727 316 765 414 765 c 0
 510 765 591 727 656 652 c 0
 720 577 752 485 752 376 c 0
552 950 m 0
 560 939 565 924 565 907 c 0
 565 890 559 874 548 860 c 0
 537 845 523 838 506 838 c 0
 490 838 477 844 468 856 c 0
 459 868 454 883 454 900 c 0
 454 917 460 933 470 946 c 0
 482 960 496 967 512 967 c 0
 530 967 542 961 552 950 c 0
356 950 m 0
 366 939 370 924 370 907 c 0
 370 890 364 874 353 860 c 0
 342 845 328 838 312 838 c 0
 295 838 282 844 273 856 c 0
 264 868 259 883 259 900 c 0
 259 917 264 933 276 946 c 0
 286 960 300 967 318 967 c 0
 334 967 348 961 356 950 c 0
EndSplineSet
Validated: 1
EndChar

StartChar: multiply
Encoding: 215 215 152
Width: 573
Flags: W
LayerCount: 2
Fore
SplineSet
286 322 m 0
 284 320 270 307 244 282 c 0
 217 258 190 232 161 203 c 0
 150 192 139 187 127 187 c 0
 115 187 105 191 97 199 c 0
 89 207 85 216 85 228 c 0
 85 238 92 251 106 264 c 0
 119 277 141 296 170 322 c 0
 200 346 221 365 233 376 c 1
 221 387 201 405 172 428 c 0
 143 451 122 470 108 484 c 0
 94 497 87 510 87 522 c 0
 87 534 91 544 100 552 c 0
 108 559 118 563 129 563 c 0
 140 563 153 557 167 545 c 0
 181 533 201 514 228 488 c 0
 254 462 273 443 286 432 c 1
 296 441 314 458 342 486 c 0
 368 512 389 532 404 545 c 0
 418 558 431 564 442 564 c 0
 453 564 463 560 472 552 c 0
 480 545 484 535 484 523 c 0
 484 511 477 498 463 485 c 0
 449 472 428 453 400 430 c 0
 372 407 352 389 339 377 c 1
 350 366 371 348 400 324 c 0
 430 298 454 278 472 261 c 0
 483 250 488 240 488 228 c 0
 488 218 484 208 476 200 c 0
 468 192 458 188 446 188 c 0
 434 188 423 193 412 204 c 0
 377 239 335 279 286 322 c 0
EndSplineSet
Validated: 1
EndChar

StartChar: Oslash
Encoding: 216 216 153
Width: 824
Flags: W
LayerCount: 2
Fore
SplineSet
656 376 m 0
 656 435 643 489 618 539 c 0
 593 589 559 626 516 651 c 1
 459 436 413 244 376 75 c 1
 387 73 399 72 412 72 c 0
 482 72 540 103 586 164 c 0
 633 225 656 296 656 376 c 0
429 678 m 1
 412 679 l 1
 342 679 284 649 238 588 c 0
 191 528 168 457 168 376 c 0
 168 323 179 273 201 225 c 0
 223 177 253 139 291 112 c 1
 315 187 361 375 429 678 c 1
752 376 m 0
 752 267 720 175 654 99 c 0
 590 23 508 -15 411 -15 c 0
 399 -15 381 -14 357 -11 c 1
 345 -60 325 -84 298 -84 c 0
 285 -84 275 -79 268 -70 c 0
 260 -61 256 -48 256 -34 c 0
 256 -18 260 -1 267 20 c 1
 208 51 160 98 125 162 c 0
 90 226 72 297 72 376 c 0
 72 485 105 577 170 652 c 0
 235 727 316 765 413 765 c 0
 421 765 432 764 447 763 c 1
 454 790 461 808 470 819 c 0
 479 830 490 835 504 835 c 0
 518 835 529 830 536 821 c 0
 544 812 548 800 548 787 c 0
 548 774 545 758 538 739 c 1
 603 711 654 664 694 598 c 0
 732 532 752 458 752 376 c 0
EndSplineSet
Validated: 1
EndChar

StartChar: Uacute
Encoding: 218 218 155
Width: 743
Flags: W
LayerCount: 2
Fore
SplineSet
479 946 m 0
 479 917 463 887 432 858 c 0
 400 828 373 813 352 813 c 0
 341 813 333 816 328 821 c 0
 322 826 319 833 319 841 c 0
 319 849 327 863 343 882 c 0
 359 902 370 919 376 932 c 0
 382 945 387 955 390 962 c 0
 394 968 400 974 408 980 c 0
 417 987 427 990 438 990 c 0
 450 990 460 986 468 976 c 0
 475 968 479 957 479 946 c 0
569 62 m 0
 523 10 457 -15 372 -15 c 0
 286 -15 220 11 174 62 c 0
 128 113 104 176 103 249 c 0
 102 284 102 327 102 378 c 0
 102 429 102 478 100 526 c 0
 100 572 98 610 98 638 c 0
 96 667 96 684 96 689 c 0
 96 736 113 760 147 760 c 0
 181 760 198 736 198 689 c 0
 198 684 197 663 196 626 c 0
 193 515 192 428 192 366 c 0
 192 303 194 258 200 230 c 0
 204 202 213 175 226 150 c 0
 251 98 299 72 371 72 c 0
 473 72 531 131 546 249 c 0
 549 272 551 304 551 344 c 0
 551 383 550 431 550 486 c 0
 548 542 548 588 546 626 c 0
 546 662 545 684 545 689 c 0
 545 736 562 760 596 760 c 0
 630 760 647 736 647 689 c 0
 647 684 647 667 646 638 c 0
 643 553 641 476 641 406 c 0
 641 336 641 284 640 249 c 0
 639 175 615 112 569 62 c 0
EndSplineSet
Validated: 1
EndChar

StartChar: Ucircumflex
Encoding: 219 219 156
Width: 743
Flags: W
LayerCount: 2
Fore
SplineSet
569 62 m 0
 523 10 457 -15 372 -15 c 0
 286 -15 220 11 174 62 c 0
 128 113 104 176 103 249 c 0
 102 284 102 327 102 378 c 0
 102 429 102 478 100 526 c 0
 100 572 98 610 98 638 c 0
 96 667 96 684 96 689 c 0
 96 736 113 760 147 760 c 0
 181 760 198 736 198 689 c 0
 198 684 197 663 196 626 c 0
 193 515 192 428 192 366 c 0
 192 303 194 258 200 230 c 0
 204 202 213 175 226 150 c 0
 251 98 299 72 371 72 c 0
 473 72 531 131 546 249 c 0
 549 272 551 304 551 344 c 0
 551 383 550 431 550 486 c 0
 548 542 548 588 546 626 c 0
 546 662 545 684 545 689 c 0
 545 736 562 760 596 760 c 0
 630 760 647 736 647 689 c 0
 647 684 647 667 646 638 c 0
 643 553 641 476 641 406 c 0
 641 336 641 284 640 249 c 0
 639 175 615 112 569 62 c 0
457 842 m 0
 411 896 383 923 374 923 c 0
 363 923 337 897 294 846 c 0
 291 842 288 839 286 838 c 2
 279 830 l 2
 270 821 260 817 248 817 c 0
 237 817 227 820 220 828 c 0
 213 834 209 844 209 856 c 0
 209 869 218 882 235 896 c 0
 252 911 270 928 288 948 c 0
 305 968 320 983 333 994 c 0
 346 1005 359 1010 374 1010 c 0
 388 1010 402 1005 414 994 c 0
 428 983 443 968 460 948 c 0
 477 928 495 911 512 896 c 0
 530 881 539 868 539 856 c 0
 539 844 535 834 528 828 c 0
 521 820 513 817 504 817 c 0
 495 817 488 819 482 822 c 0
 473 827 465 833 457 842 c 0
EndSplineSet
Validated: 1
EndChar

StartChar: Thorn
Encoding: 222 222 159
Width: 617
Flags: W
LayerCount: 2
Fore
SplineSet
209 524 m 1
 208 499 208 468 208 430 c 0
 208 391 209 347 210 298 c 1
 245 289 284 284 329 284 c 0
 374 284 410 296 438 319 c 0
 465 342 479 373 479 411 c 0
 479 449 465 480 437 503 c 0
 409 526 373 538 328 538 c 0
 283 538 244 533 209 524 c 1
113 61 m 2
 113 61 119 375 119 375 c 1
 119 375 113 689 113 689 c 2
 113 736 130 760 164 760 c 0
 198 760 215 736 215 689 c 0
 215 679 214 666 212 650 c 0
 211 635 210 622 210 612 c 1
 242 621 281 625 328 625 c 0
 401 625 461 604 506 564 c 0
 551 522 574 472 574 410 c 0
 574 350 552 299 506 258 c 0
 462 217 402 197 329 197 c 0
 284 197 244 201 210 209 c 1
 213 134 215 84 215 61 c 0
 215 14 198 -10 164 -10 c 0
 130 -10 113 14 113 61 c 2
EndSplineSet
Validated: 1
EndChar

StartChar: germandbls
Encoding: 223 223 160
Width: 614
Flags: W
LayerCount: 2
Fore
SplineSet
122 426 m 1
 82 425 l 2
 69 425 58 428 48 435 c 0
 40 442 35 451 35 464 c 0
 35 477 40 486 48 492 c 0
 58 499 67 502 76 502 c 0
 86 502 101 501 121 500 c 1
 121 575 l 2
 121 638 138 685 173 715 c 0
 208 745 252 760 306 760 c 0
 361 760 404 745 435 714 c 0
 466 684 482 647 482 604 c 0
 482 575 472 546 452 517 c 0
 432 488 412 463 392 441 c 0
 373 419 363 400 363 386 c 0
 363 370 374 354 396 335 c 0
 417 316 441 300 466 284 c 0
 492 270 516 249 538 222 c 0
 559 195 570 166 570 135 c 0
 570 92 555 56 524 28 c 0
 494 -1 454 -15 403 -15 c 0
 367 -15 333 -7 302 10 c 0
 271 27 255 45 255 64 c 0
 255 91 269 105 297 105 c 0
 306 105 322 98 344 84 c 0
 368 71 388 64 406 64 c 0
 423 64 439 70 454 83 c 0
 468 96 475 112 475 132 c 0
 475 153 468 171 454 186 c 0
 439 201 422 215 402 227 c 0
 382 239 362 252 342 264 c 0
 321 278 304 294 290 316 c 0
 275 336 268 359 268 382 c 0
 268 405 274 427 286 448 c 0
 299 469 312 486 327 501 c 0
 342 516 355 532 368 551 c 0
 380 570 386 588 386 608 c 0
 386 626 378 643 363 657 c 0
 348 671 327 678 302 678 c 0
 277 678 256 669 239 652 c 0
 222 635 214 606 214 566 c 2
 215 48 l 2
 215 31 210 17 201 6 c 0
 192 -5 180 -10 164 -10 c 0
 150 -10 138 -5 129 6 c 0
 120 16 116 29 116 45 c 2
 122 426 l 1
EndSplineSet
Validated: 1
EndChar

StartChar: aacute
Encoding: 225 225 162
Width: 810
Flags: W
LayerCount: 2
Fore
SplineSet
648 367 m 1
 648 292 653 229 662 178 c 0
 672 126 684 97 698 90 c 0
 703 87 710 86 717 84 c 0
 724 84 730 82 733 80 c 0
 736 78 738 74 738 69 c 0
 738 45 731 25 718 10 c 0
 705 -5 687 -13 665 -13 c 0
 636 -13 614 4 599 37 c 0
 584 70 577 113 577 165 c 1
 542 109 504 65 466 33 c 0
 426 1 383 -15 334 -15 c 0
 286 -15 245 -4 212 20 c 0
 179 42 152 73 132 110 c 0
 92 187 72 271 72 363 c 0
 72 472 100 567 157 646 c 0
 214 725 287 765 377 765 c 0
 412 765 446 758 478 746 c 0
 512 732 539 716 561 696 c 1
 561 742 578 765 612 765 c 0
 654 765 675 731 675 664 c 0
 675 614 666 515 648 367 c 1
569 355 m 1
 563 600 l 1
 506 652 444 678 377 678 c 0
 322 678 273 648 231 588 c 0
 189 529 168 456 168 371 c 0
 168 286 182 214 212 158 c 0
 240 100 280 72 330 72 c 0
 379 72 429 104 480 167 c 0
 530 230 560 293 569 355 c 1
507 946 m 0
 507 917 491 887 460 858 c 0
 428 828 401 813 380 813 c 0
 369 813 361 816 356 821 c 0
 350 826 347 833 347 841 c 0
 347 849 355 863 371 882 c 0
 387 902 398 919 404 932 c 0
 410 945 415 955 418 962 c 0
 422 968 428 974 436 980 c 0
 445 987 455 990 466 990 c 0
 478 990 488 986 496 976 c 0
 503 968 507 957 507 946 c 0
EndSplineSet
Validated: 1
EndChar

StartChar: atilde
Encoding: 227 227 164
Width: 810
Flags: W
LayerCount: 2
Fore
SplineSet
648 367 m 1
 648 292 653 229 662 178 c 0
 672 126 684 97 698 90 c 0
 703 87 710 86 717 84 c 0
 724 84 730 82 733 80 c 0
 736 78 738 74 738 69 c 0
 738 45 731 25 718 10 c 0
 705 -5 687 -13 665 -13 c 0
 636 -13 614 4 599 37 c 0
 584 70 577 113 577 165 c 1
 542 109 504 65 466 33 c 0
 426 1 383 -15 334 -15 c 0
 286 -15 245 -4 212 20 c 0
 179 42 152 73 132 110 c 0
 92 187 72 271 72 363 c 0
 72 472 100 567 157 646 c 0
 214 725 287 765 377 765 c 0
 412 765 446 758 478 746 c 0
 512 732 539 716 561 696 c 1
 561 742 578 765 612 765 c 0
 654 765 675 731 675 664 c 0
 675 614 666 515 648 367 c 1
569 355 m 1
 563 600 l 1
 506 652 444 678 377 678 c 0
 322 678 273 648 231 588 c 0
 189 529 168 456 168 371 c 0
 168 286 182 214 212 158 c 0
 240 100 280 72 330 72 c 0
 379 72 429 104 480 167 c 0
 530 230 560 293 569 355 c 1
598 925 m 0
 598 901 588 880 567 862 c 0
 546 844 523 835 497 835 c 0
 471 835 440 845 404 866 c 0
 375 881 353 888 338 888 c 0
 323 888 308 878 292 858 c 0
 275 839 260 829 246 829 c 0
 233 829 222 833 214 842 c 0
 205 850 201 860 201 872 c 0
 201 896 213 918 238 936 c 0
 263 956 291 965 324 965 c 0
 357 965 391 956 426 938 c 0
 461 919 485 910 496 910 c 0
 508 910 521 918 534 935 c 0
 548 952 560 960 568 960 c 0
 578 960 585 956 590 950 c 0
 595 942 598 934 598 925 c 0
EndSplineSet
Validated: 1
EndChar

StartChar: aring
Encoding: 229 229 166
Width: 810
Flags: W
LayerCount: 2
Fore
SplineSet
648 367 m 1
 648 292 653 229 662 178 c 0
 672 126 684 97 698 90 c 0
 703 87 710 86 717 84 c 0
 724 84 730 82 733 80 c 0
 736 78 738 74 738 69 c 0
 738 45 731 25 718 10 c 0
 705 -5 687 -13 665 -13 c 0
 636 -13 614 4 599 37 c 0
 584 70 577 113 577 165 c 1
 542 109 504 65 466 33 c 0
 426 1 383 -15 334 -15 c 0
 286 -15 245 -4 212 20 c 0
 179 42 152 73 132 110 c 0
 92 187 72 271 72 363 c 0
 72 472 100 567 157 646 c 0
 214 725 287 765 377 765 c 0
 412 765 446 758 478 746 c 0
 512 732 539 716 561 696 c 1
 561 742 578 765 612 765 c 0
 654 765 675 731 675 664 c 0
 675 614 666 515 648 367 c 1
569 355 m 1
 563 600 l 1
 506 652 444 678 377 678 c 0
 322 678 273 648 231 588 c 0
 189 529 168 456 168 371 c 0
 168 286 182 214 212 158 c 0
 240 100 280 72 330 72 c 0
 379 72 429 104 480 167 c 0
 530 230 560 293 569 355 c 1
484 986 m 0
 504 966 514 942 514 914 c 0
 514 885 504 862 486 843 c 0
 466 824 442 815 411 815 c 0
 380 815 356 824 336 843 c 0
 318 862 308 885 308 914 c 0
 308 943 318 967 338 986 c 0
 357 1006 382 1016 411 1016 c 0
 440 1016 465 1006 484 986 c 0
449 914 m 0
 449 924 445 933 437 942 c 0
 429 951 420 955 410 955 c 0
 401 955 392 951 384 942 c 0
 377 934 373 925 373 914 c 0
 373 904 377 895 384 887 c 0
 391 879 400 875 410 875 c 0
 421 875 430 879 438 887 c 0
 445 895 449 904 449 914 c 0
EndSplineSet
Validated: 1
EndChar

StartChar: ae
Encoding: 230 230 167
Width: 1169
Flags: W
LayerCount: 2
Fore
SplineSet
150 239 m 0
 150 192 166 152 198 121 c 0
 230 90 267 74 308 74 c 0
 364 74 413 98 455 145 c 0
 497 192 518 258 518 343 c 1
 455 364 393 375 334 375 c 0
 274 375 228 361 197 334 c 0
 166 307 150 275 150 239 c 0
697 150 m 0
 741 98 790 73 844 73 c 0
 897 73 952 90 1008 123 c 0
 1029 135 1044 141 1052 141 c 0
 1060 141 1067 138 1074 132 c 0
 1080 125 1083 117 1083 108 c 0
 1083 85 1059 58 1012 30 c 0
 964 0 909 -14 847 -14 c 0
 785 -14 730 1 684 30 c 0
 636 60 599 100 572 150 c 1
 543 95 506 54 459 26 c 0
 412 0 361 -14 304 -14 c 0
 233 -14 174 10 126 58 c 0
 78 105 54 167 54 242 c 0
 54 303 79 355 130 398 c 0
 180 441 240 463 310 463 c 0
 351 463 385 460 412 456 c 0
 440 450 476 442 521 429 c 1
 521 518 504 582 468 620 c 0
 434 659 389 678 335 678 c 0
 309 678 285 674 263 665 c 0
 241 656 224 647 212 637 c 0
 181 610 158 596 143 596 c 0
 112 596 97 610 97 638 c 0
 97 667 121 695 168 723 c 0
 216 751 271 765 332 765 c 0
 394 765 447 751 490 724 c 0
 534 697 567 660 590 615 c 1
 656 715 747 765 862 765 c 0
 926 765 981 745 1026 704 c 0
 1072 663 1095 614 1095 556 c 0
 1095 498 1081 451 1052 414 c 0
 999 348 916 315 803 315 c 0
 732 315 672 320 622 329 c 1
 628 260 653 200 697 150 c 0
999 553 m 0
 999 584 987 613 964 639 c 0
 940 665 906 678 862 678 c 0
 800 678 748 652 706 600 c 0
 663 547 636 486 623 417 c 1
 669 406 731 400 810 400 c 0
 863 400 908 413 944 439 c 0
 981 465 999 503 999 553 c 0
EndSplineSet
Validated: 1
EndChar

StartChar: ccedilla
Encoding: 231 231 168
Width: 708
Flags: W
LayerCount: 2
Fore
SplineSet
515 -133 m 0
 515 -161 502 -184 478 -202 c 0
 452 -221 423 -230 388 -230 c 0
 353 -230 326 -222 304 -206 c 0
 284 -189 273 -172 273 -155 c 0
 273 -149 276 -143 280 -138 c 0
 286 -133 292 -130 300 -130 c 0
 307 -130 320 -134 336 -142 c 0
 354 -150 368 -154 381 -154 c 0
 394 -154 404 -152 412 -147 c 0
 420 -142 424 -137 424 -131 c 0
 424 -125 419 -118 410 -112 c 0
 400 -104 389 -98 378 -90 c 0
 367 -84 356 -72 346 -58 c 0
 336 -42 331 -25 331 -6 c 1
 254 13 191 58 144 128 c 0
 96 200 72 282 72 376 c 0
 72 485 104 577 168 652 c 0
 231 727 311 765 407 765 c 0
 466 765 518 754 564 732 c 0
 611 710 634 685 634 658 c 0
 634 645 630 634 622 626 c 0
 614 618 604 614 590 614 c 0
 578 614 559 622 535 637 c 0
 496 664 454 678 407 678 c 0
 338 678 280 648 236 588 c 0
 190 529 168 458 168 376 c 0
 168 295 190 224 236 163 c 0
 280 102 336 72 401 72 c 0
 466 72 526 88 580 121 c 0
 602 133 617 139 624 139 c 0
 632 139 639 136 646 130 c 0
 652 123 655 115 655 106 c 0
 655 83 631 57 583 29 c 0
 535 1 478 -14 412 -15 c 1
 414 -26 424 -38 441 -49 c 0
 458 -60 475 -73 491 -86 c 0
 507 -99 515 -115 515 -133 c 0
EndSplineSet
Validated: 1
EndChar

StartChar: eacute
Encoding: 233 233 170
Width: 745
Flags: W
LayerCount: 2
Fore
SplineSet
596 553 m 0
 596 584 583 613 558 639 c 0
 532 665 497 678 452 678 c 0
 407 678 368 665 334 638 c 0
 271 589 231 517 213 421 c 1
 264 407 321 400 384 400 c 0
 448 400 499 413 538 440 c 0
 577 467 596 504 596 553 c 0
597 28 m 0
 550 -1 499 -15 444 -15 c 0
 389 -15 342 -5 301 16 c 0
 260 37 227 64 201 99 c 0
 147 171 118 255 114 352 c 1
 66 367 42 390 42 423 c 0
 42 436 46 447 54 454 c 0
 61 462 70 466 80 466 c 0
 90 466 104 462 122 454 c 1
 143 543 182 618 238 676 c 0
 296 736 365 765 448 765 c 0
 515 765 573 745 620 704 c 0
 668 663 692 614 692 557 c 0
 692 500 677 453 648 416 c 0
 593 349 507 315 390 315 c 0
 342 315 282 322 211 335 c 1
 217 263 241 201 282 150 c 0
 324 98 374 72 432 72 c 0
 489 72 543 88 593 121 c 0
 615 133 630 139 638 139 c 0
 645 139 652 136 658 130 c 0
 665 123 668 115 668 106 c 0
 668 83 644 57 597 28 c 0
546 946 m 0
 546 917 530 887 498 858 c 0
 467 828 440 813 419 813 c 0
 408 813 400 816 394 821 c 0
 389 826 386 833 386 841 c 0
 386 849 394 863 410 882 c 0
 426 902 437 919 443 932 c 0
 449 945 454 955 458 962 c 0
 461 968 467 974 476 980 c 0
 484 987 494 990 506 990 c 0
 517 990 527 986 534 976 c 0
 542 968 546 957 546 946 c 0
EndSplineSet
Validated: 1
EndChar

StartChar: edieresis
Encoding: 235 235 172
Width: 745
Flags: W
LayerCount: 2
Fore
SplineSet
596 553 m 0
 596 584 583 613 558 639 c 0
 532 665 497 678 452 678 c 0
 407 678 368 665 334 638 c 0
 271 589 231 517 213 421 c 1
 264 407 321 400 384 400 c 0
 448 400 499 413 538 440 c 0
 577 467 596 504 596 553 c 0
597 28 m 0
 550 -1 499 -15 444 -15 c 0
 389 -15 342 -5 301 16 c 0
 260 37 227 64 201 99 c 0
 147 171 118 255 114 352 c 1
 66 367 42 390 42 423 c 0
 42 436 46 447 54 454 c 0
 61 462 70 466 80 466 c 0
 90 466 104 462 122 454 c 1
 143 543 182 618 238 676 c 0
 296 736 365 765 448 765 c 0
 515 765 573 745 620 704 c 0
 668 663 692 614 692 557 c 0
 692 500 677 453 648 416 c 0
 593 349 507 315 390 315 c 0
 342 315 282 322 211 335 c 1
 217 263 241 201 282 150 c 0
 324 98 374 72 432 72 c 0
 489 72 543 88 593 121 c 0
 615 133 630 139 638 139 c 0
 645 139 652 136 658 130 c 0
 665 123 668 115 668 106 c 0
 668 83 644 57 597 28 c 0
584 950 m 0
 594 939 598 924 598 907 c 0
 598 890 592 874 581 860 c 0
 570 845 556 838 540 838 c 0
 523 838 510 844 501 856 c 0
 492 868 487 883 487 900 c 0
 487 917 492 933 504 946 c 0
 514 960 528 967 546 967 c 0
 562 967 576 961 584 950 c 0
390 950 m 0
 398 939 403 924 403 907 c 0
 403 890 397 874 386 860 c 0
 375 845 361 838 344 838 c 0
 328 838 315 844 306 856 c 0
 297 868 292 883 292 900 c 0
 292 917 298 933 308 946 c 0
 320 960 334 967 350 967 c 0
 368 967 380 961 390 950 c 0
EndSplineSet
Validated: 1
EndChar

StartChar: igrave
Encoding: 236 236 173
Width: 604
Flags: W
LayerCount: 2
Fore
SplineSet
403 661 m 2
 403 661 304 664 304 664 c 1
 304 664 205 661 205 661 c 2
 190 661 178 665 170 673 c 0
 160 681 156 691 156 703 c 0
 156 715 160 725 170 733 c 0
 178 741 190 745 205 745 c 2
 304 742 l 1
 403 745 l 2
 418 745 430 741 438 733 c 0
 448 725 452 715 452 703 c 0
 452 691 448 681 438 673 c 0
 430 665 418 661 403 661 c 2
351 589 m 2
 346 373 l 1
 326 122 l 1
 341 154 372 214 419 302 c 0
 426 316 434 323 442 323 c 0
 449 323 456 319 461 312 c 0
 466 304 468 296 468 287 c 0
 468 278 467 271 466 264 c 0
 465 258 462 250 457 241 c 0
 452 232 448 223 443 215 c 0
 424 182 410 159 401 144 c 0
 392 129 381 109 367 83 c 0
 353 57 340 34 328 14 c 0
 319 0 310 -7 301 -7 c 0
 291 -7 282 0 274 14 c 0
 263 35 250 58 235 83 c 0
 220 108 211 126 206 136 c 0
 201 145 193 159 182 177 c 0
 172 194 164 207 159 215 c 0
 154 223 150 232 145 241 c 0
 138 256 134 270 134 282 c 0
 134 294 136 304 142 312 c 0
 146 319 153 323 160 323 c 0
 168 323 176 316 183 302 c 0
 228 213 259 153 276 122 c 1
 265 373 l 1
 260 589 l 2
 259 606 264 621 272 632 c 0
 281 643 292 649 305 649 c 0
 322 649 333 643 338 632 c 0
 347 607 351 593 351 589 c 2
133 946 m 0
 133 957 137 968 144 976 c 0
 152 986 162 990 174 990 c 0
 185 990 195 987 204 980 c 0
 212 974 218 968 222 962 c 0
 225 955 230 945 236 932 c 0
 242 919 253 902 269 882 c 0
 285 863 293 849 293 841 c 0
 293 833 290 826 284 821 c 0
 279 816 271 813 260 813 c 0
 239 813 212 828 180 858 c 0
 149 887 133 917 133 946 c 0
EndSplineSet
Validated: 33
EndChar

StartChar: icircumflex
Encoding: 238 238 175
Width: 604
Flags: W
LayerCount: 2
Fore
SplineSet
403 661 m 2
 403 661 304 664 304 664 c 1
 304 664 205 661 205 661 c 2
 190 661 178 665 170 673 c 0
 160 681 156 691 156 703 c 0
 156 715 160 725 170 733 c 0
 178 741 190 745 205 745 c 2
 304 742 l 1
 403 745 l 2
 418 745 430 741 438 733 c 0
 448 725 452 715 452 703 c 0
 452 691 448 681 438 673 c 0
 430 665 418 661 403 661 c 2
351 589 m 2
 346 373 l 1
 326 122 l 1
 341 154 372 214 419 302 c 0
 426 316 434 323 442 323 c 0
 449 323 456 319 461 312 c 0
 466 304 468 296 468 287 c 0
 468 278 467 271 466 264 c 0
 465 258 462 250 457 241 c 0
 452 232 448 223 443 215 c 0
 424 182 410 159 401 144 c 0
 392 129 381 109 367 83 c 0
 353 57 340 34 328 14 c 0
 319 0 310 -7 301 -7 c 0
 291 -7 282 0 274 14 c 0
 263 35 250 58 235 83 c 0
 220 108 211 126 206 136 c 0
 201 145 193 159 182 177 c 0
 172 194 164 207 159 215 c 0
 154 223 150 232 145 241 c 0
 138 256 134 270 134 282 c 0
 134 294 136 304 142 312 c 0
 146 319 153 323 160 323 c 0
 168 323 176 316 183 302 c 0
 228 213 259 153 276 122 c 1
 265 373 l 1
 260 589 l 2
 259 606 264 621 272 632 c 0
 281 643 292 649 305 649 c 0
 322 649 333 643 338 632 c 0
 347 607 351 593 351 589 c 2
329 842 m 0
 283 896 255 923 246 923 c 0
 235 923 209 897 166 846 c 0
 163 842 160 839 158 838 c 2
 151 830 l 2
 142 821 132 817 120 817 c 0
 109 817 99 820 92 828 c 0
 85 834 81 844 81 856 c 0
 81 869 90 882 107 896 c 0
 124 911 142 928 160 948 c 0
 177 968 192 983 205 994 c 0
 218 1005 231 1010 246 1010 c 0
 260 1010 274 1005 286 994 c 0
 300 983 315 968 332 948 c 0
 349 928 367 911 384 896 c 0
 402 881 411 868 411 856 c 0
 411 844 407 834 400 828 c 0
 393 820 385 817 376 817 c 0
 367 817 360 819 354 822 c 0
 345 827 337 833 329 842 c 0
EndSplineSet
Validated: 33
EndChar

StartChar: idieresis
Encoding: 239 239 176
Width: 486
Flags: W
LayerCount: 2
Fore
SplineSet
374 661 m 2
 292 665 l 1
 289 600 288 508 288 386 c 0
 288 266 290 164 293 83 c 1
 374 87 l 2
 392 87 406 83 418 74 c 0
 428 66 434 55 434 40 c 0
 434 26 428 15 418 6 c 0
 406 -2 392 -6 374 -6 c 2
 374 -6 243 0 243 0 c 1
 243 0 112 -6 112 -6 c 2
 94 -6 80 -2 68 6 c 0
 58 15 52 26 52 40 c 0
 52 55 58 66 68 74 c 0
 80 83 94 87 112 87 c 2
 193 82 l 1
 196 163 198 265 198 386 c 0
 198 507 197 600 194 665 c 1
 112 661 l 2
 94 661 80 665 68 674 c 0
 58 683 52 694 52 709 c 0
 52 724 58 735 68 744 c 0
 80 752 94 756 112 756 c 2
 112 756 243 750 243 750 c 1
 243 750 374 756 374 756 c 2
 392 756 406 752 418 744 c 0
 428 735 434 724 434 709 c 0
 434 694 428 683 418 674 c 0
 406 665 392 661 374 661 c 2
382 950 m 0
 392 939 396 924 396 907 c 0
 396 890 390 874 379 860 c 0
 368 845 354 838 338 838 c 0
 321 838 308 844 299 856 c 0
 290 868 285 883 285 900 c 0
 285 917 290 933 302 946 c 0
 312 960 326 967 344 967 c 0
 360 967 374 961 382 950 c 0
188 950 m 0
 196 939 201 924 201 907 c 0
 201 890 195 874 184 860 c 0
 173 845 159 838 142 838 c 0
 126 838 113 844 104 856 c 0
 95 868 90 883 90 900 c 0
 90 917 96 933 106 946 c 0
 118 960 132 967 148 967 c 0
 166 967 178 961 188 950 c 0
EndSplineSet
Validated: 1
EndChar

StartChar: eth
Encoding: 240 240 177
Width: 621
Flags: W
LayerCount: 2
Fore
SplineSet
544 300 m 0
 544 209 523 134 482 74 c 0
 440 15 379 -15 298 -15 c 0
 227 -15 170 9 128 58 c 0
 84 107 63 164 63 230 c 0
 63 297 84 356 127 410 c 0
 170 462 225 489 293 489 c 0
 347 489 396 470 440 432 c 1
 420 499 386 554 338 595 c 0
 337 594 329 585 316 570 c 0
 303 554 291 543 281 536 c 0
 271 529 260 526 249 526 c 0
 238 526 228 530 220 536 c 0
 213 544 209 551 209 560 c 0
 209 568 212 576 218 584 c 0
 223 591 229 598 234 602 c 0
 240 608 248 614 260 622 c 0
 270 630 277 635 279 637 c 1
 264 646 244 652 219 654 c 0
 194 658 177 661 168 664 c 0
 148 669 138 682 138 701 c 0
 138 712 143 721 152 729 c 0
 162 737 176 741 194 741 c 0
 243 741 292 726 341 696 c 1
 370 725 389 742 398 750 c 0
 408 756 418 760 430 760 c 0
 440 760 450 757 458 750 c 0
 465 743 469 735 469 726 c 0
 469 716 466 707 461 699 c 0
 456 691 451 685 446 680 c 0
 441 676 434 670 422 662 c 0
 412 655 405 650 403 648 c 1
 449 607 484 556 508 494 c 0
 532 432 544 367 544 300 c 0
401 120 m 0
 428 152 442 191 442 236 c 0
 442 282 430 321 406 354 c 0
 381 386 348 402 306 402 c 0
 264 402 229 385 201 352 c 0
 173 319 159 278 159 232 c 0
 159 184 172 146 198 116 c 0
 225 87 258 72 299 72 c 0
 340 72 374 88 401 120 c 0
EndSplineSet
Validated: 1
EndChar

StartChar: ntilde
Encoding: 241 241 178
Width: 805
Flags: W
LayerCount: 2
Fore
SplineSet
670 497 m 2
 663 215 l 2
 663 190 663 171 664 158 c 0
 665 145 667 132 672 118 c 0
 677 104 684 95 693 91 c 0
 698 88 705 86 712 86 c 0
 719 84 725 83 728 81 c 0
 731 79 733 75 733 70 c 0
 733 47 726 27 711 12 c 0
 696 -4 679 -12 659 -12 c 0
 624 -12 600 1 588 28 c 0
 574 55 568 94 568 147 c 2
 574 431 l 2
 574 504 561 562 536 606 c 0
 511 649 474 671 426 671 c 0
 377 671 330 642 285 584 c 0
 240 525 208 459 191 385 c 1
 195 57 l 2
 195 11 178 -12 144 -12 c 0
 103 -12 82 23 82 92 c 0
 82 162 91 260 109 385 c 1
 109 428 105 487 98 562 c 0
 90 636 86 681 86 698 c 0
 86 715 91 729 100 742 c 0
 109 754 122 760 138 760 c 0
 155 760 168 754 177 742 c 0
 186 729 191 715 191 700 c 0
 191 685 191 666 190 644 c 0
 190 623 190 604 190 589 c 1
 255 703 338 760 438 760 c 0
 512 760 569 734 610 684 c 0
 650 632 670 570 670 497 c 2
596 927 m 0
 596 903 586 882 565 864 c 0
 544 846 521 837 495 837 c 0
 469 837 438 847 402 868 c 0
 373 883 351 890 336 890 c 0
 321 890 306 880 290 860 c 0
 273 841 258 831 244 831 c 0
 231 831 220 835 212 844 c 0
 203 852 199 862 199 874 c 0
 199 898 211 920 236 938 c 0
 261 958 289 967 322 967 c 0
 355 967 389 958 424 940 c 0
 459 921 483 912 494 912 c 0
 506 912 519 920 532 937 c 0
 546 954 558 962 566 962 c 0
 576 962 583 958 588 952 c 0
 593 944 596 936 596 927 c 0
EndSplineSet
Validated: 1
EndChar

StartChar: oacute
Encoding: 243 243 180
Width: 824
Flags: W
LayerCount: 2
Fore
SplineSet
586 164 m 0
 633 225 656 296 656 377 c 0
 656 458 633 528 587 588 c 0
 541 649 483 679 412 679 c 0
 342 679 284 649 238 588 c 0
 191 528 168 458 168 378 c 0
 168 297 191 226 238 164 c 0
 285 103 343 72 412 72 c 0
 482 72 540 103 586 164 c 0
752 376 m 0
 752 267 720 175 654 99 c 0
 590 23 508 -15 412 -15 c 0
 314 -15 234 23 169 99 c 0
 104 175 72 267 72 376 c 0
 72 485 105 577 170 652 c 0
 235 727 316 765 414 765 c 0
 510 765 591 727 656 652 c 0
 720 577 752 485 752 376 c 0
522 946 m 0
 522 917 506 887 474 858 c 0
 443 828 416 813 395 813 c 0
 384 813 376 816 370 821 c 0
 365 826 362 833 362 841 c 0
 362 849 370 863 386 882 c 0
 402 902 413 919 419 932 c 0
 425 945 430 955 434 962 c 0
 437 968 443 974 452 980 c 0
 460 987 470 990 482 990 c 0
 493 990 503 986 510 976 c 0
 518 968 522 957 522 946 c 0
EndSplineSet
Validated: 1
EndChar

StartChar: otilde
Encoding: 245 245 182
Width: 824
Flags: W
LayerCount: 2
Fore
SplineSet
586 164 m 0
 633 225 656 296 656 377 c 0
 656 458 633 528 587 588 c 0
 541 649 483 679 412 679 c 0
 342 679 284 649 238 588 c 0
 191 528 168 458 168 378 c 0
 168 297 191 226 238 164 c 0
 285 103 343 72 412 72 c 0
 482 72 540 103 586 164 c 0
752 376 m 0
 752 267 720 175 654 99 c 0
 590 23 508 -15 412 -15 c 0
 314 -15 234 23 169 99 c 0
 104 175 72 267 72 376 c 0
 72 485 105 577 170 652 c 0
 235 727 316 765 414 765 c 0
 510 765 591 727 656 652 c 0
 720 577 752 485 752 376 c 0
610 927 m 0
 610 903 600 882 579 864 c 0
 558 846 535 837 509 837 c 0
 483 837 452 847 416 868 c 0
 387 883 365 890 350 890 c 0
 335 890 320 880 304 860 c 0
 287 841 272 831 258 831 c 0
 245 831 234 835 226 844 c 0
 217 852 213 862 213 874 c 0
 213 898 225 920 250 938 c 0
 275 958 303 967 336 967 c 0
 369 967 403 958 438 940 c 0
 473 921 497 912 508 912 c 0
 520 912 533 920 546 937 c 0
 560 954 572 962 580 962 c 0
 590 962 597 958 602 952 c 0
 607 944 610 936 610 927 c 0
EndSplineSet
Validated: 1
EndChar

StartChar: divide
Encoding: 247 247 184
Width: 628
Flags: W
LayerCount: 2
Fore
SplineSet
314 406 m 1
 511 409 l 2
 523 409 533 406 540 399 c 0
 548 392 552 384 552 374 c 0
 552 364 548 356 540 349 c 0
 533 342 523 339 511 339 c 2
 511 339 314 342 314 342 c 1
 314 342 117 339 117 339 c 2
 105 339 95 342 88 349 c 0
 80 356 76 364 76 374 c 0
 76 384 80 392 88 399 c 0
 95 406 105 409 117 409 c 2
 314 406 l 1
356 598 m 0
 364 587 369 572 369 554 c 0
 369 537 363 521 352 507 c 0
 341 493 327 486 310 486 c 0
 294 486 281 492 272 504 c 0
 263 516 258 531 258 548 c 0
 258 565 264 581 274 594 c 0
 286 608 300 615 316 615 c 0
 334 615 346 609 356 598 c 0
358 245 m 0
 366 234 371 219 371 202 c 0
 371 185 365 169 354 154 c 0
 343 140 329 133 312 133 c 0
 296 133 283 139 274 151 c 0
 265 163 260 178 260 195 c 0
 260 212 266 228 276 242 c 0
 288 255 302 262 318 262 c 0
 336 262 348 256 358 245 c 0
EndSplineSet
Validated: 1
EndChar

StartChar: oslash
Encoding: 248 248 185
Width: 824
Flags: W
LayerCount: 2
Fore
SplineSet
656 376 m 0
 656 435 643 489 618 539 c 0
 593 589 559 626 516 651 c 1
 459 436 413 244 376 75 c 1
 387 73 399 72 412 72 c 0
 482 72 540 103 586 164 c 0
 633 225 656 296 656 376 c 0
429 678 m 1
 412 679 l 1
 342 679 284 649 238 588 c 0
 191 528 168 457 168 376 c 0
 168 323 179 273 201 225 c 0
 223 177 253 139 291 112 c 1
 315 187 361 375 429 678 c 1
752 376 m 0
 752 267 720 175 654 99 c 0
 590 23 508 -15 411 -15 c 0
 399 -15 381 -14 357 -11 c 1
 345 -60 325 -84 298 -84 c 0
 285 -84 275 -79 268 -70 c 0
 260 -61 256 -48 256 -34 c 0
 256 -18 260 -1 267 20 c 1
 208 51 160 98 125 162 c 0
 90 226 72 297 72 376 c 0
 72 485 105 577 170 652 c 0
 235 727 316 765 413 765 c 0
 421 765 432 764 447 763 c 1
 454 790 461 808 470 819 c 0
 479 830 490 835 504 835 c 0
 518 835 529 830 536 821 c 0
 544 812 548 800 548 787 c 0
 548 774 545 758 538 739 c 1
 603 711 654 664 694 598 c 0
 732 532 752 458 752 376 c 0
EndSplineSet
Validated: 1
EndChar

StartChar: uacute
Encoding: 250 250 187
Width: 819
Flags: W
LayerCount: 2
Fore
SplineSet
202 646 m 2
 191 314 l 2
 191 241 204 183 228 138 c 0
 254 94 292 72 342 72 c 0
 394 72 443 102 490 162 c 0
 537 221 565 287 574 360 c 1
 570 688 l 2
 570 734 587 757 621 757 c 0
 662 757 683 723 683 655 c 0
 683 587 674 489 656 360 c 1
 656 287 661 224 670 174 c 0
 680 122 692 94 706 88 c 0
 711 85 718 84 726 82 c 0
 733 82 739 80 742 78 c 0
 745 76 747 72 747 67 c 0
 747 42 740 22 725 8 c 0
 710 -8 692 -15 669 -15 c 0
 612 -15 584 43 584 158 c 1
 517 43 433 -15 332 -15 c 0
 278 -15 233 0 196 30 c 0
 129 86 96 175 96 297 c 1
 104 536 l 2
 104 572 100 605 93 636 c 0
 86 667 82 689 82 702 c 0
 82 716 87 729 98 740 c 0
 109 751 123 757 140 757 c 0
 181 757 202 720 202 646 c 2
494 946 m 0
 494 917 478 887 446 858 c 0
 415 828 388 813 367 813 c 0
 356 813 348 816 342 821 c 0
 337 826 334 833 334 841 c 0
 334 849 342 863 358 882 c 0
 374 902 385 919 391 932 c 0
 397 945 402 955 406 962 c 0
 409 968 415 974 424 980 c 0
 432 987 442 990 454 990 c 0
 465 990 475 986 482 976 c 0
 490 968 494 957 494 946 c 0
EndSplineSet
Validated: 1
EndChar

StartChar: udieresis
Encoding: 252 252 189
Width: 819
Flags: W
LayerCount: 2
Fore
SplineSet
202 646 m 2
 191 314 l 2
 191 241 204 183 228 138 c 0
 254 94 292 72 342 72 c 0
 394 72 443 102 490 162 c 0
 537 221 565 287 574 360 c 1
 570 688 l 2
 570 734 587 757 621 757 c 0
 662 757 683 723 683 655 c 0
 683 587 674 489 656 360 c 1
 656 287 661 224 670 174 c 0
 680 122 692 94 706 88 c 0
 711 85 718 84 726 82 c 0
 733 82 739 80 742 78 c 0
 745 76 747 72 747 67 c 0
 747 42 740 22 725 8 c 0
 710 -8 692 -15 669 -15 c 0
 612 -15 584 43 584 158 c 1
 517 43 433 -15 332 -15 c 0
 278 -15 233 0 196 30 c 0
 129 86 96 175 96 297 c 1
 104 536 l 2
 104 572 100 605 93 636 c 0
 86 667 82 689 82 702 c 0
 82 716 87 729 98 740 c 0
 109 751 123 757 140 757 c 0
 181 757 202 720 202 646 c 2
524 950 m 0
 532 939 537 924 537 907 c 0
 537 890 531 874 520 860 c 0
 509 845 495 838 478 838 c 0
 462 838 449 844 440 856 c 0
 431 868 426 883 426 900 c 0
 426 917 432 933 442 946 c 0
 454 960 468 967 484 967 c 0
 502 967 514 961 524 950 c 0
328 950 m 0
 338 939 342 924 342 907 c 0
 342 890 336 874 325 860 c 0
 314 845 300 838 284 838 c 0
 267 838 254 844 245 856 c 0
 236 868 231 883 231 900 c 0
 231 917 236 933 248 946 c 0
 258 960 272 967 290 967 c 0
 306 967 320 961 328 950 c 0
EndSplineSet
Validated: 1
EndChar

StartChar: yacute
Encoding: 253 253 190
Width: 607
Flags: W
LayerCount: 2
Fore
SplineSet
347 303 m 1
 347 250 348 196 350 142 c 2
 352 61 l 2
 352 14 335 -10 301 -10 c 0
 267 -10 250 14 250 61 c 2
 252 144 l 2
 254 199 255 253 255 304 c 1
 122 532 52 655 43 673 c 0
 34 691 30 706 30 717 c 0
 30 728 34 738 42 747 c 0
 50 756 62 760 76 760 c 0
 92 760 104 753 115 738 c 0
 126 724 150 679 190 603 c 0
 228 527 267 460 306 401 c 1
 322 425 350 474 390 549 c 0
 431 624 454 666 460 678 c 0
 467 688 471 696 474 702 c 0
 477 706 480 713 486 721 c 0
 490 729 494 735 498 738 c 0
 500 742 504 746 508 750 c 0
 515 757 524 760 536 760 c 0
 548 760 558 756 566 748 c 0
 573 740 577 730 577 719 c 0
 577 708 572 693 562 674 c 0
 553 656 532 619 500 564 c 0
 467 509 446 473 437 458 c 0
 428 442 414 419 398 390 c 0
 380 360 364 331 347 303 c 1
413 946 m 0
 413 917 397 887 366 858 c 0
 334 828 307 813 286 813 c 0
 275 813 267 816 262 821 c 0
 256 826 253 833 253 841 c 0
 253 849 261 863 277 882 c 0
 293 902 304 919 310 932 c 0
 316 945 321 955 324 962 c 0
 328 968 334 974 342 980 c 0
 351 987 361 990 372 990 c 0
 384 990 394 986 402 976 c 0
 409 968 413 957 413 946 c 0
EndSplineSet
Validated: 1
EndChar

StartChar: thorn
Encoding: 254 254 191
Width: 617
Flags: W
LayerCount: 2
Fore
SplineSet
209 524 m 1
 208 499 208 468 208 430 c 0
 208 391 209 347 210 298 c 1
 245 289 284 284 329 284 c 0
 374 284 410 296 438 319 c 0
 465 342 479 373 479 411 c 0
 479 449 465 480 437 503 c 0
 409 526 373 538 328 538 c 0
 283 538 244 533 209 524 c 1
113 61 m 2
 113 61 119 375 119 375 c 1
 119 375 113 689 113 689 c 2
 113 736 130 760 164 760 c 0
 198 760 215 736 215 689 c 0
 215 679 214 666 212 650 c 0
 211 635 210 622 210 612 c 1
 242 621 281 625 328 625 c 0
 401 625 461 604 506 564 c 0
 551 522 574 472 574 410 c 0
 574 350 552 299 506 258 c 0
 462 217 402 197 329 197 c 0
 284 197 244 201 210 209 c 1
 213 134 215 84 215 61 c 0
 215 14 198 -10 164 -10 c 0
 130 -10 113 14 113 61 c 2
EndSplineSet
Validated: 1
EndChar

StartChar: Hbar
Encoding: 256 294 193
Width: 802
Flags: W
LayerCount: 2
Fore
SplineSet
569 353 m 1
 397 355 l 2
 320 355 265 355 230 354 c 1
 230 301 231 240 233 170 c 0
 235 101 236 64 236 61 c 0
 236 14 219 -10 185 -10 c 0
 151 -10 134 14 134 61 c 0
 134 64 135 100 137 169 c 0
 139 238 140 298 140 351 c 1
 97 351 76 366 76 396 c 0
 76 410 82 421 92 430 c 0
 104 438 119 442 140 442 c 1
 140 465 139 518 137 600 c 1
 81 600 l 2
 66 600 54 604 46 611 c 0
 36 618 32 628 32 640 c 0
 32 652 36 662 46 669 c 0
 54 676 66 680 81 680 c 2
 134 680 l 1
 134 733 151 760 185 760 c 0
 219 760 236 733 236 679 c 1
 236 679 401 677 401 677 c 1
 401 677 564 679 564 679 c 1
 564 733 581 760 615 760 c 0
 649 760 666 733 666 680 c 1
 721 680 l 2
 736 680 748 676 756 669 c 0
 766 662 770 652 770 640 c 0
 770 628 766 618 756 611 c 0
 748 604 736 600 721 600 c 2
 663 600 l 1
 661 560 660 508 660 443 c 1
 680 443 696 439 708 430 c 0
 719 421 725 410 725 396 c 0
 725 382 719 371 708 362 c 0
 696 354 680 350 660 350 c 1
 660 297 661 237 663 168 c 0
 665 100 666 64 666 61 c 0
 666 14 649 -10 615 -10 c 0
 581 -10 564 14 564 61 c 2
 569 353 l 1
569 439 m 1
 569 505 568 559 566 601 c 1
 527 602 471 603 400 603 c 0
 329 603 273 602 233 601 c 1
 231 559 230 505 230 439 c 1
 295 438 360 437 424 437 c 0
 489 437 537 438 569 439 c 1
EndSplineSet
Validated: 1
EndChar

StartChar: hbar
Encoding: 257 295 194
Width: 802
Flags: W
LayerCount: 2
Fore
SplineSet
569 353 m 1
 397 355 l 2
 320 355 265 355 230 354 c 1
 230 301 231 240 233 170 c 0
 235 101 236 64 236 61 c 0
 236 14 219 -10 185 -10 c 0
 151 -10 134 14 134 61 c 0
 134 64 135 100 137 169 c 0
 139 238 140 298 140 351 c 1
 97 351 76 366 76 396 c 0
 76 410 82 421 92 430 c 0
 104 438 119 442 140 442 c 1
 140 465 139 518 137 600 c 1
 81 600 l 2
 66 600 54 604 46 611 c 0
 36 618 32 628 32 640 c 0
 32 652 36 662 46 669 c 0
 54 676 66 680 81 680 c 2
 134 680 l 1
 134 733 151 760 185 760 c 0
 219 760 236 733 236 679 c 1
 236 679 401 677 401 677 c 1
 401 677 564 679 564 679 c 1
 564 733 581 760 615 760 c 0
 649 760 666 733 666 680 c 1
 721 680 l 2
 736 680 748 676 756 669 c 0
 766 662 770 652 770 640 c 0
 770 628 766 618 756 611 c 0
 748 604 736 600 721 600 c 2
 663 600 l 1
 661 560 660 508 660 443 c 1
 680 443 696 439 708 430 c 0
 719 421 725 410 725 396 c 0
 725 382 719 371 708 362 c 0
 696 354 680 350 660 350 c 1
 660 297 661 237 663 168 c 0
 665 100 666 64 666 61 c 0
 666 14 649 -10 615 -10 c 0
 581 -10 564 14 564 61 c 2
 569 353 l 1
569 439 m 1
 569 505 568 559 566 601 c 1
 527 602 471 603 400 603 c 0
 329 603 273 602 233 601 c 1
 231 559 230 505 230 439 c 1
 295 438 360 437 424 437 c 0
 489 437 537 438 569 439 c 1
EndSplineSet
Validated: 1
EndChar

StartChar: Itilde
Encoding: 258 296 195
Width: 604
Flags: W
LayerCount: 2
Fore
SplineSet
403 661 m 2
 403 661 304 664 304 664 c 1
 304 664 205 661 205 661 c 2
 190 661 178 665 170 673 c 0
 160 681 156 691 156 703 c 0
 156 715 160 725 170 733 c 0
 178 741 190 745 205 745 c 2
 304 742 l 1
 403 745 l 2
 418 745 430 741 438 733 c 0
 448 725 452 715 452 703 c 0
 452 691 448 681 438 673 c 0
 430 665 418 661 403 661 c 2
351 589 m 2
 346 373 l 1
 326 122 l 1
 341 154 372 214 419 302 c 0
 426 316 434 323 442 323 c 0
 449 323 456 319 461 312 c 0
 466 304 468 296 468 287 c 0
 468 278 467 271 466 264 c 0
 465 258 462 250 457 241 c 0
 452 232 448 223 443 215 c 0
 424 182 410 159 401 144 c 0
 392 129 381 109 367 83 c 0
 353 57 340 34 328 14 c 0
 319 0 310 -7 301 -7 c 0
 291 -7 282 0 274 14 c 0
 263 35 250 58 235 83 c 0
 220 108 211 126 206 136 c 0
 201 145 193 159 182 177 c 0
 172 194 164 207 159 215 c 0
 154 223 150 232 145 241 c 0
 138 256 134 270 134 282 c 0
 134 294 136 304 142 312 c 0
 146 319 153 323 160 323 c 0
 168 323 176 316 183 302 c 0
 228 213 259 153 276 122 c 1
 265 373 l 1
 260 589 l 2
 259 606 264 621 272 632 c 0
 281 643 292 649 305 649 c 0
 322 649 333 643 338 632 c 0
 347 607 351 593 351 589 c 2
442 924 m 0
 442 900 432 879 411 861 c 0
 390 843 367 834 341 834 c 0
 315 834 284 844 248 865 c 0
 219 880 197 887 182 887 c 0
 167 887 152 877 136 858 c 0
 119 838 104 828 90 828 c 0
 77 828 66 832 58 840 c 0
 49 849 45 859 45 871 c 0
 45 895 57 916 82 936 c 0
 107 954 135 964 168 964 c 0
 201 964 235 955 270 936 c 0
 305 918 329 909 340 909 c 0
 352 909 365 917 378 934 c 0
 392 951 404 959 412 959 c 0
 422 959 429 956 434 948 c 0
 439 942 442 933 442 924 c 0
EndSplineSet
Validated: 33
EndChar

StartChar: itilde
Encoding: 259 297 196
Width: 486
Flags: W
LayerCount: 2
Fore
SplineSet
374 661 m 2
 292 665 l 1
 289 600 288 508 288 386 c 0
 288 266 290 164 293 83 c 1
 374 87 l 2
 392 87 406 83 418 74 c 0
 428 66 434 55 434 40 c 0
 434 26 428 15 418 6 c 0
 406 -2 392 -6 374 -6 c 2
 374 -6 243 0 243 0 c 1
 243 0 112 -6 112 -6 c 2
 94 -6 80 -2 68 6 c 0
 58 15 52 26 52 40 c 0
 52 55 58 66 68 74 c 0
 80 83 94 87 112 87 c 2
 193 82 l 1
 196 163 198 265 198 386 c 0
 198 507 197 600 194 665 c 1
 112 661 l 2
 94 661 80 665 68 674 c 0
 58 683 52 694 52 709 c 0
 52 724 58 735 68 744 c 0
 80 752 94 756 112 756 c 2
 112 756 243 750 243 750 c 1
 243 750 374 756 374 756 c 2
 392 756 406 752 418 744 c 0
 428 735 434 724 434 709 c 0
 434 694 428 683 418 674 c 0
 406 665 392 661 374 661 c 2
442 924 m 0
 442 900 432 879 411 861 c 0
 390 843 367 834 341 834 c 0
 315 834 284 844 248 865 c 0
 219 880 197 887 182 887 c 0
 167 887 152 877 136 858 c 0
 119 838 104 828 90 828 c 0
 77 828 66 832 58 840 c 0
 49 849 45 859 45 871 c 0
 45 895 57 916 82 936 c 0
 107 954 135 964 168 964 c 0
 201 964 235 955 270 936 c 0
 305 918 329 909 340 909 c 0
 352 909 365 917 378 934 c 0
 392 951 404 959 412 959 c 0
 422 959 429 956 434 948 c 0
 439 942 442 933 442 924 c 0
EndSplineSet
Validated: 1
EndChar

StartChar: Idot
Encoding: 260 304 197
Width: 502
Flags: W
LayerCount: 2
Fore
SplineSet
296 947 m 0
 304 936 309 921 309 904 c 0
 309 887 303 871 292 856 c 0
 281 842 267 835 250 835 c 0
 234 835 221 841 212 853 c 0
 203 865 198 880 198 897 c 0
 198 914 204 930 214 944 c 0
 226 957 240 964 256 964 c 0
 274 964 286 958 296 947 c 0
390 661 m 2
 300 665 l 1
 297 600 296 508 296 386 c 0
 296 266 298 164 301 83 c 1
 390 88 l 2
 408 88 422 84 434 76 c 0
 444 67 450 56 450 41 c 0
 450 26 444 15 434 6 c 0
 422 -2 408 -6 390 -6 c 2
 251 0 l 1
 112 -7 l 2
 94 -7 80 -3 68 6 c 0
 58 14 52 25 52 40 c 0
 52 55 58 66 68 74 c 0
 80 83 94 87 112 87 c 2
 201 82 l 1
 204 163 206 265 206 386 c 0
 206 507 205 600 202 665 c 1
 112 661 l 2
 94 661 80 665 68 674 c 0
 58 682 52 693 52 708 c 0
 52 723 58 734 68 742 c 0
 80 751 94 755 112 755 c 2
 251 750 l 1
 390 756 l 2
 408 756 422 752 434 744 c 0
 444 735 450 724 450 709 c 0
 450 694 444 683 434 674 c 0
 422 665 408 661 390 661 c 2
EndSplineSet
Validated: 1
EndChar

StartChar: dotlessi
Encoding: 261 305 198
Width: 502
Flags: W
LayerCount: 2
Fore
SplineSet
390 661 m 2
 300 665 l 1
 297 600 296 508 296 386 c 0
 296 266 298 164 301 83 c 1
 390 88 l 2
 408 88 422 84 434 76 c 0
 444 67 450 56 450 41 c 0
 450 26 444 15 434 6 c 0
 422 -2 408 -6 390 -6 c 2
 251 0 l 1
 112 -7 l 2
 94 -7 80 -3 68 6 c 0
 58 14 52 25 52 40 c 0
 52 55 58 66 68 74 c 0
 80 83 94 87 112 87 c 2
 201 82 l 1
 204 163 206 265 206 386 c 0
 206 507 205 600 202 665 c 1
 112 661 l 2
 94 661 80 665 68 674 c 0
 58 682 52 693 52 708 c 0
 52 723 58 734 68 742 c 0
 80 751 94 755 112 755 c 2
 251 750 l 1
 390 756 l 2
 408 756 422 752 434 744 c 0
 444 735 450 724 450 709 c 0
 450 694 444 683 434 674 c 0
 422 665 408 661 390 661 c 2
EndSplineSet
Validated: 1
EndChar

StartChar: IJ
Encoding: 262 306 199
Width: 1010
Flags: W
LayerCount: 2
Fore
SplineSet
374 661 m 2
 292 665 l 1
 289 600 288 508 288 386 c 0
 288 266 290 164 293 83 c 1
 374 87 l 2
 392 87 406 83 418 74 c 0
 428 66 434 55 434 40 c 0
 434 26 428 15 418 6 c 0
 406 -2 392 -6 374 -6 c 2
 374 -6 243 0 243 0 c 1
 243 0 112 -6 112 -6 c 2
 94 -6 80 -2 68 6 c 0
 58 15 52 26 52 40 c 0
 52 55 58 66 68 74 c 0
 80 83 94 87 112 87 c 2
 193 82 l 1
 196 163 198 265 198 386 c 0
 198 507 197 600 194 665 c 1
 112 661 l 2
 94 661 80 665 68 674 c 0
 58 683 52 694 52 709 c 0
 52 724 58 735 68 744 c 0
 80 752 94 756 112 756 c 2
 112 756 243 750 243 750 c 1
 243 750 374 756 374 756 c 2
 392 756 406 752 418 744 c 0
 428 735 434 724 434 709 c 0
 434 694 428 683 418 674 c 0
 406 665 392 661 374 661 c 2
745 750 m 1
 894 756 l 2
 912 756 926 752 938 744 c 0
 948 735 954 724 954 710 c 0
 954 695 948 684 935 675 c 0
 922 666 906 662 886 662 c 1
 885 621 885 486 885 257 c 0
 885 208 878 166 864 129 c 0
 851 92 833 64 810 44 c 0
 765 5 714 -15 658 -15 c 0
 600 -15 554 -4 518 20 c 0
 481 42 463 65 463 87 c 0
 463 100 467 110 474 118 c 0
 481 125 491 129 503 129 c 0
 515 129 527 124 539 115 c 0
 551 106 566 96 585 86 c 0
 604 77 627 72 654 72 c 0
 693 72 726 88 754 122 c 0
 781 154 795 207 795 278 c 2
 792 667 l 1
 751 667 713 666 679 664 c 0
 645 662 622 661 608 661 c 0
 596 661 584 665 572 674 c 0
 562 682 556 693 556 708 c 0
 556 723 562 734 572 742 c 0
 584 751 598 755 616 755 c 2
 745 750 l 1
EndSplineSet
Validated: 1
EndChar

StartChar: ij
Encoding: 263 307 200
Width: 1010
Flags: W
LayerCount: 2
Fore
SplineSet
374 661 m 2
 292 665 l 1
 289 600 288 508 288 386 c 0
 288 266 290 164 293 83 c 1
 374 87 l 2
 392 87 406 83 418 74 c 0
 428 66 434 55 434 40 c 0
 434 26 428 15 418 6 c 0
 406 -2 392 -6 374 -6 c 2
 374 -6 243 0 243 0 c 1
 243 0 112 -6 112 -6 c 2
 94 -6 80 -2 68 6 c 0
 58 15 52 26 52 40 c 0
 52 55 58 66 68 74 c 0
 80 83 94 87 112 87 c 2
 193 82 l 1
 196 163 198 265 198 386 c 0
 198 507 197 600 194 665 c 1
 112 661 l 2
 94 661 80 665 68 674 c 0
 58 683 52 694 52 709 c 0
 52 724 58 735 68 744 c 0
 80 752 94 756 112 756 c 2
 112 756 243 750 243 750 c 1
 243 750 374 756 374 756 c 2
 392 756 406 752 418 744 c 0
 428 735 434 724 434 709 c 0
 434 694 428 683 418 674 c 0
 406 665 392 661 374 661 c 2
745 750 m 1
 894 756 l 2
 912 756 926 752 938 744 c 0
 948 735 954 724 954 710 c 0
 954 695 948 684 935 675 c 0
 922 666 906 662 886 662 c 1
 885 621 885 486 885 257 c 0
 885 208 878 166 864 129 c 0
 851 92 833 64 810 44 c 0
 765 5 714 -15 658 -15 c 0
 600 -15 554 -4 518 20 c 0
 481 42 463 65 463 87 c 0
 463 100 467 110 474 118 c 0
 481 125 491 129 503 129 c 0
 515 129 527 124 539 115 c 0
 551 106 566 96 585 86 c 0
 604 77 627 72 654 72 c 0
 693 72 726 88 754 122 c 0
 781 154 795 207 795 278 c 2
 792 667 l 1
 751 667 713 666 679 664 c 0
 645 662 622 661 608 661 c 0
 596 661 584 665 572 674 c 0
 562 682 556 693 556 708 c 0
 556 723 562 734 572 742 c 0
 584 751 598 755 616 755 c 2
 745 750 l 1
EndSplineSet
Validated: 1
EndChar

StartChar: jcircumflex
Encoding: 265 309 202
Width: 593
Flags: W
LayerCount: 2
Fore
SplineSet
328 750 m 1
 477 756 l 2
 495 756 510 752 520 744 c 0
 532 735 537 724 537 710 c 0
 537 695 531 684 518 675 c 0
 505 666 489 662 469 662 c 1
 468 621 468 486 468 257 c 0
 468 208 461 166 448 129 c 0
 434 92 416 64 393 44 c 0
 348 5 298 -15 240 -15 c 0
 184 -15 137 -4 100 20 c 0
 64 42 46 65 46 87 c 0
 46 100 50 110 57 118 c 0
 64 125 74 129 86 129 c 0
 98 129 110 124 122 115 c 0
 134 106 149 96 168 86 c 0
 187 77 210 72 237 72 c 0
 276 72 309 88 336 122 c 0
 364 154 378 207 378 278 c 2
 375 667 l 1
 333 667 295 666 261 664 c 0
 227 662 204 661 191 661 c 0
 178 661 166 665 156 674 c 0
 144 682 139 693 139 708 c 0
 139 723 144 734 156 742 c 0
 166 751 181 755 199 755 c 2
 328 750 l 1
426 842 m 0
 380 896 352 923 342 923 c 0
 332 923 306 897 263 846 c 0
 260 842 257 839 256 838 c 2
 248 830 l 2
 239 821 229 817 218 817 c 0
 206 817 196 820 189 828 c 0
 182 834 178 844 178 856 c 0
 178 869 187 882 204 896 c 0
 221 911 239 928 256 948 c 0
 274 968 289 983 302 994 c 0
 315 1005 328 1010 342 1010 c 0
 357 1010 370 1005 384 994 c 0
 396 983 412 968 429 948 c 0
 446 928 464 911 482 896 c 0
 499 881 508 868 508 856 c 0
 508 844 504 834 497 828 c 0
 490 820 482 817 473 817 c 0
 464 817 457 819 452 822 c 0
 443 827 434 833 426 842 c 0
EndSplineSet
Validated: 1
EndChar

StartChar: Kcommaaccent
Encoding: 266 310 203
Width: 688
Flags: W
LayerCount: 2
Fore
SplineSet
241 -64 m 0
 249 -52 260 -47 276 -47 c 0
 290 -47 302 -52 310 -62 c 0
 319 -71 323 -83 323 -97 c 0
 323 -126 309 -157 282 -188 c 0
 255 -220 232 -236 214 -236 c 0
 205 -236 197 -233 191 -228 c 0
 185 -223 182 -217 182 -210 c 0
 182 -204 192 -183 211 -148 c 0
 214 -142 218 -129 222 -110 c 0
 227 -90 233 -74 241 -64 c 0
208 337 m 1
 213 47 l 2
 213 31 208 18 198 6 c 0
 188 -4 176 -10 162 -10 c 0
 149 -10 137 -4 128 6 c 0
 118 18 113 31 113 47 c 2
 113 47 117 372 117 372 c 1
 117 372 113 702 113 702 c 2
 113 718 118 732 128 742 c 0
 137 754 149 759 162 759 c 0
 176 759 188 754 198 742 c 0
 208 732 213 718 213 702 c 2
 210 612 l 2
 209 552 208 493 208 434 c 1
 226 439 249 442 277 442 c 2
 333 436 l 1
 364 459 396 500 428 556 c 0
 461 614 482 666 493 714 c 0
 500 745 516 760 541 760 c 0
 552 760 562 756 570 747 c 0
 579 738 583 728 583 715 c 0
 583 674 564 619 528 552 c 0
 490 485 451 429 408 386 c 1
 476 263 532 174 575 119 c 0
 598 90 620 75 641 75 c 2
 652 76 l 2
 657 76 659 69 659 54 c 0
 659 39 653 25 641 11 c 0
 629 -3 614 -10 595 -10 c 0
 576 -10 558 -2 540 14 c 0
 503 45 431 154 324 341 c 1
 260 334 l 2
 236 334 219 335 208 337 c 1
EndSplineSet
Validated: 1
EndChar

StartChar: kcedilla
Encoding: 267 311 204
Width: 688
Flags: W
LayerCount: 2
Fore
SplineSet
241 -64 m 0
 249 -52 260 -47 276 -47 c 0
 290 -47 302 -52 310 -62 c 0
 319 -71 323 -83 323 -97 c 0
 323 -126 309 -157 282 -188 c 0
 255 -220 232 -236 214 -236 c 0
 205 -236 197 -233 191 -228 c 0
 185 -223 182 -217 182 -210 c 0
 182 -204 192 -183 211 -148 c 0
 214 -142 218 -129 222 -110 c 0
 227 -90 233 -74 241 -64 c 0
208 337 m 1
 213 47 l 2
 213 31 208 18 198 6 c 0
 188 -4 176 -10 162 -10 c 0
 149 -10 137 -4 128 6 c 0
 118 18 113 31 113 47 c 2
 113 47 117 372 117 372 c 1
 117 372 113 702 113 702 c 2
 113 718 118 732 128 742 c 0
 137 754 149 759 162 759 c 0
 176 759 188 754 198 742 c 0
 208 732 213 718 213 702 c 2
 210 612 l 2
 209 552 208 493 208 434 c 1
 226 439 249 442 277 442 c 2
 333 436 l 1
 364 459 396 500 428 556 c 0
 461 614 482 666 493 714 c 0
 500 745 516 760 541 760 c 0
 552 760 562 756 570 747 c 0
 579 738 583 728 583 715 c 0
 583 674 564 619 528 552 c 0
 490 485 451 429 408 386 c 1
 476 263 532 174 575 119 c 0
 598 90 620 75 641 75 c 2
 652 76 l 2
 657 76 659 69 659 54 c 0
 659 39 653 25 641 11 c 0
 629 -3 614 -10 595 -10 c 0
 576 -10 558 -2 540 14 c 0
 503 45 431 154 324 341 c 1
 260 334 l 2
 236 334 219 335 208 337 c 1
EndSplineSet
Validated: 1
EndChar

StartChar: kgreenlandic
Encoding: 268 312 205
Width: 688
Flags: W
LayerCount: 2
Fore
SplineSet
208 337 m 1
 213 47 l 2
 213 31 208 18 198 6 c 0
 188 -4 176 -10 162 -10 c 0
 149 -10 137 -4 128 6 c 0
 118 18 113 31 113 47 c 2
 117 372 l 1
 113 702 l 2
 113 718 118 732 128 742 c 0
 137 754 149 759 162 759 c 0
 176 759 188 754 198 742 c 0
 208 732 213 718 213 702 c 2
 210 612 l 2
 209 552 208 493 208 434 c 1
 226 439 249 442 277 442 c 2
 333 436 l 1
 364 459 396 500 428 556 c 0
 461 614 482 666 493 714 c 0
 500 745 516 760 541 760 c 0
 552 760 562 756 570 747 c 0
 579 738 583 728 583 715 c 0
 583 674 564 619 528 552 c 0
 490 485 451 429 408 386 c 1
 476 263 532 174 575 119 c 0
 598 90 620 75 641 75 c 2
 652 76 l 2
 657 76 659 69 659 54 c 0
 659 39 653 25 641 11 c 0
 629 -3 614 -10 595 -10 c 0
 576 -10 558 -2 540 14 c 0
 503 45 431 154 324 341 c 1
 260 334 l 2
 236 334 219 335 208 337 c 1
EndSplineSet
Validated: 1
EndChar

StartChar: Ldot
Encoding: 269 319 206
Width: 594
Flags: W
LayerCount: 2
Fore
SplineSet
408 428 m 0
 418 417 422 402 422 384 c 0
 422 367 416 351 405 337 c 0
 394 323 380 316 364 316 c 0
 347 316 334 322 325 334 c 0
 316 346 311 361 311 378 c 0
 311 395 316 411 328 424 c 0
 338 438 352 445 370 445 c 0
 386 445 400 439 408 428 c 0
115 54 m 2
 119 380 l 2
 119 467 118 539 116 596 c 0
 114 653 113 684 113 689 c 0
 113 736 130 760 164 760 c 0
 198 760 215 736 215 689 c 0
 215 684 215 667 214 638 c 0
 211 553 209 476 209 406 c 0
 209 335 209 280 210 240 c 0
 211 201 212 167 213 140 c 0
 214 112 215 94 215 87 c 1
 247 84 282 82 319 82 c 0
 356 82 393 83 428 86 c 0
 463 88 486 89 498 89 c 0
 508 89 520 85 530 76 c 0
 542 68 547 57 547 42 c 0
 547 27 542 16 530 8 c 0
 520 -1 505 -5 487 -5 c 2
 487 -5 338 0 338 0 c 1
 338 0 176 -5 176 -5 c 2
 156 -5 141 -1 130 8 c 0
 120 16 115 31 115 54 c 2
EndSplineSet
Validated: 1
EndChar

StartChar: ldot
Encoding: 270 320 207
Width: 594
Flags: W
LayerCount: 2
Fore
SplineSet
408 428 m 0
 418 417 422 402 422 384 c 0
 422 367 416 351 405 337 c 0
 394 323 380 316 364 316 c 0
 347 316 334 322 325 334 c 0
 316 346 311 361 311 378 c 0
 311 395 316 411 328 424 c 0
 338 438 352 445 370 445 c 0
 386 445 400 439 408 428 c 0
115 54 m 2
 119 380 l 2
 119 467 118 539 116 596 c 0
 114 653 113 684 113 689 c 0
 113 736 130 760 164 760 c 0
 198 760 215 736 215 689 c 0
 215 684 215 667 214 638 c 0
 211 553 209 476 209 406 c 0
 209 335 209 280 210 240 c 0
 211 201 212 167 213 140 c 0
 214 112 215 94 215 87 c 1
 247 84 282 82 319 82 c 0
 356 82 393 83 428 86 c 0
 463 88 486 89 498 89 c 0
 508 89 520 85 530 76 c 0
 542 68 547 57 547 42 c 0
 547 27 542 16 530 8 c 0
 520 -1 505 -5 487 -5 c 2
 487 -5 338 0 338 0 c 1
 338 0 176 -5 176 -5 c 2
 156 -5 141 -1 130 8 c 0
 120 16 115 31 115 54 c 2
EndSplineSet
Validated: 1
EndChar

StartChar: Lslash
Encoding: 271 321 208
Width: 611
Flags: W
LayerCount: 2
Fore
SplineSet
135 449 m 1
 130 689 l 2
 130 736 147 760 181 760 c 0
 215 760 232 736 232 689 c 0
 232 684 232 675 231 660 c 0
 229 611 227 567 226 527 c 1
 285 582 l 2
 299 593 311 599 321 599 c 0
 331 599 340 595 348 586 c 0
 357 578 361 568 361 557 c 0
 361 546 354 534 339 522 c 2
 226 429 l 1
 226 380 l 2
 226 275 227 201 229 160 c 0
 231 119 232 94 232 87 c 1
 264 84 299 82 336 82 c 0
 374 82 410 83 446 86 c 0
 480 88 504 89 514 89 c 0
 526 89 536 85 548 76 c 0
 558 68 564 57 564 42 c 0
 564 27 558 16 548 8 c 0
 536 -1 522 -5 504 -5 c 2
 504 -5 356 0 356 0 c 1
 356 0 193 -5 193 -5 c 2
 173 -5 158 -1 148 8 c 0
 137 16 132 31 132 54 c 0
 132 59 132 75 133 102 c 0
 134 155 135 238 135 350 c 1
 99 317 l 2
 88 307 76 302 65 302 c 0
 54 302 44 306 36 314 c 0
 28 321 24 331 24 343 c 0
 24 355 31 366 44 377 c 2
 135 449 l 1
EndSplineSet
Validated: 1
EndChar

StartChar: lslash
Encoding: 272 322 209
Width: 611
Flags: W
LayerCount: 2
Fore
SplineSet
135 449 m 1
 130 689 l 2
 130 736 147 760 181 760 c 0
 215 760 232 736 232 689 c 0
 232 684 232 675 231 660 c 0
 229 611 227 567 226 527 c 1
 285 582 l 2
 296 593 308 599 319 599 c 0
 330 599 340 595 348 586 c 0
 357 578 361 568 361 557 c 0
 361 546 354 534 339 522 c 2
 226 429 l 1
 226 380 l 2
 226 275 227 201 229 160 c 0
 231 119 232 94 232 87 c 1
 264 84 299 82 336 82 c 0
 374 82 410 83 446 86 c 0
 480 88 504 89 514 89 c 0
 526 89 536 85 548 76 c 0
 558 68 564 57 564 42 c 0
 564 27 558 16 548 8 c 0
 536 -1 522 -5 504 -5 c 2
 504 -5 356 0 356 0 c 1
 356 0 193 -5 193 -5 c 2
 173 -5 158 -1 148 8 c 0
 137 16 132 31 132 54 c 0
 132 59 132 75 133 102 c 0
 134 155 135 238 135 350 c 1
 99 317 l 2
 88 307 76 302 65 302 c 0
 54 302 44 306 36 314 c 0
 28 321 24 331 24 343 c 0
 24 355 31 366 44 377 c 2
 135 449 l 1
EndSplineSet
Validated: 1
EndChar

StartChar: Nacute
Encoding: 273 323 210
Width: 743
Flags: W
LayerCount: 2
Fore
SplineSet
626 372 m 2
 629 62 l 2
 629 14 611 -10 576 -10 c 0
 554 -10 537 0 526 21 c 2
 209 567 l 1
 209 412 210 288 212 195 c 0
 213 102 214 50 214 40 c 0
 214 28 209 18 199 6 c 0
 189 -4 177 -10 164 -10 c 0
 150 -10 138 -4 128 6 c 0
 119 18 114 31 114 48 c 2
 118 372 l 2
 118 441 117 510 116 581 c 0
 114 652 113 688 113 689 c 0
 113 736 130 760 164 760 c 0
 189 760 207 750 219 729 c 0
 413 396 519 216 536 189 c 1
 536 378 535 508 533 579 c 0
 531 650 530 687 530 689 c 0
 530 736 547 760 581 760 c 0
 615 760 632 736 632 689 c 0
 632 684 631 666 630 636 c 0
 627 547 626 459 626 372 c 2
491 947 m 0
 491 918 475 888 444 858 c 0
 412 829 385 814 364 814 c 0
 353 814 345 817 340 822 c 0
 334 827 331 834 331 842 c 0
 331 850 339 864 355 884 c 0
 371 903 382 920 388 933 c 0
 394 946 399 956 402 962 c 0
 406 969 412 975 420 982 c 0
 429 988 439 991 450 991 c 0
 462 991 472 986 480 978 c 0
 487 968 491 958 491 947 c 0
EndSplineSet
Validated: 1
EndChar

StartChar: OE
Encoding: 275 338 212
Width: 997
Flags: W
LayerCount: 2
Fore
SplineSet
540 164 m 0
 581 226 602 297 602 378 c 0
 602 458 582 528 540 588 c 0
 500 648 448 678 387 678 c 0
 326 678 274 648 232 588 c 0
 189 528 168 458 168 378 c 0
 168 297 189 226 232 164 c 0
 274 103 326 72 386 72 c 0
 448 72 499 103 540 164 c 0
878 665 m 2
 638 670 l 2
 621 670 608 669 597 668 c 1
 650 608 682 532 693 441 c 1
 758 442 802 443 824 443 c 0
 863 443 883 428 883 399 c 0
 883 370 863 355 824 355 c 0
 805 355 763 356 698 357 c 1
 695 250 661 158 596 82 c 1
 639 81 678 80 714 80 c 2
 878 85 l 2
 917 85 937 70 937 40 c 0
 937 26 932 15 921 7 c 0
 910 -1 896 -5 878 -5 c 2
 714 0 l 1
 539 -5 l 2
 522 -5 508 -1 498 8 c 1
 467 -7 430 -15 387 -15 c 0
 298 -15 223 23 162 100 c 0
 102 176 72 268 72 376 c 0
 72 484 102 576 163 652 c 0
 224 727 299 765 389 765 c 0
 426 765 460 759 489 746 c 1
 498 752 512 755 533 755 c 2
 533 755 725 750 725 750 c 1
 725 750 878 755 878 755 c 2
 896 755 910 751 921 743 c 0
 932 735 937 724 937 710 c 0
 937 696 932 685 921 677 c 0
 910 669 896 665 878 665 c 2
EndSplineSet
Validated: 1
EndChar

